<?xml version="1.0" encoding="UTF-8" standalone="no"?>
<!-- Created with Inkscape (http://www.inkscape.org/) -->

<svg
   width="126.12062mm"
   height="109.35374mm"
   viewBox="0 0 126.12061 109.35373"
   version="1.1"
   id="svg1394"
   inkscape:version="1.2.2 (b0a8486541, 2022-12-01)"
   sodipodi:docname="consultant-user-hands.svg"
   xmlns:inkscape="http://www.inkscape.org/namespaces/inkscape"
   xmlns:sodipodi="http://sodipodi.sourceforge.net/DTD/sodipodi-0.dtd"
   xmlns="http://www.w3.org/2000/svg"
   xmlns:svg="http://www.w3.org/2000/svg">
  <sodipodi:namedview
     id="namedview1396"
     pagecolor="#ffffff"
     bordercolor="#000000"
     borderopacity="0.25"
     inkscape:showpageshadow="2"
     inkscape:pageopacity="0.0"
     inkscape:pagecheckerboard="0"
     inkscape:deskcolor="#d1d1d1"
     inkscape:document-units="mm"
     showgrid="false"
     inkscape:zoom="1.5378191"
     inkscape:cx="286.11947"
     inkscape:cy="241.57587"
     inkscape:window-width="1846"
     inkscape:window-height="1016"
     inkscape:window-x="1994"
     inkscape:window-y="27"
     inkscape:window-maximized="1"
     inkscape:current-layer="layer1" />
  <defs
     id="defs1391">
    <clipPath
       clipPathUnits="userSpaceOnUse"
       id="clipPath492">
      <path
         d="M 0,500 H 750 V 0 H 0 Z"
         id="path490" />
    </clipPath>
    <clipPath
       clipPathUnits="userSpaceOnUse"
       id="clipPath812">
      <path
         d="M 405.602,136.465 H 427.19 V 122.612 H 405.602 Z"
         id="path810" />
    </clipPath>
    <clipPath
       clipPathUnits="userSpaceOnUse"
       id="clipPath828">
      <path
         d="m 447.308,124.133 h 26.822 v -0.53 h -26.822 z"
         id="path826" />
    </clipPath>
    <clipPath
       clipPathUnits="userSpaceOnUse"
       id="clipPath848">
      <path
         d="m 447.871,253.96 h 32.126 V 234.8 h -32.126 z"
         id="path846" />
    </clipPath>
    <clipPath
       clipPathUnits="userSpaceOnUse"
       id="clipPath1044">
      <path
         d="m 609.154,249.617 h 32.632 v -24.468 h -32.632 z"
         id="path1042" />
    </clipPath>
    <clipPath
       clipPathUnits="userSpaceOnUse"
       id="clipPath1116">
      <path
         d="m 636.357,237.957 h 7.977 v -30.546 h -7.977 z"
         id="path1114" />
    </clipPath>
  </defs>
  <g
     inkscape:label="Layer 1"
     inkscape:groupmode="layer"
     id="layer1"
     transform="translate(-13.530386,-31.484262)">
    <g
       id="g488"
       clip-path="url(#clipPath492)"
       transform="matrix(0.35277777,0,0,-0.35277777,-111.93021,172.70556)">
      <g
         id="g506"
         transform="translate(433.3179,375.2958)">
        <path
           d="m 0,0 c 0,-9.484 -7.688,-17.173 -17.172,-17.173 -9.484,0 -17.173,7.689 -17.173,17.173 0,9.484 7.689,17.173 17.173,17.173 C -7.688,17.173 0,9.484 0,0"
           style="fill:#d6e1ff;fill-opacity:1;fill-rule:nonzero;stroke:none"
           id="path508" />
      </g>
      <g
         id="g510"
         transform="translate(433.3179,375.2958)">
        <path
           d="m 0,0 c 0,-9.484 -7.688,-17.173 -17.172,-17.173 -9.484,0 -17.173,7.689 -17.173,17.173 0,9.484 7.689,17.173 17.173,17.173 C -7.688,17.173 0,9.484 0,0 Z"
           style="fill:none;stroke:#d6e1ff;stroke-width:2.449;stroke-linecap:butt;stroke-linejoin:miter;stroke-miterlimit:10;stroke-dasharray:none;stroke-opacity:1"
           id="path512" />
      </g>
      <g
         id="g530"
         transform="translate(706.0562,363.8817)">
        <path
           d="m 0,0 h -130.688 c -73.293,0 -132.71,-59.416 -132.71,-132.71 0,-73.294 59.417,-132.71 132.71,-132.71 l 130.841,-1.483 z"
           style="fill:#d6e1ff;fill-opacity:1;fill-rule:nonzero;stroke:none"
           id="path532" />
      </g>
      <g
         id="g534"
         transform="translate(706.0562,363.8817)">
        <path
           d="m 0,0 h -130.688 c -73.293,0 -132.71,-59.416 -132.71,-132.71 0,-73.294 59.417,-132.71 132.71,-132.71 l 130.841,-1.483 z"
           style="fill:none;stroke:#d6e1ff;stroke-width:2.449;stroke-linecap:butt;stroke-linejoin:miter;stroke-miterlimit:10;stroke-dasharray:none;stroke-opacity:1"
           id="path536" />
      </g>
      <g
         id="g538"
         transform="translate(536.8482,101.6063)">
        <path
           d="m 0,0 c 0,1.626 22.916,2.944 51.185,2.944 28.268,0 51.184,-1.318 51.184,-2.944 0,-1.627 -22.916,-2.945 -51.184,-2.945 C 22.916,-2.945 0,-1.627 0,0"
           style="fill:#7797c9;fill-opacity:1;fill-rule:nonzero;stroke:none"
           id="path540" />
      </g>
      <g
         id="g542"
         transform="translate(543.0338,109.8075)">
        <path
           d="M 0,0 1.568,3.099 10.909,2.761 11.119,0 l -4.39,-7.615 -7.9,6.092 z"
           style="fill:#f0979d;fill-opacity:1;fill-rule:nonzero;stroke:none"
           id="path544" />
      </g>
      <g
         id="g546"
         transform="translate(548.732,112.5956)">
        <path
           d="m 0,0 0.393,-7.194 c 0,0 2.426,1.377 5.262,3.92 L 5.267,0.798 Z"
           style="fill:#e66971;fill-opacity:1;fill-rule:nonzero;stroke:none"
           id="path548" />
      </g>
      <g
         id="g550"
         transform="translate(542.4693,109.9139)">
        <path
           d="m 0,0 c 0,0 2.744,0.053 5.937,-2.369 1.901,-1.442 4.773,1.532 5.653,2.301 0.179,0.156 0.422,0.015 0.452,-0.262 l 1.104,-10.057 H -14.65 c -0.325,0 -0.586,0.341 -0.586,0.762 v 2.116 c 0,0.328 0.161,0.619 0.4,0.723 z"
           style="fill:#264373;fill-opacity:1;fill-rule:nonzero;stroke:none"
           id="path552" />
      </g>
      <g
         id="g554"
         transform="translate(540.9078,109.3866)">
        <path
           d="M 0,0 4.475,-2.589"
           style="fill:none;stroke:#ffffff;stroke-width:0.395;stroke-linecap:butt;stroke-linejoin:miter;stroke-miterlimit:10;stroke-dasharray:none;stroke-opacity:1"
           id="path556" />
      </g>
      <g
         id="g558"
         transform="translate(538.9576,108.3885)">
        <path
           d="M 0,0 4.475,-2.589"
           style="fill:none;stroke:#ffffff;stroke-width:0.395;stroke-linecap:butt;stroke-linejoin:miter;stroke-miterlimit:10;stroke-dasharray:none;stroke-opacity:1"
           id="path560" />
      </g>
      <g
         id="g562"
         transform="translate(588.3238,109.8075)">
        <path
           d="M 0,0 1.567,3.099 10.141,4.385 11.118,0 6.729,-7.615 l -7.9,6.092 z"
           style="fill:#f0979d;fill-opacity:1;fill-rule:nonzero;stroke:none"
           id="path564" />
      </g>
      <g
         id="g566"
         transform="translate(594.9537,112.7948)">
        <path
           d="m 0,0 -0.778,-6.795 c 0,0 2.426,1.377 5.263,3.92 l -0.78,3.474 z"
           style="fill:#e66971;fill-opacity:1;fill-rule:nonzero;stroke:none"
           id="path568" />
      </g>
      <g
         id="g570"
         transform="translate(587.7593,109.9139)">
        <path
           d="m 0,0 c 0,0 2.744,0.053 5.937,-2.369 1.901,-1.442 4.773,1.532 5.652,2.301 0.18,0.156 0.423,0.015 0.453,-0.262 l 1.104,-10.057 h -27.797 c -0.324,0 -0.585,0.341 -0.585,0.762 v 2.116 c 0,0.328 0.161,0.619 0.4,0.723 z"
           style="fill:#264373;fill-opacity:1;fill-rule:nonzero;stroke:none"
           id="path572" />
      </g>
      <g
         id="g574"
         transform="translate(585.5689,109.1864)">
        <path
           d="M 0,0 4.475,-2.589"
           style="fill:none;stroke:#ffffff;stroke-width:0.395;stroke-linecap:butt;stroke-linejoin:miter;stroke-miterlimit:10;stroke-dasharray:none;stroke-opacity:1"
           id="path576" />
      </g>
      <g
         id="g578"
         transform="translate(583.6187,108.1884)">
        <path
           d="M 0,0 4.475,-2.589"
           style="fill:none;stroke:#ffffff;stroke-width:0.395;stroke-linecap:butt;stroke-linejoin:miter;stroke-miterlimit:10;stroke-dasharray:none;stroke-opacity:1"
           id="path580" />
      </g>
      <g
         id="g582"
         transform="translate(571.4175,323.9706)">
        <path
           d="m 0,0 -0.714,-0.385 c 0.506,0.515 1.058,0.764 1.439,0.884 z m -11.687,21.25 c -2.508,0.676 -5.005,-0.606 -5.572,-3.251 0.03,1.344 0.541,2.567 1.801,3.326 1.21,0.729 2.634,0.62 3.771,-0.075 M -15.15,10.453 c 0.381,-0.525 0.902,-1.099 1.478,-1.327 1.297,-0.517 2.953,0.563 4.402,1.687 1.426,1.107 4.146,-0.695 4.569,-0.989 l 3.276,-10.592 -0.256,-0.137 0.097,-0.188 0.096,-0.187 3.287,1.77 0.025,0.084 c 2.416,7.946 2.264,9.73 1.113,13.194 -3.046,4.929 -12.681,7.572 -13.409,8.175 -1.57,1.302 -3.854,1.547 -5.613,0.48 -3.375,-2.05 -2.74,-6.647 -0.81,-9.723 0.36,-0.936 0.92,-1.743 1.745,-2.247"
           style="fill:#264373;fill-opacity:1;fill-rule:nonzero;stroke:none"
           id="path584" />
      </g>
      <g
         id="g586"
         transform="translate(544.7691,231.5223)">
        <path
           d="m 0,0 c 0,0 -3.575,-42.763 -3.911,-54.577 -0.336,-11.815 2.036,-64.487 2.036,-64.487 l 11.965,-0.263 c 0,0 13.295,88.364 27.739,116.858 z"
           style="fill:#d14c62;fill-opacity:1;fill-rule:nonzero;stroke:none"
           id="path588" />
      </g>
      <g
         id="g590"
         transform="translate(562.8052,229.2655)">
        <path
           d="m 0,0 c 0,0 -10.172,-49.401 -10.172,-56.986 0,-7.585 -1.502,-59.708 -1.502,-59.708"
           style="fill:none;stroke:#ffffff;stroke-width:0.395;stroke-linecap:butt;stroke-linejoin:miter;stroke-miterlimit:10;stroke-dasharray:none;stroke-opacity:1"
           id="path592" />
      </g>
      <g
         id="g594"
         transform="translate(555.6714,117.9481)">
        <path
           d="M 0,0 H -12.906"
           style="fill:none;stroke:#ffffff;stroke-width:0.395;stroke-linecap:butt;stroke-linejoin:miter;stroke-miterlimit:10;stroke-dasharray:none;stroke-opacity:1"
           id="path596" />
      </g>
      <g
         id="g598"
         transform="translate(547.2779,231.4637)">
        <path
           d="m 0,0 c 0,0 5.727,-35.588 14.122,-60.806 6.785,-20.38 24.597,-59.141 24.597,-59.141 l 13.89,0.152 -14.482,58.383 c -0.772,3.042 -1.258,6.15 -1.455,9.288 -0.745,11.842 1.689,35.771 2.707,51.104 z"
           style="fill:#ff5c77;fill-opacity:1;fill-rule:nonzero;stroke:none"
           id="path600" />
      </g>
      <g
         id="g602"
         transform="translate(573.7007,230.8583)">
        <path
           d="m 0,0 c 0,0 -3.905,-46.203 -0.395,-53.39 3.51,-7.185 20.629,-65.694 20.629,-65.694"
           style="fill:none;stroke:#000d2b;stroke-width:0.395;stroke-linecap:butt;stroke-linejoin:miter;stroke-miterlimit:10;stroke-dasharray:none;stroke-opacity:1"
           id="path604" />
      </g>
      <g
         id="g606"
         transform="translate(598.2164,116.952)">
        <path
           d="M 0,0 H -14.386"
           style="fill:none;stroke:#000d2b;stroke-width:0.395;stroke-linecap:butt;stroke-linejoin:miter;stroke-miterlimit:10;stroke-dasharray:none;stroke-opacity:1"
           id="path608" />
      </g>
      <g
         id="g610"
         transform="translate(559.692,231.2567)">
        <path
           d="M 0,0 12.452,-16.329"
           style="fill:none;stroke:#000d2b;stroke-width:0.395;stroke-linecap:butt;stroke-linejoin:miter;stroke-miterlimit:10;stroke-dasharray:none;stroke-opacity:1"
           id="path612" />
      </g>
      <g
         id="g614"
         transform="translate(564.7252,298.8007)">
        <path
           d="m 0,0 c 0,0 0.473,3.837 -3.074,4.395 -3.548,0.557 -13.111,3.092 -37.423,-5.209 0,0 -4.211,23.54 -4.253,25.444 -0.106,4.956 -1.678,11.389 -5.513,14.786 -0.314,0.278 -0.542,-12.29 -0.679,-18.996 0,0 -3.238,-33.768 0.71,-37.162 C -46.285,-20.137 3.925,-11.569 0,0"
           style="fill:#f0979d;fill-opacity:1;fill-rule:nonzero;stroke:none"
           id="path616" />
      </g>
      <g
         id="g618"
         transform="translate(534.0103,301.4559)">
        <path
           d="m 0,0 c 0,0 36.816,9.211 36.417,-1.489 -0.398,-10.7 -54,-30.75 -58.484,-24.775 -7.119,9.487 0.676,41.968 0.676,41.968 l 8.8,3.927 2.572,-22.068 z"
           style="fill:#264373;fill-opacity:1;fill-rule:nonzero;stroke:none"
           id="path620" />
      </g>
      <g
         id="g622"
         transform="translate(536.563,280.3407)">
        <path
           d="m 0,0 c 2.133,-2.56 23.01,2.813 25.299,6.299 0,0 0.356,11.685 -0.532,11.927 C 15.703,20.682 0,0 0,0"
           style="fill:#203961;fill-opacity:1;fill-rule:nonzero;stroke:none"
           id="path624" />
      </g>
      <g
         id="g626"
         transform="translate(577.0552,305.8505)">
        <path
           d="m 0,0 c 0,0 18.674,-1.907 19.85,-17.371 1.175,-15.463 -8.472,-63.784 -8.472,-63.784 l -46.842,-0.813 2.613,60.942 c 0.19,3.942 1.406,7.759 3.519,11.061 1.953,3.048 4.239,6.504 5.538,6.666 L -4.19,1.969 Z"
           style="fill:#264373;fill-opacity:1;fill-rule:nonzero;stroke:none"
           id="path628" />
      </g>
      <g
         id="g630"
         transform="translate(580.9117,300.0302)">
        <path
           d="M 0,0 C 11.346,4.551 15.405,-3.818 15.993,-11.551 17.169,-27.014 7.251,-75.064 7.251,-75.064 l -46.3,-1.354"
           style="fill:#203961;fill-opacity:1;fill-rule:nonzero;stroke:none"
           id="path632" />
      </g>
      <g
         id="g634"
         transform="translate(571.1773,319.8368)">
        <path
           d="m 0,0 1.958,-12.018 -11.699,-7.528 -1.596,4.691 0.84,8.687 8.733,7.906 c 0,0 1.344,-0.956 1.512,-1.303 C -0.084,0.087 0,0 0,0"
           style="fill:#f0979d;fill-opacity:1;fill-rule:nonzero;stroke:none"
           id="path636" />
      </g>
      <g
         id="g638"
         transform="translate(569.4136,321.5751)">
        <path
           d="m 0,0 -8.733,-7.906 -0.618,-5.168 c 0,0 7.929,2.183 8.204,8.736"
           style="fill:#000d2b;fill-opacity:1;fill-rule:nonzero;stroke:none"
           id="path640" />
      </g>
      <g
         id="g642"
         transform="translate(547.1636,252.4735)">
        <path
           d="m 0,0 -10.409,32.664 c -0.576,1.811 -1.885,3.273 -3.585,4.007 l -21.315,9.206 c -0.63,0.272 -1.277,-0.353 -1.057,-1.023 l 10.517,-32 c 0.567,-1.723 1.797,-3.125 3.4,-3.875 L -1.08,-1.006 C -0.45,-1.3 0.217,-0.679 0,0"
           style="fill:#264373;fill-opacity:1;fill-rule:nonzero;stroke:none"
           id="path644" />
      </g>
      <g
         id="g646"
         transform="translate(545.3746,250.5614)">
        <path
           d="m 0,0 -10.409,32.663 c -0.577,1.811 -1.886,3.273 -3.586,4.007 l -21.314,9.206 c -0.63,0.272 -1.278,-0.353 -1.057,-1.022 l 10.517,-32.001 c 0.566,-1.722 1.797,-3.125 3.4,-3.874 L -1.081,-1.006 C -0.451,-1.301 0.217,-0.68 0,0"
           style="fill:#7fb7f4;fill-opacity:1;fill-rule:nonzero;stroke:none"
           id="path648" />
      </g>
      <g
         id="g650"
         transform="translate(540.0425,274.4696)">
        <path
           d="M 0,0 -7.848,-2.325 2.065,-6.341 Z"
           style="fill:#000d2b;fill-opacity:1;fill-rule:nonzero;stroke:none"
           id="path652" />
      </g>
      <g
         id="g654"
         transform="translate(540.0425,274.4696)">
        <path
           d="M 0,0 -7.848,-2.325 2.065,-6.341 Z"
           style="fill:none;stroke:#19224a;stroke-width:0.75;stroke-linecap:butt;stroke-linejoin:miter;stroke-miterlimit:10;stroke-dasharray:none;stroke-opacity:1"
           id="path656" />
      </g>
      <g
         id="g658"
         transform="translate(532.1099,268.7206)">
        <path
           d="m 0,0 c 1.152,-1.035 25.186,-27.509 37.506,-30.758 3.592,-0.947 6.245,2.17 8.122,5.415 L 58.016,-1.316 41.509,11.49 c -0.117,-0.181 -8.743,-14.844 -10.73,-22.199 -0.653,-2.419 -1.785,-2.233 -3.749,-1.031 l -15.062,9.285 c 0,0 0.025,2.633 -0.31,3.629 C 11.021,3.067 8.002,5.608 8.002,5.608 L 9.31,1.592 C 9.545,0.915 10.317,0.427 9.1,0.28 l -9.566,7.089 c 0,0 -0.872,0.071 -0.046,-0.868 C 0.314,5.562 1.21,4.575 1.095,4.505 0.98,4.434 -1.636,6.266 -1.75,5.562 -1.865,4.856 0.384,3.166 0.292,3.096 0.2,3.024 -2.255,5.045 -2.393,4.387 -2.53,3.729 -0.672,2.461 -0.58,2.203 -0.488,1.944 -2.6,3.564 -2.691,3.213 -2.783,2.86 -0.658,0.591 0,0"
           style="fill:#f0979d;fill-opacity:1;fill-rule:nonzero;stroke:none"
           id="path660" />
      </g>
      <g
         id="g662"
         transform="translate(577.9888,293.1913)">
        <path
           d="m 0,0 c 0,0 4.703,13.204 13.772,7.645 9.07,-5.56 0.943,-31.658 -2.687,-38.225 -2.989,-5.408 -6.567,-16.107 -11.471,-23.159 -3.425,-4.926 -13.201,-4.302 -17.54,-0.158 l -18.878,18.028 4.468,8.528 15.704,-6.768 z"
           style="fill:#264373;fill-opacity:1;fill-rule:nonzero;stroke:none"
           id="path664" />
      </g>
      <g
         id="g666"
         transform="translate(570.2623,324.5038)">
        <path
           d="m 0,0 c 0.104,-0.277 0.447,-0.359 0.657,-0.153 0.711,0.697 2.126,1.654 2.634,-1.125 0.689,-3.775 -3.249,-3.125 -3.562,-3.634 -0.637,-1.03 -2.679,-4.492 -5.723,-5.836 -1.855,-0.819 -4.602,-0.949 -6.627,0.996 -2.026,1.945 -2.933,0.613 -2.083,21.408 0,0 0.928,-1.791 2.263,-2.252 1.334,-0.462 3.472,1.389 4.992,1.813 1.234,0.345 3.627,1.25 5.09,-3.044 C -1.688,6.2 -0.619,1.636 0,0"
           style="fill:#f0979d;fill-opacity:1;fill-rule:nonzero;stroke:none"
           id="path668" />
      </g>
      <g
         id="g670"
         transform="translate(555.6275,321.1971)">
        <path
           d="m 0,0 c 0,0 1.222,-0.608 4.207,-0.327 0,0 -1.606,-2.177 -2.782,-1.756 C 0.248,-1.661 0,0 0,0"
           style="fill:#ffffff;fill-opacity:1;fill-rule:nonzero;stroke:none"
           id="path672" />
      </g>
      <g
         id="g674"
         transform="translate(572.9625,323.5067)">
        <path
           d="m 0,0 -2.08,-1.568 c 0,0 0.775,3.793 2.08,1.568"
           style="fill:#e66971;fill-opacity:1;fill-rule:nonzero;stroke:none"
           id="path676" />
      </g>
      <g
         id="g678"
         transform="translate(558.066,325.6063)">
        <path
           d="m 0,0 c 0,-0.454 0.181,-0.822 0.402,-0.822 0.222,0 0.402,0.368 0.402,0.822 0,0.454 -0.18,0.823 -0.402,0.823 C 0.181,0.823 0,0.454 0,0"
           style="fill:#000d2b;fill-opacity:1;fill-rule:nonzero;stroke:none"
           id="path680" />
      </g>
      <g
         id="g682"
         transform="translate(555.4507,326.0096)">
        <path
           d="m 0,0 c 0,-0.455 0.181,-0.823 0.402,-0.823 0.222,0 0.402,0.368 0.402,0.823 0,0.454 -0.18,0.822 -0.402,0.822 C 0.181,0.822 0,0.454 0,0"
           style="fill:#000d2b;fill-opacity:1;fill-rule:nonzero;stroke:none"
           id="path684" />
      </g>
      <g
         id="g686"
         transform="translate(561.4459,329.1512)">
        <path
           d="m 0,0 c 0.596,-0.416 -0.337,1.465 -1.146,1.675 -0.809,0.209 -1.608,-0.201 -1.785,-0.916 0,0 1.5,0.24 2.931,-0.759"
           style="fill:#000d2b;fill-opacity:1;fill-rule:nonzero;stroke:none"
           id="path688" />
      </g>
      <g
         id="g690"
         transform="translate(555.3277,329.3514)">
        <path
           d="M 0,0 C 0.853,0.111 1.466,-0.04 1.466,-0.04 1.354,0.637 0.726,1.111 -0.015,1.13"
           style="fill:#000d2b;fill-opacity:1;fill-rule:nonzero;stroke:none"
           id="path692" />
      </g>
      <g
         id="g694"
         transform="translate(556.6822,326.0331)">
        <path
           d="m 0,0 -1.226,-3.484 c -0.019,-0.057 0.017,-0.119 0.073,-0.123 l 1.445,-0.11 c 0.05,-0.004 0.092,0.042 0.088,0.097 L 0.159,-0.026 C 0.153,0.07 0.031,0.09 0,0"
           style="fill:#e66971;fill-opacity:1;fill-rule:nonzero;stroke:none"
           id="path696" />
      </g>
      <g
         id="g698"
         transform="translate(572.4586,311.4745)">
        <path
           d="m 0,0 -11.372,-8.529 0.27,-9.341 14.757,13.266 z"
           style="fill:#ffffff;fill-opacity:1;fill-rule:nonzero;stroke:none"
           id="path700" />
      </g>
      <g
         id="g702"
         transform="translate(559.733,309.3085)">
        <path
           d="m 0,0 1.218,-6.77 -2.166,-7.31 -2.707,8.529 z"
           style="fill:#ffffff;fill-opacity:1;fill-rule:nonzero;stroke:none"
           id="path704" />
      </g>
      <g
         id="g706"
         transform="translate(376.5611,100.0175)">
        <path
           d="M 0,0 C 0,1.626 22.917,2.944 51.186,2.944 79.454,2.944 102.37,1.626 102.37,0 102.37,-1.626 79.454,-2.945 51.186,-2.945 22.917,-2.945 0,-1.626 0,0"
           style="fill:#839ec9;fill-opacity:1;fill-rule:nonzero;stroke:none"
           id="path708" />
      </g>
      <g
         id="g710"
         transform="translate(458.648,288.3026)">
        <path
           d="m 0,0 15.687,23.291 c 0.802,1.151 0.31,5.417 -0.363,6.667 -1.843,3.424 -4.998,6.128 -8.585,7.028 -15.759,3.958 -76.907,-13.974 -76.907,-13.974 0,0 10.642,-47.886 59.455,-45.23"
           style="fill:#02192b;fill-opacity:1;fill-rule:nonzero;stroke:#02192b;stroke-width:0.401;stroke-linecap:butt;stroke-linejoin:miter;stroke-miterlimit:10;stroke-dasharray:none;stroke-opacity:1"
           id="path712" />
      </g>
      <g
         id="g714"
         transform="translate(459.7876,313.0565)">
        <path
           d="m 0,0 c -0.083,-0.168 -0.276,-0.229 -0.429,-0.134 -0.636,0.402 -2.258,1.167 -3.427,-0.511 -1.184,-1.696 0.993,-3.49 1.929,-4.151 0.271,-0.19 0.458,-0.488 0.529,-0.829 0.217,-1.049 0.639,-4.944 0.836,-8.365 0.172,-2.981 -2.128,-9.465 -2.128,-9.465 0,0 10.694,-4.205 11.888,-0.55 0,0 -2.581,9.853 -1.692,12.235 0.019,0.052 4.571,-1.054 6.886,6.816 2.18,7.416 -3.07,9.988 -4.297,10.47 C 9.059,5.922 4.14,8.347 0,0"
           style="fill:#f0a7a5;fill-opacity:1;fill-rule:nonzero;stroke:none"
           id="path716" />
      </g>
      <g
         id="g718"
         transform="translate(473.5894,317.9012)">
        <path
           d="m 0,0 c 0,0 -8.018,-9.493 -14.236,-4.747 0,0 4.317,11.259 14.236,4.747"
           style="fill:#02192b;fill-opacity:1;fill-rule:nonzero;stroke:none"
           id="path720" />
      </g>
      <g
         id="g722"
         transform="translate(473.5894,317.9012)">
        <path
           d="m 0,0 c 0,0 -8.018,-9.493 -14.236,-4.747 0,0 4.317,11.259 14.236,4.747 z"
           style="fill:none;stroke:#02192b;stroke-width:0.401;stroke-linecap:butt;stroke-linejoin:miter;stroke-miterlimit:10;stroke-dasharray:none;stroke-opacity:1"
           id="path724" />
      </g>
      <g
         id="g726"
         transform="translate(471.7398,317.5887)">
        <path
           d="m 0,0 c -1.769,-1.712 -3.624,-3.32 -5.62,-4.765 -0.814,-0.589 -1.751,-1.377 -2.741,-1.631 -0.887,-0.229 -1.975,0.13 -2.213,1.046 -0.177,0.684 0.192,1.849 0.318,2.525 0.141,0.757 -1.017,1.081 -1.159,0.32 -0.431,-2.316 -1.007,-6.005 2.516,-5.341 3.597,0.678 7.24,4.567 9.749,6.996 C 1.406,-0.311 0.556,0.539 0,0"
           style="fill:#02192b;fill-opacity:1;fill-rule:nonzero;stroke:none"
           id="path728" />
      </g>
      <g
         id="g730"
         transform="translate(466.6089,309.9257)">
        <path
           d="M 0,0 C 0.941,-0.551 1.258,-1.761 0.706,-2.702 0.154,-3.644 -1.056,-3.959 -1.996,-3.407 -2.938,-2.856 -3.253,-1.646 -2.702,-0.705 -2.15,0.236 -0.94,0.552 0,0"
           style="fill:#f08884;fill-opacity:1;fill-rule:nonzero;stroke:none"
           id="path732" />
      </g>
      <g
         id="g734"
         transform="translate(472.6812,306.0585)">
        <path
           d="m 0,0 -4.226,0.983 c 0,0 0.584,-2.275 1.857,-2.346 C -1.097,-1.434 0,0 0,0"
           style="fill:#ffffff;fill-opacity:1;fill-rule:nonzero;stroke:none"
           id="path736" />
      </g>
      <g
         id="g738"
         transform="translate(471.6089,309.1542)">
        <path
           d="m 0,0 -0.723,-2.079 1.134,-0.155 c 0.209,-0.03 0.372,0.176 0.297,0.374 z"
           style="fill:#cd5671;fill-opacity:1;fill-rule:nonzero;stroke:none"
           id="path740" />
      </g>
      <g
         id="g742"
         transform="translate(469.0425,312.8192)">
        <path
           d="M 0,0 C -0.443,-0.187 0.411,0.892 0.969,0.918 1.525,0.943 1.995,0.574 2.018,0.093 2.018,0.093 1.066,0.447 0,0"
           style="fill:#02192b;fill-opacity:1;fill-rule:nonzero;stroke:none"
           id="path744" />
      </g>
      <g
         id="g746"
         transform="translate(474.7027,312.4227)">
        <path
           d="m 0,0 c -0.506,0.235 -1.114,0.073 -1.317,-0.363 0,0 0.664,-0.021 1.349,-0.462"
           style="fill:#02192b;fill-opacity:1;fill-rule:nonzero;stroke:none"
           id="path748" />
      </g>
      <g
         id="g750"
         transform="translate(469.8433,309.8602)">
        <path
           d="M 0,0 C -0.065,-0.383 0.032,-0.718 0.218,-0.75 0.403,-0.781 0.606,-0.497 0.672,-0.114 0.736,0.269 0.639,0.604 0.453,0.636 0.269,0.667 0.064,0.383 0,0"
           style="fill:#02192b;fill-opacity:1;fill-rule:nonzero;stroke:none"
           id="path752" />
      </g>
      <g
         id="g754"
         transform="translate(472.4781,309.4061)">
        <path
           d="M 0,0 C -0.062,-0.365 0.031,-0.687 0.208,-0.717 0.386,-0.747 0.58,-0.476 0.642,-0.109 0.704,0.256 0.611,0.576 0.434,0.606 0.257,0.637 0.062,0.365 0,0"
           style="fill:#02192b;fill-opacity:1;fill-rule:nonzero;stroke:none"
           id="path756" />
      </g>
      <g
         id="g758"
         transform="translate(456.6626,311.3094)">
        <path
           d="M 0,0 C 0,0 1.109,2.536 2.518,-0.861"
           style="fill:#cf4c48;fill-opacity:1;fill-rule:nonzero;stroke:none"
           id="path760" />
      </g>
      <g
         id="g762"
         transform="translate(458.023,308.7997)">
        <path
           d="M 0,0 C 0,0 -4.883,-3.743 -0.357,-7.896 -0.154,-8.083 0.162,-8.072 0.354,-7.874 1.327,-6.87 3.724,-3.724 0,0"
           style="fill:#ffffff;fill-opacity:1;fill-rule:nonzero;stroke:none"
           id="path764" />
      </g>
      <g
         id="g766"
         transform="translate(455.5777,309.1864)">
        <path
           d="M 0,0 2.434,-3.49 4.72,0.148 Z"
           style="fill:#ff578c;fill-opacity:1;fill-rule:nonzero;stroke:none"
           id="path768" />
      </g>
      <g
         id="g770"
         transform="translate(467.4712,301.2606)">
        <path
           d="M 0,0 C 0,0 -0.708,0.007 -2.266,0.377 -2.634,0.465 -3.321,0.704 -3.954,1.043 -4.312,1.234 -4.681,0.809 -4.442,0.48 c 0,0 3.585,-5.67 4.253,-4.445 C 0.319,-3.033 -0.685,-0.815 0,0"
           style="fill:#02192b;fill-opacity:1;fill-rule:nonzero;stroke:none"
           id="path772" />
      </g>
      <g
         id="g774"
         transform="translate(459.356,119.4891)">
        <path
           d="m 0,0 -3.512,-12.824 c 0,0 2.108,-7.696 4.066,-4.717 1.957,2.979 3.894,4.554 3.894,4.554 L 8.573,0.151 Z"
           style="fill:#ffb5ad;fill-opacity:1;fill-rule:nonzero;stroke:none"
           id="path776" />
      </g>
      <g
         id="g778"
         transform="translate(464.731,106.5575)">
        <path
           d="m 0,0 11.895,-6.786 c 0.532,-0.304 0.245,-0.939 -0.426,-0.935 -5.492,0.031 -20.288,0.182 -24.179,0.232 -0.472,0.007 -0.797,0.349 -0.648,0.682 0.823,1.845 3.623,8.826 3.941,8.874 0,0 2.777,-4.494 4.398,-4.042 1.395,0.39 3.479,1.552 3.899,1.947 C -0.836,0.237 -0.312,0.247 0,0"
           style="fill:#2d4a73;fill-opacity:1;fill-rule:nonzero;stroke:none"
           id="path780" />
      </g>
      <g
         id="g782"
         transform="translate(467.1363,105.7811)">
        <path
           d="M 0,0 -2.02,-1.848"
           style="fill:#b3009c;fill-opacity:1;fill-rule:nonzero;stroke:#ffffff;stroke-width:0.582;stroke-linecap:round;stroke-linejoin:miter;stroke-miterlimit:10;stroke-dasharray:none;stroke-opacity:1"
           id="path784" />
      </g>
      <g
         id="g786"
         transform="translate(468.4712,104.7128)">
        <path
           d="M 0,0 -2.021,-1.848"
           style="fill:#b3009c;fill-opacity:1;fill-rule:nonzero;stroke:#ffffff;stroke-width:0.582;stroke-linecap:round;stroke-linejoin:miter;stroke-miterlimit:10;stroke-dasharray:none;stroke-opacity:1"
           id="path788" />
      </g>
      <g
         id="g790"
         transform="translate(408.6431,127.3417)">
        <path
           d="m 0,0 -4.84,-11.921 c 0,0 -1.574,-7.821 1.513,-6.04 3.087,1.781 5.525,2.316 5.525,2.316 L 9.006,-4.36 Z"
           style="fill:#ffb5ad;fill-opacity:1;fill-rule:nonzero;stroke:none"
           id="path792" />
      </g>
      <g
         id="g794"
         transform="translate(411.6949,111.3309)">
        <path
           d="m 0,0 7.575,-11.408 c 0.339,-0.511 -0.202,-0.948 -0.8,-0.644 -4.892,2.495 -18.042,9.281 -21.496,11.073 -0.418,0.218 -0.554,0.67 -0.271,0.902 1.564,1.277 7.202,6.255 7.509,6.156 0,0 0.461,-5.264 2.112,-5.588 C -3.95,0.213 -1.566,0.314 -1.014,0.478 -0.641,0.588 -0.168,0.36 0,0"
           style="fill:#2d4a73;fill-opacity:1;fill-rule:nonzero;stroke:none"
           id="path796" />
      </g>
      <g
         id="g798"
         transform="translate(413.4947,109.5565)">
        <path
           d="M 0,0 -2.635,-0.743"
           style="fill:#b3009c;fill-opacity:1;fill-rule:nonzero;stroke:#ffffff;stroke-width:0.582;stroke-linecap:round;stroke-linejoin:miter;stroke-miterlimit:10;stroke-dasharray:none;stroke-opacity:1"
           id="path800" />
      </g>
      <g
         id="g802"
         transform="translate(414.2066,108.0018)">
        <path
           d="M 0,0 -2.635,-0.742"
           style="fill:#b3009c;fill-opacity:1;fill-rule:nonzero;stroke:#ffffff;stroke-width:0.582;stroke-linecap:round;stroke-linejoin:miter;stroke-miterlimit:10;stroke-dasharray:none;stroke-opacity:1"
           id="path804" />
      </g>
      <g
         id="g806">
        <g
           id="g808" />
        <g
           id="g820">
          <g
             clip-path="url(#clipPath812)"
             opacity="0.5"
             id="g818">
            <g
               transform="translate(427.0747,122.7938)"
               id="g816">
              <path
                 d="M 0,0 -21.357,13.489"
                 style="fill:none;stroke:#ffffff;stroke-width:0.43;stroke-linecap:butt;stroke-linejoin:miter;stroke-miterlimit:10;stroke-dasharray:none;stroke-opacity:1"
                 id="path814" />
            </g>
          </g>
        </g>
      </g>
      <g
         id="g822">
        <g
           id="g824" />
        <g
           id="g836">
          <g
             clip-path="url(#clipPath828)"
             opacity="0.5"
             id="g834">
            <g
               transform="translate(474.1284,123.8182)"
               id="g832">
              <path
                 d="M 0,0 -26.819,0.1"
                 style="fill:none;stroke:#ffffff;stroke-width:0.43;stroke-linecap:butt;stroke-linejoin:miter;stroke-miterlimit:10;stroke-dasharray:none;stroke-opacity:1"
                 id="path830" />
            </g>
          </g>
        </g>
      </g>
      <g
         id="g838"
         transform="translate(446.9341,253.3778)">
        <path
           d="m 0,0 c -3.6,-7.645 -5.043,-10.453 -7.293,-19.719 -2.608,-10.745 -5.544,-33.528 -8.171,-45.83 -3.267,-15.301 -18.16,-50.351 -26.315,-65.035 0.606,-0.91 4.768,-4.037 8.712,-6.464 12.386,15.272 31.364,46.889 37.657,65.769 4.656,13.966 5.372,22.203 6.967,30.278 0.328,1.662 2.581,1.728 2.728,0.04 0.575,-6.569 -0.106,-15.221 -0.983,-32.855 -1.006,-20.24 -5.797,-54.064 -5.059,-66.885 2.108,0 8.489,-0.28 11.523,-0.28 4.546,22.215 14.233,62.661 14.894,69.413 2.574,26.304 6.479,45.288 -9.531,70.839 C 15.445,-0.96 7.974,-0.155 0,0"
           style="fill:#2d4a73;fill-opacity:1;fill-rule:nonzero;stroke:none"
           id="path840" />
      </g>
      <g
         id="g842">
        <g
           id="g844" />
        <g
           id="g856">
          <g
             clip-path="url(#clipPath848)"
             id="g854">
            <g
               transform="translate(447.8706,253.3778)"
               id="g852">
              <path
                 d="m 0,0 32.127,-18.578 c 0,0 -2.527,8.999 -8.746,19.16 z"
                 style="fill:#2d4a73;fill-opacity:1;fill-rule:nonzero;stroke:none"
                 id="path850" />
            </g>
          </g>
        </g>
      </g>
      <g
         id="g858"
         transform="translate(468.6685,290.4354)">
        <path
           d="M 0,0 C -0.039,-0.063 2.703,-2.618 2.859,-3.133 3.866,-6.436 5.979,-9.242 6.982,-16.081 8.499,-26.423 6.169,-31.799 2.646,-36.947 l -24.118,-0.272 c 0,0 -5.026,32.077 -1.601,38.357 0,0 10.923,2.01 12.831,1.835 0,0 10.252,-8.079 10.242,-2.973"
           style="fill:#ffffff;fill-opacity:1;fill-rule:nonzero;stroke:none"
           id="path860" />
      </g>
      <g
         id="g862"
         transform="translate(467.9644,262.6044)">
        <path
           d="M 0,0 6.268,-53.608 20.12,-55.455 8.853,1.265 c 0,0 0.654,3.066 0,8.571 C 7.166,24.028 2.67,26.698 2.389,26.979 2.107,27.26 0,0 0,0"
           style="fill:#ff6b99;fill-opacity:1;fill-rule:nonzero;stroke:none"
           id="path864" />
      </g>
      <g
         id="g866"
         transform="translate(468.3863,293.3768)">
        <path
           d="m 0,0 -0.422,-30.772 4.637,21.499 -2.248,1.686 2.107,1.826 z"
           style="fill:#f995b4;fill-opacity:1;fill-rule:nonzero;stroke:none"
           id="path868" />
      </g>
      <g
         id="g870"
         transform="translate(465.7163,262.6044)">
        <path
           d="m 0,0 c -0.141,0.281 -0.72,-53.608 -0.72,-53.608 0,0 -24.656,-2.448 -31.401,7.388 0,0 9.357,36.384 11.044,39.757 1.686,3.372 -0.843,23.044 -0.843,23.044 l 9.977,14.052 z"
           style="fill:#ff6b99;fill-opacity:1;fill-rule:nonzero;stroke:none"
           id="path872" />
      </g>
      <g
         id="g874"
         transform="translate(458.5503,296.7499)">
        <path
           d="m 0,0 c 0,0 4.074,-16.862 7.025,-34.285 l -10.96,19.672 2.248,2.248 -4.496,8.712 z"
           style="fill:#f995b4;fill-opacity:1;fill-rule:nonzero;stroke:none"
           id="path876" />
      </g>
      <g
         id="g878"
         transform="translate(361.5591,203.7157)">
        <path
           d="M 0,0 48.117,-36.922 73.61,-3.697 25.493,33.224 Z"
           style="fill:#8ebff4;fill-opacity:1;fill-rule:nonzero;stroke:none"
           id="path880" />
      </g>
      <g
         id="g882"
         transform="translate(361.5591,203.7157)">
        <path
           d="m 0,0 48.117,-36.922 8.49,11.065 -48.118,36.92 z"
           style="fill:#7aa4d1;fill-opacity:1;fill-rule:nonzero;stroke:none"
           id="path884" />
      </g>
      <g
         id="g886"
         transform="translate(398.8218,210.6708)">
        <path
           d="m 0,0 6.782,-5.204 c 2.854,-2.191 6.943,-1.652 9.133,1.202 l 5.204,6.782 c 2.19,2.855 1.652,6.944 -1.202,9.133 l -6.783,5.204 C 10.28,19.308 6.191,18.769 4.001,15.915 L -1.203,9.133 C -3.393,6.278 -2.854,2.189 0,0 Z"
           style="fill:none;stroke:#8ebff4;stroke-width:4.071;stroke-linecap:butt;stroke-linejoin:miter;stroke-miterlimit:10;stroke-dasharray:none;stroke-opacity:1"
           id="path888" />
      </g>
      <g
         id="g890"
         transform="translate(377.104,205.4393)">
        <path
           d="M 0,0 1.858,-1.427 C 2.215,-1.7 2.727,-1.633 3,-1.276 L 5.525,2.015 C 5.799,2.371 5.731,2.883 5.375,3.156 L 3.517,4.582 C 3.159,4.856 2.648,4.789 2.375,4.432 L -0.15,1.142 C -0.424,0.784 -0.357,0.273 0,0"
           style="fill:#ffffff;fill-opacity:1;fill-rule:nonzero;stroke:none"
           id="path892" />
      </g>
      <g
         id="g894"
         transform="translate(403.7408,185.0009)">
        <path
           d="M 0,0 1.858,-1.427 C 2.215,-1.7 2.727,-1.633 3,-1.276 L 5.525,2.015 C 5.799,2.371 5.731,2.883 5.375,3.156 L 3.517,4.582 C 3.159,4.855 2.648,4.789 2.374,4.432 L -0.15,1.142 C -0.424,0.784 -0.357,0.273 0,0"
           style="fill:#ffffff;fill-opacity:1;fill-rule:nonzero;stroke:none"
           id="path896" />
      </g>
      <g
         id="g898"
         transform="translate(407.8716,227.9921)">
        <path
           d="m 0,0 c 2.564,4.317 30.763,53.479 30.763,53.479 l 8.068,-9.041 C 37.071,37.706 12.857,-0.027 11.944,-0.891 c 0,0 -0.174,-4.942 -0.341,-4.707 C 11.436,-5.362 8.51,-2.26 8.274,-2.427 8.04,-2.594 3.771,-8.276 3.035,-7.738 2.3,-7.2 4.754,-3.69 4.387,-3.422 4.019,-3.152 2.1,-7.166 1.33,-6.829 0.561,-6.492 2.681,-2.513 2.279,-2.444 1.878,-2.376 0.394,-6.258 -0.175,-5.955 -0.743,-5.651 1.176,-1.638 1.01,-1.403 0.843,-1.168 -0.642,-5.049 -1.445,-4.913 -2.048,-4.811 -0.654,-1.101 0,0"
           style="fill:#ffb5ad;fill-opacity:1;fill-rule:nonzero;stroke:none"
           id="path900" />
      </g>
      <g
         id="g902"
         transform="translate(427.2671,238.7645)">
        <path
           d="M 0,0 10.35,37.919 16.046,26.416 Z"
           style="fill:#ff9385;fill-opacity:1;fill-rule:nonzero;stroke:none"
           id="path904" />
      </g>
      <g
         id="g906"
         transform="translate(452.3677,293.0966)">
        <path
           d="m 0,0 c -0.892,0.99 -7.447,0.421 -11.101,-3.935 -3.653,-4.356 -25.854,-47.212 -25.854,-47.212 l 11.101,-6.324 c 0,0 26.108,38.365 27.961,44.262 C 3.653,-8.291 2.529,-2.811 0,0"
           style="fill:#ff6b99;fill-opacity:1;fill-rule:nonzero;stroke:none"
           id="path908" />
      </g>
      <g
         id="g910"
         transform="translate(411.8365,239.1493)">
        <path
           d="m 0,0 11.448,-6.61 c 0.532,-0.307 1.213,-0.125 1.521,0.408 0.307,0.532 0.125,1.213 -0.407,1.52 L 1.113,1.928 C 0.581,2.235 -0.101,2.053 -0.407,1.521 -0.715,0.988 -0.532,0.307 0,0"
           style="fill:#ff578c;fill-opacity:1;fill-rule:nonzero;stroke:none"
           id="path912" />
      </g>
      <g
         id="g914"
         transform="translate(499.8335,292.3827)">
        <path
           d="m 0,0 c 2.241,8.693 4.842,18.926 4.979,26.05 0.117,6.043 0.874,15.274 0.289,16.984 -0.167,0.488 -5.229,-3.932 -5.889,-7.451 -0.56,-2.982 -0.449,-7.687 -0.449,-7.687 0,0 -6.706,-16.989 -9.431,-21.999 -1.798,-3.305 -4.907,-6.838 -10.206,-9.063 -5.298,-2.226 0.747,-0.423 0.747,-0.423 l 6.365,-10.693 c 0,0 10.807,3.466 13.595,14.282"
           style="fill:#ffb5ad;fill-opacity:1;fill-rule:nonzero;stroke:none"
           id="path916" />
      </g>
      <g
         id="g918"
         transform="translate(500.1753,294.2714)">
        <path
           d="m 0,0 c -2.033,-14.498 -15.696,-17.336 -15.696,-17.336 l -1.627,3.435 c 0,0 6.884,0.14 17.323,13.901"
           style="fill:#ff9385;fill-opacity:1;fill-rule:nonzero;stroke:none"
           id="path920" />
      </g>
      <g
         id="g922"
         transform="translate(472.0396,288.5995)">
        <path
           d="m 0,0 c 0,0 8.992,0.281 14.332,7.307 5.34,7.026 9.695,20.093 9.695,20.093 l 9.555,-3.231 c 0,0 -1.265,-40.328 -29.788,-39.625 z"
           style="fill:#ff578c;fill-opacity:1;fill-rule:nonzero;stroke:none"
           id="path924" />
      </g>
      <g
         id="g926"
         transform="translate(510.9585,354.3602)">
        <path
           d="m 0,0 v -5.901 c 0,-1.632 2.535,-1.635 2.535,0 V 0 C 2.535,1.631 0,1.634 0,0"
           style="fill:#ff6b99;fill-opacity:1;fill-rule:nonzero;stroke:none"
           id="path928" />
      </g>
      <g
         id="g930"
         transform="translate(523.1129,349.6561)">
        <path
           d="m 0,0 c -1.503,-1.495 -3.006,-2.989 -4.509,-4.483 -1.159,-1.153 0.634,-2.946 1.792,-1.793 1.504,1.494 3.007,2.989 4.51,4.483 C 2.952,-0.642 1.159,1.151 0,0"
           style="fill:#ff6b99;fill-opacity:1;fill-rule:nonzero;stroke:none"
           id="path932" />
      </g>
      <g
         id="g934"
         transform="translate(504.9751,345.704)">
        <path
           d="M 0,0 C -1.773,1.506 -3.548,3.013 -5.321,4.519 -6.559,5.568 -8.36,3.783 -7.114,2.726 -5.34,1.22 -3.566,-0.286 -1.793,-1.792 -0.556,-2.843 1.246,-1.058 0,0"
           style="fill:#ff6b99;fill-opacity:1;fill-rule:nonzero;stroke:none"
           id="path936" />
      </g>
      <g
         id="g938"
         transform="translate(610.5201,312.9823)">
        <path
           d="m 0,0 c -0.343,1.592 2.228,5.7 3.567,6.633 3.667,2.554 8.409,3.293 12.848,2.772 0,0 18.769,-11.603 -3.089,-23.609 -21.857,-12.007 0,0 0,0"
           style="fill:#00152b;fill-opacity:1;fill-rule:nonzero;stroke:none"
           id="path940" />
      </g>
      <g
         id="g942"
         transform="translate(636.7759,291.6971)">
        <path
           d="m 0,0 c 0,0 8.004,36.019 -2.154,34.787 -10.159,-1.231 -7.081,-6.772 -7.081,-6.772 l 4.002,-0.924 3.694,-28.63 z"
           style="fill:#00152b;fill-opacity:1;fill-rule:nonzero;stroke:none"
           id="path944" />
      </g>
      <g
         id="g946"
         transform="translate(626.4293,309.0057)">
        <path
           d="M 0,0 C 0.013,-0.215 0.198,-0.377 0.412,-0.357 1.309,-0.274 3.359,0.1 3.858,-2.219 4.363,-4.562 2.223,-6.095 0.871,-6.289 0.48,-6.346 -0.418,-6.506 -0.658,-6.818 c -0.738,-0.961 -0.95,-2.937 -1.365,-5.413 -0.917,-5.47 3.499,-7.541 3.499,-7.541 0,0 -13.398,-8.124 -13.877,-1.209 0,0 -0.015,12.796 -0.086,12.856 -1.19,0.996 -5.478,1.091 -3.608,10.379 1.733,8.603 7.938,8.551 9.527,8.411 C -5.229,10.548 -0.622,10.665 0,0"
           style="fill:#f19d9b;fill-opacity:1;fill-rule:nonzero;stroke:none"
           id="path948" />
      </g>
      <g
         id="g950"
         transform="translate(615.4595,320.1132)">
        <path
           d="M 0,0 C 0,0 9.6,-10.606 11.181,-11.417 11.181,-11.417 15.816,2.972 0,0"
           style="fill:#00152b;fill-opacity:1;fill-rule:nonzero;stroke:none"
           id="path952" />
      </g>
      <g
         id="g954"
         transform="translate(629.3297,306.0175)">
        <path
           d="M 0,0 C 0,0 -1.671,2.847 -3.106,-1.292"
           style="fill:#ec5f5c;fill-opacity:1;fill-rule:nonzero;stroke:none"
           id="path956" />
      </g>
      <g
         id="g958"
         transform="translate(618.6441,308.3075)">
        <path
           d="m 0,0 c -1.164,-0.076 -2.046,-1.082 -1.97,-2.247 0.076,-1.164 1.082,-2.046 2.246,-1.97 1.165,0.077 2.047,1.083 1.971,2.247 C 2.17,-0.806 1.164,0.076 0,0"
           style="fill:#f7827e;fill-opacity:1;fill-rule:nonzero;stroke:none"
           id="path960" />
      </g>
      <g
         id="g962"
         transform="translate(609.9459,306.7479)">
        <path
           d="M 0,0 C 0.947,0.26 1.614,1.157 1.547,2.176 1.496,2.961 1.021,3.618 0.361,3.938 0.361,3.938 -0.332,1.531 0,0"
           style="fill:#f7827e;fill-opacity:1;fill-rule:nonzero;stroke:none"
           id="path964" />
      </g>
      <g
         id="g966"
         transform="translate(611.6207,307.9882)">
        <path
           d="m 0,0 3.349,-1.314 c 0,0 -1.469,-1.281 -2.371,-0.731 C 0.074,-1.495 0,0 0,0"
           style="fill:#ffffff;fill-opacity:1;fill-rule:nonzero;stroke:none"
           id="path968" />
      </g>
      <g
         id="g970"
         transform="translate(613.8707,310.535)">
        <path
           d="m 0,0 -0.305,-2.335 -1.158,0.394 c -0.214,0.073 -0.271,0.347 -0.105,0.501 z"
           style="fill:#ec5f5c;fill-opacity:1;fill-rule:nonzero;stroke:none"
           id="path972" />
      </g>
      <g
         id="g974"
         transform="translate(617.9117,311.7577)">
        <path
           d="M 0,0 C 0.312,-0.365 0.031,0.979 -0.453,1.25 -0.938,1.521 -1.521,1.402 -1.757,0.983 -1.757,0.983 -0.751,0.875 0,0"
           style="fill:#000000;fill-opacity:1;fill-rule:nonzero;stroke:none"
           id="path976" />
      </g>
      <g
         id="g978"
         transform="translate(611.6588,313.5126)">
        <path
           d="M 0,0 C -0.449,-0.17 0.441,0.874 0.997,0.88 1.553,0.886 2.008,0.502 2.013,0.021 2.013,0.021 1.078,0.408 0,0"
           style="fill:#000000;fill-opacity:1;fill-rule:nonzero;stroke:none"
           id="path980" />
      </g>
      <g
         id="g982"
         transform="translate(616.2095,309.9091)">
        <path
           d="m 0,0 c -0.12,-0.396 -0.375,-0.671 -0.567,-0.612 -0.193,0.058 -0.25,0.427 -0.13,0.825 0.121,0.396 0.376,0.671 0.568,0.612 C 0.063,0.767 0.121,0.397 0,0"
           style="fill:#000000;fill-opacity:1;fill-rule:nonzero;stroke:none"
           id="path984" />
      </g>
      <g
         id="g986"
         transform="translate(613.1138,311.0614)">
        <path
           d="m 0,0 c -0.116,-0.379 -0.358,-0.641 -0.542,-0.585 -0.185,0.056 -0.24,0.409 -0.124,0.788 0.115,0.379 0.357,0.642 0.542,0.585 C 0.06,0.732 0.115,0.38 0,0"
           style="fill:#000000;fill-opacity:1;fill-rule:nonzero;stroke:none"
           id="path988" />
      </g>
      <g
         id="g990"
         transform="translate(613.942,300.8807)">
        <path
           d="M 0,0 C 0,0 4.066,-0.411 6.073,-0.103 8.081,0.206 -1.001,-12.293 0,0"
           style="fill:#000000;fill-opacity:1;fill-rule:nonzero;stroke:none"
           id="path992" />
      </g>
      <g
         id="g994"
         transform="translate(684.9498,97.6991)">
        <path
           d="m 0,0 c 0,1.332 -18.766,2.411 -41.914,2.411 -23.149,0 -41.914,-1.079 -41.914,-2.411 0,-1.332 18.765,-2.411 41.914,-2.411 C -18.766,-2.411 0,-1.332 0,0"
           style="fill:#7ba5c9;fill-opacity:1;fill-rule:nonzero;stroke:none"
           id="path996" />
      </g>
      <g
         id="g998"
         transform="translate(616.9166,115.5409)">
        <path
           d="m 0,0 -1.46,-10.369 c 0,0 -2.342,-6.877 -4.517,-4.215 -2.174,2.662 -4.327,4.069 -4.327,4.069 l -0.714,10.781 z"
           style="fill:#f19b9b;fill-opacity:1;fill-rule:nonzero;stroke:none"
           id="path1000" />
      </g>
      <g
         id="g1002"
         transform="translate(611.2252,115.1532)">
        <path
           d="m 0,0 -0.376,-14.104 c 0,0 6.882,-1.033 4.325,3.573 l 1.504,9.778 z"
           style="fill:#f7827e;fill-opacity:1;fill-rule:nonzero;stroke:none"
           id="path1004" />
      </g>
      <g
         id="g1006"
         transform="translate(651.5738,116.3378)">
        <path
           d="m 0,0 3.227,-10.344 c 0,0 2.455,-2.153 3.341,-2.097 1.613,0.1 2.458,2.882 2.458,2.882 L 9.292,0 Z"
           style="fill:#f19b9b;fill-opacity:1;fill-rule:nonzero;stroke:none"
           id="path1008" />
      </g>
      <g
         id="g1010"
         transform="translate(656.2222,119.1014)">
        <path
           d="m 0,0 2.257,-17.111 c 0,0 4.625,-1.222 2.068,3.384 l 0.564,13.164 z"
           style="fill:#f7827e;fill-opacity:1;fill-rule:nonzero;stroke:none"
           id="path1012" />
      </g>
      <g
         id="g1014"
         transform="translate(605.8961,105.08)">
        <path
           d="m 0,0 -8.685,-7.039 c -0.444,-0.33 -0.127,-0.886 0.508,-0.891 l 12.82,-0.104 c 0.308,-0.002 0.586,0.138 0.688,0.349 l 0.967,1.983 c 0.279,0.572 0.836,0.618 0.784,0.012 l 0.474,-1.914 c -0.026,-0.301 3.04,-0.219 3.066,0.055 0.169,1.702 -0.185,7.267 -0.491,8.817 C 10.087,1.489 9.859,1.667 9.557,1.711 H 9.555 C 9.283,1.751 9.005,1.675 8.839,1.514 7.974,0.677 5.207,-1.842 3.732,-1.332 2.744,-0.99 1.464,-0.379 1.064,-0.026 0.795,0.212 0.296,0.22 0,0"
           style="fill:#ff64a5;fill-opacity:1;fill-rule:nonzero;stroke:none"
           id="path1016" />
      </g>
      <g
         id="g1018"
         transform="translate(660.7203,107.1376)">
        <path
           d="m 0,0 4.931,-8.26 c 0.526,-0.803 0.233,-1.761 -0.718,-2.328 -1.542,-0.917 -2.802,-2.748 -3.773,-2.775 -1.752,-0.048 -4.477,1.798 -6.066,2.49 -1.065,0.465 -1.9,1.145 -1.769,2.037 l 1.226,8.285 c 0.016,0.103 0.196,0.14 0.285,0.059 l 1.889,-1.711 c 0.618,-0.561 2.297,-0.485 2.714,0.185 0.298,0.48 0.995,2.025 0.995,2.025 C -0.223,0.089 -0.056,0.085 0,0"
           style="fill:#ff64a5;fill-opacity:1;fill-rule:nonzero;stroke:none"
           id="path1020" />
      </g>
      <g
         id="g1022"
         transform="translate(634.565,252.5927)">
        <path
           d="m 0,0 c 3.981,-7.038 6.086,-12.193 8.373,-21.143 2.653,-10.377 31.367,-98.158 32.618,-117.034 -3.27,-0.788 -24.987,-0.673 -27.053,-0.558 -6.575,18.839 -23.207,80.022 -26.025,91.89 -0.434,1.824 -3.252,1.424 -3.032,-0.438 1.599,-13.553 10.22,-70.638 14.516,-91.487 -1.715,-0.872 -26.614,-0.678 -28.594,-0.429 -2.155,23.245 -13.587,111.246 3.672,139.771 C -17.633,1.66 -8.002,0.238 0,0"
           style="fill:#285073;fill-opacity:1;fill-rule:nonzero;stroke:none"
           id="path1024" />
      </g>
      <g
         id="g1026"
         transform="translate(610.0699,250.0741)">
        <path
           d="m 0,0 c 0,0 -7.029,-17.396 -7.029,-41.948 0,-24.553 8.048,-86.753 8.048,-86.753"
           style="fill:none;stroke:#ffffff;stroke-width:0.308;stroke-linecap:butt;stroke-linejoin:miter;stroke-miterlimit:10;stroke-dasharray:none;stroke-opacity:1"
           id="path1028" />
      </g>
      <g
         id="g1030"
         transform="translate(658.7486,121.3729)">
        <path
           d="M 0,0 -28.075,129.503"
           style="fill:none;stroke:#ffffff;stroke-width:0.308;stroke-linecap:butt;stroke-linejoin:miter;stroke-miterlimit:10;stroke-dasharray:none;stroke-opacity:1"
           id="path1032" />
      </g>
      <g
         id="g1034"
         transform="translate(625.7515,250.1884)">
        <path
           d="M 0,0 C 0,0 0.239,-22.489 10.333,-20.716"
           style="fill:none;stroke:#ffffff;stroke-width:0.308;stroke-linecap:butt;stroke-linejoin:miter;stroke-miterlimit:10;stroke-dasharray:none;stroke-opacity:1"
           id="path1036" />
      </g>
      <g
         id="g1038">
        <g
           id="g1040" />
        <g
           id="g1052">
          <g
             clip-path="url(#clipPath1044)"
             opacity="0.210007"
             id="g1050">
            <g
               transform="translate(609.1548,249.6161)"
               id="g1048">
              <path
                 d="m 0,0 32.492,-24.467 c 0,0 1.357,13.204 -4.416,24.041 z"
                 style="fill:#000000;fill-opacity:1;fill-rule:nonzero;stroke:none"
                 id="path1046" />
            </g>
          </g>
        </g>
      </g>
      <g
         id="g1054"
         transform="translate(604.8052,228.4413)">
        <path
           d="M 0,0 C 10.094,-1.773 8.47,20.603 8.47,20.603"
           style="fill:none;stroke:#ffffff;stroke-width:0.308;stroke-linecap:butt;stroke-linejoin:miter;stroke-miterlimit:10;stroke-dasharray:none;stroke-opacity:1"
           id="path1056" />
      </g>
      <g
         id="g1058"
         transform="translate(632.4547,121.2411)">
        <path
           d="M 0,0 -28.05,-0.005"
           style="fill:none;stroke:#ffffff;stroke-width:0.308;stroke-linecap:butt;stroke-linejoin:miter;stroke-miterlimit:10;stroke-dasharray:none;stroke-opacity:1"
           id="path1060" />
      </g>
      <g
         id="g1062"
         transform="translate(674.6519,121.4833)">
        <path
           d="M 0,0 -28.981,-0.247"
           style="fill:none;stroke:#ffffff;stroke-width:0.308;stroke-linecap:butt;stroke-linejoin:miter;stroke-miterlimit:10;stroke-dasharray:none;stroke-opacity:1"
           id="path1064" />
      </g>
      <g
         id="g1066"
         transform="translate(644.2252,210.4052)">
        <path
           d="M 0,0 C 0,0.173 0.172,2.009 0.172,2.009 L -0.66,-0.631 Z"
           style="fill:#d14341;fill-opacity:1;fill-rule:nonzero;stroke:none"
           id="path1068" />
      </g>
      <g
         id="g1070"
         transform="translate(639.0162,207.7938)">
        <path
           d="m 0,0 -0.581,-0.452 c 0,0 0.602,-1.098 0.861,-1.012 0,0 -0.43,0.517 -0.28,1.464"
           style="fill:#d14341;fill-opacity:1;fill-rule:nonzero;stroke:none"
           id="path1072" />
      </g>
      <g
         id="g1074"
         transform="translate(616.2623,263.7469)">
        <path
           d="m 0,0 c 0.771,1.564 1.587,3.285 2.45,5.181 l -7.721,6.386 c 0.141,1.945 0.22,3.638 0.179,4.676 -0.026,0.659 -0.449,1.309 -0.545,1.258 -1.749,-0.932 -7.369,-18.171 -8.478,-20.683 -0.346,-0.783 -1.483,-0.679 -2.117,-0.149 L -35.07,13.17 c -0.483,0.495 -5.072,2.784 -9.844,8.374 -1.498,-2.664 1.313,-7.871 2.777,-10.062 0,0 19.837,-27.636 29.145,-28.881 0,0 10.394,2.933 12.32,16.054 C 0.139,-1.571 0.682,-1.717 0.682,-1.717 2.139,0.063 1.434,0.315 0,0"
           style="fill:#f19d9b;fill-opacity:1;fill-rule:nonzero;stroke:none"
           id="path1076" />
      </g>
      <g
         id="g1078"
         transform="translate(581.0943,276.8973)">
        <path
           d="M 0,0 C 0,0 -4.784,6.957 -5.611,7.204 -6.437,7.452 -3.816,2.58 -4.575,2.532 -4.575,2.532 -0.941,0.19 0,0"
           style="fill:#f19d9b;fill-opacity:1;fill-rule:nonzero;stroke:none"
           id="path1080" />
      </g>
      <g
         id="g1082"
         transform="translate(613.8414,290.0038)">
        <path
           d="m 0,0 c 0,0 -7.177,0.956 -9.283,-3.349 -2.107,-4.303 -6.778,-23.537 -6.778,-23.537 l -13.004,12.456 -5.038,-9.159 c 0,0 18.5,-23.353 23.813,-21.705 C -4.979,-43.646 0.062,-5.868 0,0"
           style="fill:#ff6192;fill-opacity:1;fill-rule:nonzero;stroke:none"
           id="path1084" />
      </g>
      <g
         id="g1086"
         transform="translate(611.0982,289.3134)">
        <path
           d="m 0,0 c 0.23,-0.558 -6.545,-16.705 -6.271,-22.17 0.275,-5.505 4.035,-14.768 3.743,-15.596 0,0 4.271,-3.369 27.835,0.341 7.244,6.338 0.88,27.879 -1.554,34.699 0,0 -4.638,2.322 -6.635,2.468 0,0 -7.824,-2.501 -17.118,0.258"
           style="fill:#ff6192;fill-opacity:1;fill-rule:nonzero;stroke:none"
           id="path1088" />
      </g>
      <g
         id="g1090"
         transform="translate(668.3404,214.8514)">
        <path
           d="m 0,0 -58.058,-1.118 c -1.213,-0.024 -2.215,1.023 -2.237,2.339 l -0.642,39.046 c -0.021,1.314 0.946,2.4 2.16,2.423 l 58.057,1.12 c 1.214,0.023 2.216,-1.025 2.238,-2.34 L 2.159,2.425 C 2.181,1.109 1.214,0.023 0,0"
           style="fill:#ffffff;fill-opacity:1;fill-rule:nonzero;stroke:none"
           id="path1092" />
      </g>
      <g
         id="g1094"
         transform="translate(648.3902,237.9462)">
        <path
           d="m 0,0 -10.929,-11.293 c -5.942,6.335 -5.867,16.526 0.168,22.764 6.036,6.237 15.746,6.158 21.689,-0.177 C 16.87,4.959 16.795,-5.232 10.76,-11.47 Z"
           style="fill:#b6cceb;fill-opacity:1;fill-rule:nonzero;stroke:none"
           id="path1096" />
      </g>
      <g
         id="g1098"
         transform="translate(659.3951,223.1346)">
        <path
           d="m 0,0 c -6.036,-6.237 -15.746,-6.158 -21.688,0.177 l 10.927,11.294 z"
           style="fill:#285073;fill-opacity:1;fill-rule:nonzero;stroke:none"
           id="path1100" />
      </g>
      <g
         id="g1102"
         transform="translate(622.0767,253.5292)">
        <path
           d="m 0,0 h 15.859 c 0.601,0 1.087,0.486 1.087,1.087 V 1.14 c 0,0.6 -0.486,1.087 -1.087,1.087 H 0 C -0.6,2.227 -1.086,1.74 -1.086,1.14 V 1.087 C -1.086,0.486 -0.6,0 0,0"
           style="fill:#ff6192;fill-opacity:1;fill-rule:nonzero;stroke:none"
           id="path1104" />
      </g>
      <g
         id="g1106"
         transform="translate(634.4634,216.5126)">
        <path
           d="m 0,0 h -11.521 c -0.48,0 -0.869,0.39 -0.869,0.869 v 0.043 c 0,0.481 0.389,0.869 0.869,0.869 L 0,1.781 c 0.48,0 0.869,-0.388 0.869,-0.869 V 0.869 C 0.869,0.39 0.48,0 0,0"
           style="fill:#ff6192;fill-opacity:1;fill-rule:nonzero;stroke:none"
           id="path1108" />
      </g>
      <g
         id="g1110">
        <g
           id="g1112" />
        <g
           id="g1124">
          <g
             clip-path="url(#clipPath1116)"
             opacity="0.600006"
             id="g1122">
            <g
               transform="translate(641.7808,237.9569)"
               id="g1120">
              <path
                 d="M 0,0 C 0,0 4.908,-2.278 1.115,-16.193 0.914,-16.93 0.741,-17.769 0.89,-18.518 l 0.852,-5.98 c 0.127,-0.64 0.215,-1.5 -0.329,-1.861 -0.68,-0.453 -4.555,-4.014 -5.026,-4.171 -0.957,-0.32 0.087,4.408 -0.07,6.898 -0.027,0.444 -0.133,-1.576 -0.192,-2.46 l -0.118,-1.944 c -1.158,0.53 -1.135,2.763 -1.316,3.515 -0.242,1.008 -0.045,1.654 0.073,1.898 0.528,1.102 1.537,3.292 1.693,5.258 0.093,1.157 -0.717,5.453 -1.389,13.455 z"
                 style="fill:#48838f;fill-opacity:1;fill-rule:nonzero;stroke:none"
                 id="path1118" />
            </g>
          </g>
        </g>
      </g>
      <g
         id="g1126"
         transform="translate(642.4058,271.8221)">
        <path
           d="m 0,0 c 9.1,-50.821 3.188,-60.473 2.594,-60.869 -0.746,-0.496 -4.993,-4.4 -5.51,-4.571 -1.049,-0.35 0.096,4.831 -0.076,7.56 -0.03,0.486 -0.147,-1.727 -0.211,-2.696 l -0.129,-2.131 c -1.271,0.581 -1.244,3.028 -1.442,3.853 -0.266,1.104 -0.049,1.813 0.079,2.081 0.58,1.207 1.684,3.608 1.856,5.762 0.102,1.269 -8.522,42.543 -10.038,48.608 -2.061,8.241 0.532,17.707 3.434,18.027 C -5.843,16.021 -0.754,4.209 0,0"
           style="fill:#f19d9b;fill-opacity:1;fill-rule:nonzero;stroke:none"
           id="path1128" />
      </g>
      <g
         id="g1130"
         transform="translate(648.7945,223.7362)">
        <path
           d="m 0,0 c -0.366,1.558 1.592,31.205 -5.021,50.603 -2.956,8.668 -7.21,13.504 -10.811,13.107 -2.901,-0.32 -5.494,-9.786 -3.434,-18.027 1.516,-6.065 4.703,-33.135 7.36,-46.965 z"
           style="fill:#ff6192;fill-opacity:1;fill-rule:nonzero;stroke:none"
           id="path1132" />
      </g>
      <g
         id="g1134"
         transform="translate(614.105,310.8085)">
        <path
           d="M 0,0 C -0.416,-2.265 0.454,-4.323 1.945,-4.598 3.437,-4.872 4.983,-3.259 5.399,-0.993 5.816,1.272 4.946,3.331 3.455,3.605 1.964,3.88 0.417,2.266 0,0 Z"
           style="fill:none;stroke:#1e424d;stroke-width:0.432;stroke-linecap:butt;stroke-linejoin:miter;stroke-miterlimit:10;stroke-dasharray:none;stroke-opacity:1"
           id="path1136" />
      </g>
      <g
         id="g1138"
         transform="translate(608.7496,312.4276)">
        <path
           d="M 0,0 C -0.378,-2.054 0.411,-3.919 1.763,-4.168 3.114,-4.417 4.517,-2.954 4.894,-0.9 5.271,1.152 4.482,3.019 3.131,3.268 1.779,3.516 0.378,2.053 0,0 Z"
           style="fill:none;stroke:#1e424d;stroke-width:0.432;stroke-linecap:butt;stroke-linejoin:miter;stroke-miterlimit:10;stroke-dasharray:none;stroke-opacity:1"
           id="path1140" />
      </g>
      <g
         id="g1142"
         transform="translate(613.813,310.0018)">
        <path
           d="M 0,0 -0.537,0.127"
           style="fill:none;stroke:#1e424d;stroke-width:0.432;stroke-linecap:butt;stroke-linejoin:miter;stroke-miterlimit:10;stroke-dasharray:none;stroke-opacity:1"
           id="path1144" />
      </g>
      <g
         id="g1146"
         transform="translate(619.2632,308.6542)">
        <path
           d="M 0,0 9.044,0.233"
           style="fill:none;stroke:#1e424d;stroke-width:0.432;stroke-linecap:butt;stroke-linejoin:miter;stroke-miterlimit:10;stroke-dasharray:none;stroke-opacity:1"
           id="path1148" />
      </g>
    </g>
  </g>
</svg>
