<?xml version="1.0" encoding="UTF-8" standalone="no"?>
<!-- Created with Inkscape (http://www.inkscape.org/) -->

<svg
   version="1.1"
   id="svg2450"
   width="4946.6665"
   height="4946.6665"
   viewBox="0 0 4946.6665 4946.6665"
   sodipodi:docname="cover_interview.svg"
   inkscape:version="1.2.2 (b0a8486541, 2022-12-01)"
   xmlns:inkscape="http://www.inkscape.org/namespaces/inkscape"
   xmlns:sodipodi="http://sodipodi.sourceforge.net/DTD/sodipodi-0.dtd"
   xmlns="http://www.w3.org/2000/svg"
   xmlns:svg="http://www.w3.org/2000/svg">
  <defs
     id="defs2454">
    <clipPath
       clipPathUnits="userSpaceOnUse"
       id="clipPath2470">
      <path
         d="m 18970.7,4550 c -1714.4,0 -3024,236.3 -3546.4,340.9 -1894.3,379.3 -5556.03,1112.5 -8203.4,4181.6 -4005.24,4643.4 -3381.57,11958.8 -274.83,16787.9 568.27,883.3 3570.03,5785.9 9671.13,6572.1 605.6,78.1 1228.2,117.5 1858.7,117.5 3214,0 6648.8,-1023.5 9254.5,-3175.7 429.7,-354.8 829,-733.4 1199.1,-1132.4 -140.6,42.5 -289.5,65.3 -443.6,65.3 -11.8,0 -23.6,-0.1 -35.4,-0.4 l -13035.3,-295.3 c -719.1,-16.3 -1299.4,-593.3 -1319.6,-1312.3 l -151.4,-5363.5 c -1345.2,2308.9 -1915.8,5892.5 -2097.9,7315.7 -11,85.6 -80.9,131.7 -151.1,131.7 -57.9,0 -116,-31.5 -141,-98.3 -1618.29,-4318.6 -2076.19,-7724.4 -1880.36,-10396 -1153.77,1801.9 -2136.5,3616.6 -2362.56,4917.1 -9.58,55.2 -53.31,80.9 -102.57,80.9 -62.72,0 -134.41,-41.6 -155.99,-116.7 -413.3,-1437.8 -1156.74,-5055.7 418.58,-8763.8 1446.71,-3405.3 4482.8,-5167 6110.8,-5899 l -20.6,-728.6 c -15.8,-561.2 434.9,-1024.2 995.7,-1024.2 1.5,0 3,0 4.5,0 l 12717,56.9 C 24408,4991.2 21312.2,4550 18970.7,4550 m 13666.6,12112.9 c -110.1,1985.3 -434.5,3667.6 -260.6,4541.9 291.7,-1510 371.4,-3051.3 260.6,-4541.9 m -2438.1,2147.6 -181.2,7998.2 c -0.7,31.2 -2.3,62.1 -4.8,92.7 1169.4,-1662.9 1930.7,-3568.5 2330.8,-5532.1 -22.7,15.3 -51.1,24.1 -80.3,24.1 -29.7,0 -60.1,-9.1 -85.9,-30 -496.5,-402.7 -1373.4,-1243.9 -1978.6,-2552.9"
         id="path2468" />
    </clipPath>
    <linearGradient
       x1="0"
       y1="0"
       x2="1"
       y2="0"
       gradientUnits="userSpaceOnUse"
       gradientTransform="matrix(-25056.7,31118.8,31118.8,25056.7,36210.9,-3846.5)"
       spreadMethod="pad"
       id="linearGradient2476">
      <stop
         style="stop-opacity:1;stop-color:#dae3fe"
         offset="0"
         id="stop2472" />
      <stop
         style="stop-opacity:1;stop-color:#e9effd"
         offset="1"
         id="stop2474" />
    </linearGradient>
    <clipPath
       clipPathUnits="userSpaceOnUse"
       id="clipPath2498">
      <path
         d="m 14557.2,6754.5 c -560.8,0 -1011.5,463 -995.7,1024.2 l 20.6,728.6 26.8,947.6 3.1,111.6 21.1,746.8 101.6,3599.4 6.6,236 202.9,7187 151.4,5363.5 c 20.2,719 600.5,1296 1319.6,1312.3 l 13035.3,295.3 c 11.8,0.3 23.6,0.4 35.4,0.4 154.1,0 303,-22.8 443.6,-65.3 589.1,-178.2 1031,-702.2 1083.7,-1340.5 2.5,-30.6 4.1,-61.5 4.8,-92.7 l 181.2,-7998.2 206.6,-9118 11.6,-510.4 14.4,-634.3 17.2,-759.4 c 11.9,-528.8 -412.2,-964.6 -941.1,-967 l -2229.2,-10 -12717,-56.9 c -1.5,0 -3,0 -4.5,0 m 883.1,20597.9 c -221.2,0 -405,-175.1 -411.8,-398.9 L 14449.7,7947.7 c -8,-260.6 195.8,-478.7 456.4,-488.2 1302.6,-47.5 5087.9,-173.7 8546.3,-173.7 2200.6,0 4268.5,51.1 5481.4,206 189.9,24.2 330.7,187.7 327.5,379.1 l -334.5,19941.5 c -4.1,246.7 -206.1,438.2 -444.3,438.2 -23.3,0 -46.9,-1.8 -70.7,-5.6 -1541.8,-244.8 -6351.6,-945.1 -10911.8,-945.1 -688.8,0 -1371.7,16 -2036.9,51.9 -7.6,0.4 -15.2,0.6 -22.8,0.6"
         id="path2496" />
    </clipPath>
    <linearGradient
       x1="0"
       y1="0"
       x2="1"
       y2="0"
       gradientUnits="userSpaceOnUse"
       gradientTransform="matrix(48.7578,25099.8,25099.8,-48.7578,22005,7674.4)"
       spreadMethod="pad"
       id="linearGradient2504">
      <stop
         style="stop-opacity:1;stop-color:#09005d"
         offset="0"
         id="stop2500" />
      <stop
         style="stop-opacity:1;stop-color:#1a0f91"
         offset="1"
         id="stop2502" />
    </linearGradient>
    <clipPath
       clipPathUnits="userSpaceOnUse"
       id="clipPath2514">
      <path
         d="m 23452.4,7285.8 c -3458.4,0 -7243.7,126.2 -8546.3,173.7 -260.6,9.5 -464.4,227.6 -456.4,488.2 l 578.8,19005.8 c 6.8,223.8 190.6,398.9 411.8,398.9 7.6,0 15.2,-0.2 22.8,-0.6 665.2,-35.9 1348.1,-51.9 2036.9,-51.9 4560.2,0 9370,700.3 10911.8,945.1 23.8,3.8 47.4,5.6 70.7,5.6 238.2,0 440.2,-191.5 444.3,-438.2 l 334.5,-19941.5 c 3.2,-191.4 -137.6,-354.9 -327.5,-379.1 -1212.9,-154.9 -3280.8,-206 -5481.4,-206 m -7703.1,19603.5 c -212.9,0 -389.8,-168.6 -396.4,-383.9 l -557,-18290.2 c -7.6,-250.7 188.5,-460.6 439.2,-469.7 1253.6,-45.8 4896.4,-167.2 8224.6,-167.2 2117.7,0 4107.7,49.1 5275,198.2 182.7,23.3 318.2,180.6 315.1,364.8 l -321.9,19190.6 c -4,237.5 -198.4,421.7 -427.6,421.7 -22.4,0 -45.1,-1.7 -68,-5.4 -1483.7,-235.5 -6112.5,-909.4 -10500.9,-909.4 -662.8,0 -1320,15.3 -1960.3,49.9 -7.3,0.4 -14.6,0.6 -21.8,0.6"
         id="path2512" />
    </clipPath>
    <linearGradient
       x1="0"
       y1="0"
       x2="1"
       y2="0"
       gradientUnits="userSpaceOnUse"
       gradientTransform="matrix(-15712,22084.2,-22084.2,-15712,32289.1,2964.4)"
       spreadMethod="pad"
       id="linearGradient2520">
      <stop
         style="stop-opacity:1;stop-color:#4f52ff"
         offset="0"
         id="stop2516" />
      <stop
         style="stop-opacity:1;stop-color:#4042e2"
         offset="1"
         id="stop2518" />
    </linearGradient>
    <clipPath
       clipPathUnits="userSpaceOnUse"
       id="clipPath2534">
      <path
         d="m 23896.9,24412.3 c 10.5,-465 396,-833.4 861,-822.8 464.9,10.5 833.4,396 822.8,861 -10.5,464.9 -396,833.4 -861,822.8 -465,-10.5 -833.4,-396 -822.8,-861 z"
         id="path2532" />
    </clipPath>
    <linearGradient
       x1="0"
       y1="0"
       x2="1"
       y2="0"
       gradientUnits="userSpaceOnUse"
       gradientTransform="matrix(6567.4,-9313.35,9313.35,6567.4,23696.2,25909.9)"
       spreadMethod="pad"
       id="linearGradient2540">
      <stop
         style="stop-opacity:1;stop-color:#4f52ff"
         offset="0"
         id="stop2536" />
      <stop
         style="stop-opacity:1;stop-color:#4042e2"
         offset="1"
         id="stop2538" />
    </linearGradient>
    <clipPath
       clipPathUnits="userSpaceOnUse"
       id="clipPath2550">
      <path
         d="m 26073.6,21988.5 -2682.3,-60.8 c -164.4,-3.7 -267.1,175.6 -181.6,316.2 219.7,361.7 684.5,896.2 1510.6,891.3 796.2,-4.8 1278.5,-467.2 1523.3,-801.1 103.9,-141.7 5.7,-341.6 -170,-345.6 z"
         id="path2548" />
    </clipPath>
    <linearGradient
       x1="0"
       y1="0"
       x2="1"
       y2="0"
       gradientUnits="userSpaceOnUse"
       gradientTransform="matrix(6567.65,-9313.7,9313.7,6567.65,22627.7,25156.7)"
       spreadMethod="pad"
       id="linearGradient2556">
      <stop
         style="stop-opacity:1;stop-color:#4f52ff"
         offset="0"
         id="stop2552" />
      <stop
         style="stop-opacity:1;stop-color:#4042e2"
         offset="1"
         id="stop2554" />
    </linearGradient>
    <clipPath
       clipPathUnits="userSpaceOnUse"
       id="clipPath2596">
      <path
         d="m 21364.1,29998.3 c -4.6,203.7 156.7,372.5 360.4,377.1 203.7,4.7 372.5,-156.7 377.1,-360.4 4.7,-203.7 -156.7,-372.5 -360.4,-377.1 -203.7,-4.6 -372.5,156.7 -377.1,360.4 z m -282.6,-1137.5 1476.1,164.7 93.5,1359.5 c 18.8,273.5 -157.3,523.5 -422,595.1 -290.1,78.5 -699.7,75.7 -1163.1,-262.5 -908.9,-663.3 15.5,-1856.8 15.5,-1856.8 z"
         id="path2594" />
    </clipPath>
    <linearGradient
       x1="0"
       y1="0"
       x2="1"
       y2="0"
       gradientUnits="userSpaceOnUse"
       gradientTransform="matrix(-6262.49,-8638.39,-8638.39,6262.49,24017.3,32959.4)"
       spreadMethod="pad"
       id="linearGradient2602">
      <stop
         style="stop-opacity:1;stop-color:#09005d"
         offset="0"
         id="stop2598" />
      <stop
         style="stop-opacity:1;stop-color:#1a0f91"
         offset="1"
         id="stop2600" />
    </linearGradient>
    <clipPath
       clipPathUnits="userSpaceOnUse"
       id="clipPath2614">
      <path
         d="m 24596,28194.5 -15.4,682.1 c -5.4,235.5 -204.8,419.6 -439.9,406.2 l -4699,-267.6 c -208.5,-11.9 -373.8,-180.5 -381.6,-389.2 l -24.4,-656.3 z"
         id="path2612" />
    </clipPath>
    <linearGradient
       x1="0"
       y1="0"
       x2="1"
       y2="0"
       gradientUnits="userSpaceOnUse"
       gradientTransform="matrix(6175.15,-7751.5,7751.5,6175.15,18920.9,32115.6)"
       spreadMethod="pad"
       id="linearGradient2620">
      <stop
         style="stop-opacity:1;stop-color:#09005d"
         offset="0"
         id="stop2616" />
      <stop
         style="stop-opacity:1;stop-color:#1a0f91"
         offset="1"
         id="stop2618" />
    </linearGradient>
    <clipPath
       clipPathUnits="userSpaceOnUse"
       id="clipPath2634">
      <path
         d="m 26063.8,28477.6 -8223.3,-186.1 c -295.7,-6.7 -543.7,-225.2 -587.5,-517.7 l -6.1,-40.4 c -48,-320.4 204.3,-606.7 528.2,-599.4 l 8436.7,191.2 c 193.8,4.4 344.6,169.9 330.9,363.3 l -26.7,377.2 c -16.7,235.9 -215.7,417.2 -452.2,411.9 z"
         id="path2632" />
    </clipPath>
    <linearGradient
       x1="0"
       y1="0"
       x2="1"
       y2="0"
       gradientUnits="userSpaceOnUse"
       gradientTransform="matrix(-194.945,8724.07,8724.07,194.945,21916,26597.3)"
       spreadMethod="pad"
       id="linearGradient2640">
      <stop
         style="stop-opacity:1;stop-color:#09005d"
         offset="0"
         id="stop2636" />
      <stop
         style="stop-opacity:1;stop-color:#1a0f91"
         offset="1"
         id="stop2638" />
    </linearGradient>
    <clipPath
       clipPathUnits="userSpaceOnUse"
       id="clipPath2650">
      <path
         d="m 19472.1,12019 -1095.9,2661.4 c -21.2,51.5 -71.3,85.1 -127,85.1 h -674 c -100.1,0 -166.5,-103.6 -124.8,-194.6 L 18721,11798.6 c 27,-58.9 91.5,-90.9 154.7,-76.9 l 499.2,110.9 c 83.2,18.5 129.7,107.6 97.2,186.4 z"
         id="path2648" />
    </clipPath>
    <linearGradient
       x1="0"
       y1="0"
       x2="1"
       y2="0"
       gradientUnits="userSpaceOnUse"
       gradientTransform="matrix(2044.78,0,0,-2044.78,17437.7,13242)"
       spreadMethod="pad"
       id="linearGradient2656">
      <stop
         style="stop-opacity:1;stop-color:#4f52ff"
         offset="0"
         id="stop2652" />
      <stop
         style="stop-opacity:1;stop-color:#4042e2"
         offset="1"
         id="stop2654" />
    </linearGradient>
    <clipPath
       clipPathUnits="userSpaceOnUse"
       id="clipPath2666">
      <path
         d="m 21158.6,5392.7 h -322.7 v 3490 h 322.7 z"
         id="path2664" />
    </clipPath>
    <linearGradient
       x1="0"
       y1="0"
       x2="1"
       y2="0"
       gradientUnits="userSpaceOnUse"
       gradientTransform="matrix(-9066.96,-9410.42,-9410.42,9066.96,35278.4,21959.9)"
       spreadMethod="pad"
       id="linearGradient2672">
      <stop
         style="stop-opacity:1;stop-color:#09005d"
         offset="0"
         id="stop2668" />
      <stop
         style="stop-opacity:1;stop-color:#1a0f91"
         offset="1"
         id="stop2670" />
    </linearGradient>
    <clipPath
       clipPathUnits="userSpaceOnUse"
       id="clipPath2682">
      <path
         d="m 22410.5,5325.4 h -2826.6 v 176.3 c 0,18.7 15.2,33.8 33.8,33.8 h 2759.1 c 18.6,0 33.7,-15.1 33.7,-33.8 z"
         id="path2680" />
    </clipPath>
    <linearGradient
       x1="0"
       y1="0"
       x2="1"
       y2="0"
       gradientUnits="userSpaceOnUse"
       gradientTransform="matrix(-9216.22,-9565.33,-9565.33,9216.22,36397.7,21404.2)"
       spreadMethod="pad"
       id="linearGradient2688">
      <stop
         style="stop-opacity:1;stop-color:#09005d"
         offset="0"
         id="stop2684" />
      <stop
         style="stop-opacity:1;stop-color:#1a0f91"
         offset="1"
         id="stop2686" />
    </linearGradient>
    <clipPath
       clipPathUnits="userSpaceOnUse"
       id="clipPath2698">
      <path
         d="m 22830,9003.9 c 0,-190.9 -156.1,-347.1 -347,-347.1 h -2859.8 c -190.9,0 -347,156.2 -347,347.1 v 313.8 c 0,190.9 156.1,347 347,347 H 22483 c 190.9,0 347,-156.1 347,-347 z"
         id="path2696" />
    </clipPath>
    <linearGradient
       x1="0"
       y1="0"
       x2="1"
       y2="0"
       gradientUnits="userSpaceOnUse"
       gradientTransform="matrix(-9066.95,-9410.41,-9410.41,9066.95,34296.5,22905.9)"
       spreadMethod="pad"
       id="linearGradient2704">
      <stop
         style="stop-opacity:1;stop-color:#09005d"
         offset="0"
         id="stop2700" />
      <stop
         style="stop-opacity:1;stop-color:#1a0f91"
         offset="1"
         id="stop2702" />
    </linearGradient>
    <clipPath
       clipPathUnits="userSpaceOnUse"
       id="clipPath2714">
      <path
         d="m 18614.7,11209.8 c 0,0 -479.5,-74.3 -1018.7,-434.8 -84.8,-56.7 -131.4,-155.6 -118.6,-256.8 64.6,-511.4 330,-2166.7 1205.4,-3783.3 46.1,-85.3 59.4,-184.5 39,-279.3 l -152.1,-707.7 -282,-264.5 h 726.4 l 483.7,1308.9 -206.8,65.4 c -160.4,50.7 -270.4,198.2 -273.3,366.4 l -24.3,1404.1 c 20.7,625.5 -383.5,1057.1 -383.5,1057.1 l 1160.1,56.4 z"
         id="path2712" />
    </clipPath>
    <linearGradient
       x1="0"
       y1="0"
       x2="1"
       y2="0"
       gradientUnits="userSpaceOnUse"
       gradientTransform="matrix(2294.67,0,0,-2294.67,16882.3,8346.6)"
       spreadMethod="pad"
       id="linearGradient2720">
      <stop
         style="stop-opacity:1;stop-color:#febbba"
         offset="0"
         id="stop2716" />
      <stop
         style="stop-opacity:1;stop-color:#ff928e"
         offset="1"
         id="stop2718" />
    </linearGradient>
    <clipPath
       clipPathUnits="userSpaceOnUse"
       id="clipPath2730">
      <path
         d="m 18004.1,5355.8 c -66.2,-86.6 712,-200.9 1105.2,-11.5 0,0 545,948.2 545,1436.4 0,0 -43.3,99.6 -363.3,77 0,0 -183,-1122.7 -376.2,-1248.5 -193.3,-125.8 -540.6,-12.7 -540.6,-12.7 0,0 -272.5,-113 -370.1,-240.7 z"
         id="path2728" />
    </clipPath>
    <linearGradient
       x1="0"
       y1="0"
       x2="1"
       y2="0"
       gradientUnits="userSpaceOnUse"
       gradientTransform="matrix(7675.62,4893.85,4893.85,-7675.62,-39017.4,-31017.5)"
       spreadMethod="pad"
       id="linearGradient2736">
      <stop
         style="stop-opacity:1;stop-color:#53d8ff"
         offset="0"
         id="stop2732" />
      <stop
         style="stop-opacity:1;stop-color:#3840f7"
         offset="1"
         id="stop2734" />
    </linearGradient>
    <clipPath
       clipPathUnits="userSpaceOnUse"
       id="clipPath2746">
      <path
         d="m 19623.2,9664.7 c -6.2,10.7 -1249,149.5 -1249,149.5 0,0 40.6,-377.9 -86.5,-898.1 C 18160.6,8395.9 16335.8,6142 16335.8,6142 l 191.3,-606.5 c -591.6,-206.1 -1173.5,-239 -1746.1,-105.1 l 1185.8,711.6 c 0,0 1109.7,3781.9 1789.5,4456.5 l 1245.8,431.1 z"
         id="path2744" />
    </clipPath>
    <linearGradient
       x1="0"
       y1="0"
       x2="1"
       y2="0"
       gradientUnits="userSpaceOnUse"
       gradientTransform="matrix(-2964.94,5099.7,-5099.7,-2964.94,17382.1,7386.2)"
       spreadMethod="pad"
       id="linearGradient2752">
      <stop
         style="stop-opacity:1;stop-color:#febbba"
         offset="0"
         id="stop2748" />
      <stop
         style="stop-opacity:1;stop-color:#ff928e"
         offset="1"
         id="stop2750" />
    </linearGradient>
    <clipPath
       clipPathUnits="userSpaceOnUse"
       id="clipPath2762">
      <path
         d="m 22410.5,11865.3 c 0,0 716.1,-1065.1 774.9,-1551 58.7,-485.8 -196.2,-683.2 -947.5,-715.8 -751.4,-32.5 -2757.2,-32 -2757.2,-32 l -1711.9,1463.1 c 0,0 1247.6,445.1 1571.9,571 324.4,125.9 3069.8,264.7 3069.8,264.7 z"
         id="path2760" />
    </clipPath>
    <linearGradient
       x1="0"
       y1="0"
       x2="1"
       y2="0"
       gradientUnits="userSpaceOnUse"
       gradientTransform="matrix(-6319.39,-7624.49,-7624.49,6319.39,29017.8,20805.6)"
       spreadMethod="pad"
       id="linearGradient2768">
      <stop
         style="stop-opacity:1;stop-color:#ff928e"
         offset="0"
         id="stop2764" />
      <stop
         style="stop-opacity:1;stop-color:#fe7062"
         offset="1"
         id="stop2766" />
    </linearGradient>
    <clipPath
       clipPathUnits="userSpaceOnUse"
       id="clipPath2778">
      <path
         d="m 16454.8,5739.7 c 0,0 206,-199.5 66.9,-421.5 0,0 -1631.9,-289.2 -2074.9,-158 0,0 92,210 590.9,449 l -36.8,-28.3 c -46.6,-35.7 -19.3,-110.2 39.3,-106.9 328.8,18.8 1009.1,79 1414.6,265.7 z"
         id="path2776" />
    </clipPath>
    <linearGradient
       x1="0"
       y1="0"
       x2="1"
       y2="0"
       gradientUnits="userSpaceOnUse"
       gradientTransform="matrix(7675.63,4893.85,4893.85,-7675.63,-39722.4,-29912)"
       spreadMethod="pad"
       id="linearGradient2784">
      <stop
         style="stop-opacity:1;stop-color:#53d8ff"
         offset="0"
         id="stop2780" />
      <stop
         style="stop-opacity:1;stop-color:#3840f7"
         offset="1"
         id="stop2782" />
    </linearGradient>
    <clipPath
       clipPathUnits="userSpaceOnUse"
       id="clipPath2794">
      <path
         d="m 20474,12006.2 c 0,0 -833.9,794.1 -1244.4,1320 -221.8,284.3 -291.5,658.5 -188.9,1004.2 187.4,631.4 520.4,1285.3 550.8,1387.1 46.6,156 981.5,149.5 981.5,149.5 0,0 1839.9,-1194.1 2562.8,-3216.8 l -811.8,-252.8 c 0,0 -480.4,806 -955.1,1318.4 0,0 821.3,-1085 850.3,-1529.2 z"
         id="path2792" />
    </clipPath>
    <linearGradient
       x1="0"
       y1="0"
       x2="1"
       y2="0"
       gradientUnits="userSpaceOnUse"
       gradientTransform="matrix(1442.47,-4876.91,-4876.91,-1442.47,19274.3,19304.4)"
       spreadMethod="pad"
       id="linearGradient2800">
      <stop
         style="stop-opacity:1;stop-color:#ff928e"
         offset="0"
         id="stop2796" />
      <stop
         style="stop-opacity:1;stop-color:#fe7062"
         offset="1"
         id="stop2798" />
    </linearGradient>
    <clipPath
       clipPathUnits="userSpaceOnUse"
       id="clipPath2810">
      <path
         d="m 19478.4,16589.3 c 9.8,-32.4 253.8,-841.4 272.9,-858.2 19.1,-16.8 535.2,-44.6 778.1,121.5 l -412.1,862.7 z"
         id="path2808" />
    </clipPath>
    <linearGradient
       x1="0"
       y1="0"
       x2="1"
       y2="0"
       gradientUnits="userSpaceOnUse"
       gradientTransform="matrix(-242.199,1554.1,1554.1,242.199,20219.8,14835.7)"
       spreadMethod="pad"
       id="linearGradient2816">
      <stop
         style="stop-opacity:1;stop-color:#febbba"
         offset="0"
         id="stop2812" />
      <stop
         style="stop-opacity:1;stop-color:#ff928e"
         offset="1"
         id="stop2814" />
    </linearGradient>
    <clipPath
       clipPathUnits="userSpaceOnUse"
       id="clipPath2826">
      <path
         d="m 19176.9,17776.2 c 0,0 -289.4,-316.3 -295.4,-947 -6,-630.7 286.1,-786.5 530.2,-714.3 244,72.1 584,234.3 792.4,735.5 208.4,501.3 -643.1,1319.5 -1027.2,925.8 z"
         id="path2824" />
    </clipPath>
    <linearGradient
       x1="0"
       y1="0"
       x2="1"
       y2="0"
       gradientUnits="userSpaceOnUse"
       gradientTransform="matrix(2286.38,-384.062,-384.062,-2286.38,18797.4,17085.1)"
       spreadMethod="pad"
       id="linearGradient2832">
      <stop
         style="stop-opacity:1;stop-color:#febbba"
         offset="0"
         id="stop2828" />
      <stop
         style="stop-opacity:1;stop-color:#ff928e"
         offset="1"
         id="stop2830" />
    </linearGradient>
    <clipPath
       clipPathUnits="userSpaceOnUse"
       id="clipPath2842">
      <path
         d="m 19833.6,17015.6 c 0,0 -77.5,883.1 -754.4,583.3 l -107.5,-183.3 c 0,0 -439.9,307.5 -126.9,694.2 313,386.8 999.6,485.5 1422.5,18.7 422.9,-466.7 483.8,-865.5 316.8,-1258.3 -167,-392.8 -421.1,-150.9 -421.1,-150.9 0,0 44.1,315.9 -79.5,417.4 -123.6,101.5 -197.8,-123.5 -197.8,-123.5 z"
         id="path2840" />
    </clipPath>
    <linearGradient
       x1="0"
       y1="0"
       x2="1"
       y2="0"
       gradientUnits="userSpaceOnUse"
       gradientTransform="matrix(-1527.69,-4383.25,-4383.25,1527.69,20818.6,20705.3)"
       spreadMethod="pad"
       id="linearGradient2848">
      <stop
         style="stop-opacity:1;stop-color:#09005d"
         offset="0"
         id="stop2844" />
      <stop
         style="stop-opacity:1;stop-color:#1a0f91"
         offset="1"
         id="stop2846" />
    </linearGradient>
    <clipPath
       clipPathUnits="userSpaceOnUse"
       id="clipPath2858">
      <path
         d="m 19947.8,16965.7 c 0,0 -42.4,453.7 211.7,381.9 254,-71.8 17.2,-429.2 -81.9,-555.2 z"
         id="path2856" />
    </clipPath>
    <linearGradient
       x1="0"
       y1="0"
       x2="1"
       y2="0"
       gradientUnits="userSpaceOnUse"
       gradientTransform="matrix(2286.37,-384.06,-384.06,-2286.37,18831.3,17286.9)"
       spreadMethod="pad"
       id="linearGradient2864">
      <stop
         style="stop-opacity:1;stop-color:#febbba"
         offset="0"
         id="stop2860" />
      <stop
         style="stop-opacity:1;stop-color:#ff928e"
         offset="1"
         id="stop2862" />
    </linearGradient>
    <clipPath
       clipPathUnits="userSpaceOnUse"
       id="clipPath2874">
      <path
         d="m 18775.2,11947.3 612.6,590.5 847.6,-358 c 0,0 843.6,-130.7 1326.5,0 482.8,130.7 482.8,130.7 482.8,130.7 l 1091.1,339.7 171.4,-484.3 c 43.5,-123 -0.2,-259.5 -106.6,-335.1 -94.3,-67 -205,-140.8 -275.5,-171.6 -143.7,-62.9 -3542.2,43.5 -3542.2,43.5 z"
         id="path2872" />
    </clipPath>
    <linearGradient
       x1="0"
       y1="0"
       x2="1"
       y2="0"
       gradientUnits="userSpaceOnUse"
       gradientTransform="matrix(4548.68,0,0,-4548.68,21610.3,12144.8)"
       spreadMethod="pad"
       id="linearGradient2880">
      <stop
         style="stop-opacity:1;stop-color:#febbba"
         offset="0"
         id="stop2876" />
      <stop
         style="stop-opacity:1;stop-color:#ff928e"
         offset="1"
         id="stop2878" />
    </linearGradient>
    <clipPath
       clipPathUnits="userSpaceOnUse"
       id="clipPath2890">
      <path
         d="m 20253.8,18018.8 c -127.1,48.7 -139.3,223.7 -25.9,298.9 366.2,242.5 996.3,455.7 1636.4,-272.7 721,-820.4 1124.4,-1210.9 1352.8,-1207.2 149.9,2.5 237.5,-167.1 138.7,-280 -72.9,-83.5 -197.9,-158.5 -405.3,-203.5 -1600.1,-347.3 -1951.4,1379 -2696.7,1664.5 z"
         id="path2888" />
    </clipPath>
    <linearGradient
       x1="0"
       y1="0"
       x2="1"
       y2="0"
       gradientUnits="userSpaceOnUse"
       gradientTransform="matrix(-1527.68,-4383.22,-4383.22,1527.68,22691.2,20052.7)"
       spreadMethod="pad"
       id="linearGradient2896">
      <stop
         style="stop-opacity:1;stop-color:#09005d"
         offset="0"
         id="stop2892" />
      <stop
         style="stop-opacity:1;stop-color:#1a0f91"
         offset="1"
         id="stop2894" />
    </linearGradient>
    <clipPath
       clipPathUnits="userSpaceOnUse"
       id="clipPath2906">
      <path
         d="m 9204.49,5135.8 c -17.16,0 -34.59,3.3 -51.36,10.2 -66.03,27 -96.53,99.9 -68.13,162.8 l 2729.5,6041.9 c 28.4,62.8 104.9,91.8 171,64.8 66.1,-27 96.6,-99.9 68.2,-162.8 L 9324.11,5210.8 c -21.18,-46.9 -69.18,-75 -119.62,-75 z"
         id="path2904" />
    </clipPath>
    <linearGradient
       x1="0"
       y1="0"
       x2="1"
       y2="0"
       gradientUnits="userSpaceOnUse"
       gradientTransform="matrix(2989.91,0,0,-2989.91,9074.37,8280.7)"
       spreadMethod="pad"
       id="linearGradient2912">
      <stop
         style="stop-opacity:1;stop-color:#4f52ff"
         offset="0"
         id="stop2908" />
      <stop
         style="stop-opacity:1;stop-color:#4042e2"
         offset="1"
         id="stop2910" />
    </linearGradient>
    <clipPath
       clipPathUnits="userSpaceOnUse"
       id="clipPath2922">
      <path
         d="m 12279.4,5135.8 c -50.4,0 -98.4,28.1 -119.6,75 l -2729.52,6041.9 c -28.4,62.9 2.1,135.8 68.12,162.8 65.98,27.1 142.56,-1.9 170.99,-64.8 L 12398.9,5308.8 c 28.4,-62.9 -2.1,-135.8 -68.1,-162.8 -16.7,-6.9 -34.2,-10.2 -51.4,-10.2 z"
         id="path2920" />
    </clipPath>
    <linearGradient
       x1="0"
       y1="0"
       x2="1"
       y2="0"
       gradientUnits="userSpaceOnUse"
       gradientTransform="matrix(2989.91,0,0,-2989.91,9419.65,8280.7)"
       spreadMethod="pad"
       id="linearGradient2928">
      <stop
         style="stop-opacity:1;stop-color:#4f52ff"
         offset="0"
         id="stop2924" />
      <stop
         style="stop-opacity:1;stop-color:#4042e2"
         offset="1"
         id="stop2926" />
    </linearGradient>
    <clipPath
       clipPathUnits="userSpaceOnUse"
       id="clipPath2938">
      <path
         d="m 20433.9,5135.8 c -17.1,0 -34.6,3.3 -51.3,10.2 -66.1,27 -96.6,99.9 -68.2,162.8 l 2729.6,6041.9 c 28.4,62.8 104.9,91.8 171,64.8 66,-27 96.5,-99.9 68.1,-162.8 L 20553.6,5210.8 c -21.2,-46.9 -69.2,-75 -119.7,-75 z"
         id="path2936" />
    </clipPath>
    <linearGradient
       x1="0"
       y1="0"
       x2="1"
       y2="0"
       gradientUnits="userSpaceOnUse"
       gradientTransform="matrix(2989.9,0,0,-2989.9,20303.8,8280.7)"
       spreadMethod="pad"
       id="linearGradient2944">
      <stop
         style="stop-opacity:1;stop-color:#4f52ff"
         offset="0"
         id="stop2940" />
      <stop
         style="stop-opacity:1;stop-color:#4042e2"
         offset="1"
         id="stop2942" />
    </linearGradient>
    <clipPath
       clipPathUnits="userSpaceOnUse"
       id="clipPath2954">
      <path
         d="m 23508.9,5135.8 c -50.5,0 -98.5,28.1 -119.7,75 l -2729.5,6041.9 c -28.4,62.9 2.1,135.8 68.1,162.8 66,27.1 142.6,-1.9 171,-64.8 l 2729.5,-6041.9 c 28.5,-62.9 -2,-135.8 -68.1,-162.8 -16.7,-6.9 -34.2,-10.2 -51.3,-10.2 z"
         id="path2952" />
    </clipPath>
    <linearGradient
       x1="0"
       y1="0"
       x2="1"
       y2="0"
       gradientUnits="userSpaceOnUse"
       gradientTransform="matrix(2989.9,0,0,-2989.9,20649.1,8280.7)"
       spreadMethod="pad"
       id="linearGradient2960">
      <stop
         style="stop-opacity:1;stop-color:#4f52ff"
         offset="0"
         id="stop2956" />
      <stop
         style="stop-opacity:1;stop-color:#4042e2"
         offset="1"
         id="stop2958" />
    </linearGradient>
    <clipPath
       clipPathUnits="userSpaceOnUse"
       id="clipPath2970">
      <path
         d="m 24382.4,11539.1 c 8.8,40.3 -3.2,81.9 -33,113.6 -29.8,31.7 -74.1,50 -120.9,50 H 8384.79 c -61.51,0 -118.77,-27.5 -151.91,-73 -33.14,-45.5 -37.58,-102.6 -11.79,-151.6 l 171.69,-326.1 c 39.32,-74.6 124.51,-122.4 218.25,-122.4 H 24119.8 c 87.2,0 162.2,54.2 178.7,129.3 z"
         id="path2968" />
    </clipPath>
    <linearGradient
       x1="0"
       y1="0"
       x2="1"
       y2="0"
       gradientUnits="userSpaceOnUse"
       gradientTransform="matrix(16180.7,0,0,-16180.7,8204.47,11366.1)"
       spreadMethod="pad"
       id="linearGradient2976">
      <stop
         style="stop-opacity:1;stop-color:#4f52ff"
         offset="0"
         id="stop2972" />
      <stop
         style="stop-opacity:1;stop-color:#4042e2"
         offset="1"
         id="stop2974" />
    </linearGradient>
    <clipPath
       clipPathUnits="userSpaceOnUse"
       id="clipPath2992">
      <path
         d="m 11275.1,5413.7 c -510.8,0 -736.8,43.8 -837.9,83.8 19.7,-83.9 94.4,-150.1 188.8,-150.1 h 1807.1 c 60.9,0 99.3,58.2 84.7,111 -206,-16.6 -643.5,-44.7 -1242.7,-44.7 z"
         id="path2990" />
    </clipPath>
    <linearGradient
       x1="0"
       y1="0"
       x2="1"
       y2="0"
       gradientUnits="userSpaceOnUse"
       gradientTransform="matrix(2083.68,0,0,-2083.68,10437.2,5422.4)"
       spreadMethod="pad"
       id="linearGradient2998">
      <stop
         style="stop-opacity:1;stop-color:#4f52ff"
         offset="0"
         id="stop2994" />
      <stop
         style="stop-opacity:1;stop-color:#4042e2"
         offset="1"
         id="stop2996" />
    </linearGradient>
    <clipPath
       clipPathUnits="userSpaceOnUse"
       id="clipPath3008">
      <path
         d="m 12517.8,5458.4 c -2.9,10.6 -7.2,21.1 -14.8,30.7 -137.6,175.8 -414.1,451.8 -790.3,446.5 -551,-7.8 -743.2,-67.6 -1171.4,-3.4 l -101,-334.8 c -10.3,-34.2 -10.5,-68.2 -3.1,-99.9 101.1,-40 327.1,-83.8 837.9,-83.8 599.2,0 1036.7,28.1 1242.7,44.7 z"
         id="path3006" />
    </clipPath>
    <linearGradient
       x1="0"
       y1="0"
       x2="1"
       y2="0"
       gradientUnits="userSpaceOnUse"
       gradientTransform="matrix(-569.317,-3933.47,-3933.47,569.317,12042.6,9429.1)"
       spreadMethod="pad"
       id="linearGradient3014">
      <stop
         style="stop-opacity:1;stop-color:#09005d"
         offset="0"
         id="stop3010" />
      <stop
         style="stop-opacity:1;stop-color:#1a0f91"
         offset="1"
         id="stop3012" />
    </linearGradient>
    <clipPath
       clipPathUnits="userSpaceOnUse"
       id="clipPath3024">
      <path
         d="m 10665.3,6293.1 -124,-421.8 c 0,0 274.7,-125 516.4,-24.6 l 47.4,365.3 z"
         id="path3022" />
    </clipPath>
    <linearGradient
       x1="0"
       y1="0"
       x2="1"
       y2="0"
       gradientUnits="userSpaceOnUse"
       gradientTransform="matrix(563.777,0,0,-563.777,10541.3,6050.3)"
       spreadMethod="pad"
       id="linearGradient3030">
      <stop
         style="stop-opacity:1;stop-color:#febbba"
         offset="0"
         id="stop3026" />
      <stop
         style="stop-opacity:1;stop-color:#ff928e"
         offset="1"
         id="stop3028" />
    </linearGradient>
    <clipPath
       clipPathUnits="userSpaceOnUse"
       id="clipPath3040">
      <path
         d="m 14410.8,5679.3 c -398.2,-320 -601.7,-427.5 -705.4,-459.8 67.6,-52.8 167.1,-57.4 240.7,1.8 l 1408.7,1131.8 c 47.5,38.2 41.1,107.4 -3.1,139.2 -150.3,-141.9 -473.8,-437.7 -940.9,-813 z"
         id="path3038" />
    </clipPath>
    <linearGradient
       x1="0"
       y1="0"
       x2="1"
       y2="0"
       gradientUnits="userSpaceOnUse"
       gradientTransform="matrix(1682.33,0,0,-1682.33,13705.4,5835.4)"
       spreadMethod="pad"
       id="linearGradient3046">
      <stop
         style="stop-opacity:1;stop-color:#4f52ff"
         offset="0"
         id="stop3042" />
      <stop
         style="stop-opacity:1;stop-color:#4042e2"
         offset="1"
         id="stop3044" />
    </linearGradient>
    <clipPath
       clipPathUnits="userSpaceOnUse"
       id="clipPath3056">
      <path
         d="m 15351.7,6492.3 c -8.9,6.4 -18.8,11.9 -30.7,14.6 -216.9,50.2 -604.5,91.1 -894.4,-148.6 -424.8,-351.2 -537.3,-517.9 -911.1,-736.3 l 130,-323.1 c 13.3,-32.9 34.4,-59.5 59.9,-79.4 103.7,32.3 307.2,139.8 705.4,459.8 467.1,375.3 790.6,671.1 940.9,813 z"
         id="path3054" />
    </clipPath>
    <linearGradient
       x1="0"
       y1="0"
       x2="1"
       y2="0"
       gradientUnits="userSpaceOnUse"
       gradientTransform="matrix(-569.317,-3933.47,-3933.47,569.317,14862.6,9021)"
       spreadMethod="pad"
       id="linearGradient3062">
      <stop
         style="stop-opacity:1;stop-color:#09005d"
         offset="0"
         id="stop3058" />
      <stop
         style="stop-opacity:1;stop-color:#1a0f91"
         offset="1"
         id="stop3060" />
    </linearGradient>
    <clipPath
       clipPathUnits="userSpaceOnUse"
       id="clipPath3072">
      <path
         d="m 8012.67,11098.1 c 0,0 3058.23,-249.8 3685.63,-545.1 627.4,-295.3 -512,-4434.7 -512,-4434.7 0,0 -170.8,-82.2 -550.8,36 0,0 389.7,3054.6 99.7,3717 l -3311.3,541.6 z"
         id="path3070" />
    </clipPath>
    <linearGradient
       x1="0"
       y1="0"
       x2="1"
       y2="0"
       gradientUnits="userSpaceOnUse"
       gradientTransform="matrix(-4121.15,-8396.83,-8396.83,4121.15,10522,10745)"
       spreadMethod="pad"
       id="linearGradient3078">
      <stop
         style="stop-opacity:1;stop-color:#09005d"
         offset="0"
         id="stop3074" />
      <stop
         style="stop-opacity:1;stop-color:#1a0f91"
         offset="1"
         id="stop3076" />
    </linearGradient>
    <clipPath
       clipPathUnits="userSpaceOnUse"
       id="clipPath3088">
      <path
         d="m 13211.6,6203.4 c 28.4,-25.9 303.9,-581.4 303.9,-581.4 0,0 306.7,66.3 369.2,260.4 l -275.9,501.4 z"
         id="path3086" />
    </clipPath>
    <linearGradient
       x1="0"
       y1="0"
       x2="1"
       y2="0"
       gradientUnits="userSpaceOnUse"
       gradientTransform="matrix(673.074,0,0,-673.074,13211.6,6002.9)"
       spreadMethod="pad"
       id="linearGradient3094">
      <stop
         style="stop-opacity:1;stop-color:#febbba"
         offset="0"
         id="stop3090" />
      <stop
         style="stop-opacity:1;stop-color:#ff928e"
         offset="1"
         id="stop3092" />
    </linearGradient>
    <clipPath
       clipPathUnits="userSpaceOnUse"
       id="clipPath3104">
      <path
         d="m 6170.7,11123.6 c 0,0 -99.66,-239.8 -95.59,-558.5 5.62,-440.7 359.94,-798.3 800.14,-820.3 l 3615.35,-164.9 c 76.4,-3.5 141,-56.3 160.1,-130.3 84.9,-328.6 500.2,-1337.7 2530.1,-3351.4 54,-53.6 138.2,-62.7 202.5,-22 l 288.9,182.5 c 30.4,19.2 40.1,58.9 21.9,89.9 l -2105,3594.7 c -110.6,182.4 -288.3,314.2 -495,367.1 l -3081.43,787.7 z"
         id="path3102" />
    </clipPath>
    <linearGradient
       x1="0"
       y1="0"
       x2="1"
       y2="0"
       gradientUnits="userSpaceOnUse"
       gradientTransform="matrix(-4899.58,-5555.16,-5555.16,4899.58,16667.9,16338.3)"
       spreadMethod="pad"
       id="linearGradient3110">
      <stop
         style="stop-opacity:1;stop-color:#09005d"
         offset="0"
         id="stop3106" />
      <stop
         style="stop-opacity:1;stop-color:#1a0f91"
         offset="1"
         id="stop3108" />
    </linearGradient>
    <clipPath
       clipPathUnits="userSpaceOnUse"
       id="clipPath3120">
      <path
         d="m 6160.94,11134.2 c 0,0 -35.84,1791.9 322.38,3478.3 132.28,622.7 476.55,1180.3 976.61,1574.3 l 167.3,131.8 837.88,-340.4 430.59,-744 c 237.04,-474.1 178.83,-1503.7 0,-2002.6 -299.02,-834.3 -538.15,-1698.9 -640.07,-2123.6 0,0 -1387.73,-183.3 -2094.69,26.2 z"
         id="path3118" />
    </clipPath>
    <linearGradient
       x1="0"
       y1="0"
       x2="1"
       y2="0"
       gradientUnits="userSpaceOnUse"
       gradientTransform="matrix(4584.78,-7572.6,7572.6,4584.78,-70203,141588)"
       spreadMethod="pad"
       id="linearGradient3126">
      <stop
         style="stop-opacity:1;stop-color:#ff928e"
         offset="0"
         id="stop3122" />
      <stop
         style="stop-opacity:1;stop-color:#fe7062"
         offset="1"
         id="stop3124" />
    </linearGradient>
    <clipPath
       clipPathUnits="userSpaceOnUse"
       id="clipPath3136">
      <path
         d="m 8203.27,17654 -654.59,-1518.7 c 0,0 209.46,-471.3 942.61,-288 l 261.84,1047.3 z"
         id="path3134" />
    </clipPath>
    <linearGradient
       x1="0"
       y1="0"
       x2="1"
       y2="0"
       gradientUnits="userSpaceOnUse"
       gradientTransform="matrix(1204.45,0,0,-1204.45,7548.68,16729.5)"
       spreadMethod="pad"
       id="linearGradient3142">
      <stop
         style="stop-opacity:1;stop-color:#febbba"
         offset="0"
         id="stop3138" />
      <stop
         style="stop-opacity:1;stop-color:#ff928e"
         offset="1"
         id="stop3140" />
    </linearGradient>
    <clipPath
       clipPathUnits="userSpaceOnUse"
       id="clipPath3152">
      <path
         d="m 9500.51,18346.6 c 7.89,-21.2 25.23,-1517.4 25.23,-1517.4 l -854.51,8.2 -227.12,1415.7 c 0,0 924.28,448.6 1056.4,93.5 z"
         id="path3150" />
    </clipPath>
    <linearGradient
       x1="0"
       y1="0"
       x2="1"
       y2="0"
       gradientUnits="userSpaceOnUse"
       gradientTransform="matrix(-816.938,-2726.92,-2726.92,816.938,9188.25,18219.8)"
       spreadMethod="pad"
       id="linearGradient3158">
      <stop
         style="stop-opacity:1;stop-color:#febbba"
         offset="0"
         id="stop3154" />
      <stop
         style="stop-opacity:1;stop-color:#ff928e"
         offset="1"
         id="stop3156" />
    </linearGradient>
    <clipPath
       clipPathUnits="userSpaceOnUse"
       id="clipPath3168">
      <path
         d="m 8694.75,17980.8 61.2,-754.5 c 0.78,-9.7 2.8,-19 6.18,-28.1 20.64,-55.7 105.73,-242.2 291.23,-143.5 168.32,89.5 323.28,168.7 444.34,158.5 54.35,-4.5 96.28,-49.5 96.9,-104.1 1.54,-135.9 -0.65,-442.3 -43.17,-708.2 -8.63,-54 -57.48,-91.9 -112,-88 -164.23,11.6 -509.95,45.9 -781.61,138.6 -36.82,12.5 -63.87,43.8 -70.49,82.1 -32.21,186.9 -132.24,754.5 -184.58,908.3 -49.12,144.4 -250.06,193.9 -335.92,208.6 -28.15,4.8 -52.86,20.9 -68.8,44.5 -56.38,83.8 -152.64,285 95.82,429.6 52,30.3 68.44,97 36.6,148 -63.4,101.7 -116.45,266.2 70.27,403.6 189.78,139.6 370.94,61.5 475.35,-11.2 42.23,-29.4 98.42,-23.2 135.13,12.9 20.89,20.5 50.99,32.3 93.74,16.9 57.59,-20.6 120.15,15.5 134.73,74.9 28,114.2 106.64,247 319.98,256.2 378.57,16.4 507.37,-379.2 462.31,-637 -45.06,-257.9 -456.52,-252.4 -678.96,-175.4 -169.14,58.6 -342.47,-78.6 -415.84,-147.7 -23.24,-21.9 -35,-53.1 -32.41,-85 z"
         id="path3166" />
    </clipPath>
    <linearGradient
       x1="0"
       y1="0"
       x2="1"
       y2="0"
       gradientUnits="userSpaceOnUse"
       gradientTransform="matrix(1921.76,715.02,715.02,-1921.76,8150.59,17249.2)"
       spreadMethod="pad"
       id="linearGradient3174">
      <stop
         style="stop-opacity:1;stop-color:#09005d"
         offset="0"
         id="stop3170" />
      <stop
         style="stop-opacity:1;stop-color:#1a0f91"
         offset="1"
         id="stop3172" />
    </linearGradient>
    <clipPath
       clipPathUnits="userSpaceOnUse"
       id="clipPath3184">
      <path
         d="m 8427.78,17167.4 c 0,0 59.23,452.7 -117.21,522.3 -176.44,69.6 -393.25,-33.2 -277.16,-326.8 144.4,-365.2 394.37,-195.5 394.37,-195.5 z"
         id="path3182" />
    </clipPath>
    <linearGradient
       x1="0"
       y1="0"
       x2="1"
       y2="0"
       gradientUnits="userSpaceOnUse"
       gradientTransform="matrix(797.819,1804.03,1804.03,-797.819,7459.07,15657.6)"
       spreadMethod="pad"
       id="linearGradient3190">
      <stop
         style="stop-opacity:1;stop-color:#febbba"
         offset="0"
         id="stop3186" />
      <stop
         style="stop-opacity:1;stop-color:#ff928e"
         offset="1"
         id="stop3188" />
    </linearGradient>
    <clipPath
       clipPathUnits="userSpaceOnUse"
       id="clipPath3200">
      <path
         d="m 10220.1,12573.4 c -2157.95,-677.4 -2043.15,2359.9 -2057.13,2381.2 -855.46,1307.3 -1335.82,-434.8 -1252.92,-680.4 758.76,-2747 2671.53,-2611 3416.85,-2071.4 -92.8,144.4 -114,271.5 -106.8,370.6 z"
         id="path3198" />
    </clipPath>
    <linearGradient
       x1="0"
       y1="0"
       x2="1"
       y2="0"
       gradientUnits="userSpaceOnUse"
       gradientTransform="matrix(4584.76,-7572.58,7572.58,4584.76,-69429.2,142057)"
       spreadMethod="pad"
       id="linearGradient3206">
      <stop
         style="stop-opacity:1;stop-color:#ff928e"
         offset="0"
         id="stop3202" />
      <stop
         style="stop-opacity:1;stop-color:#fe7062"
         offset="1"
         id="stop3204" />
    </linearGradient>
    <clipPath
       clipPathUnits="userSpaceOnUse"
       id="clipPath3216">
      <path
         d="m 8565.86,13042 c -11.9,3.7 -22.63,11.4 -29.9,22.7 -326.96,509.5 -419.22,1217.5 -439.06,1721.8 -1.19,30.3 22.41,55.8 52.7,57 30.31,1.2 55.82,-22.4 57.01,-52.7 15.8,-401.7 91.58,-1152.3 421.77,-1666.8 16.37,-25.5 8.95,-59.4 -16.56,-75.8 -14.2,-9.1 -31,-10.9 -45.96,-6.2 z"
         id="path3214" />
    </clipPath>
    <linearGradient
       x1="0"
       y1="0"
       x2="1"
       y2="0"
       gradientUnits="userSpaceOnUse"
       gradientTransform="matrix(12868.5,10354.4,10354.4,-12868.5,-43567.2,-27846.3)"
       spreadMethod="pad"
       id="linearGradient3222">
      <stop
         style="stop-opacity:1;stop-color:#e1473d"
         offset="0"
         id="stop3218" />
      <stop
         style="stop-opacity:1;stop-color:#e9605a"
         offset="1"
         id="stop3220" />
    </linearGradient>
    <clipPath
       clipPathUnits="userSpaceOnUse"
       id="clipPath3232">
      <path
         d="m 7963.26,12351.8 c -6.76,2.1 -13.22,5.5 -18.97,10.3 -493.18,413.3 -864.77,1062.7 -1104.4,1930.3 -8.07,29.2 9.08,59.5 38.3,67.5 29.23,8.1 59.46,-9.1 67.53,-38.3 233.6,-845.7 593.29,-1476.6 1069.09,-1875.3 23.24,-19.5 26.29,-54.1 6.82,-77.4 -14.65,-17.4 -37.88,-23.5 -58.37,-17.1 z"
         id="path3230" />
    </clipPath>
    <linearGradient
       x1="0"
       y1="0"
       x2="1"
       y2="0"
       gradientUnits="userSpaceOnUse"
       gradientTransform="matrix(12868.5,10354.4,10354.4,-12868.5,-43646.8,-27747.3)"
       spreadMethod="pad"
       id="linearGradient3238">
      <stop
         style="stop-opacity:1;stop-color:#e1473d"
         offset="0"
         id="stop3234" />
      <stop
         style="stop-opacity:1;stop-color:#e9605a"
         offset="1"
         id="stop3236" />
    </linearGradient>
    <clipPath
       clipPathUnits="userSpaceOnUse"
       id="clipPath3248">
      <path
         d="m 11490.4,13207.6 c 0,0 -35.1,-55.9 -287.7,-251.7 -252.7,-195.8 -507,-308.7 -313.9,-39.7 193.2,269.1 99.2,407.9 -121.3,118.1 -220.4,-289.8 -378,-401.8 -378,-401.8 -58,-22.2 -114.4,-41.8 -169.4,-59.1 -7.2,-99.1 14,-226.2 106.8,-370.6 87.4,29 136.8,50.3 136.8,50.3 0,0 668.3,121.6 811.4,406.2 143.2,284.5 215.3,548.3 215.3,548.3 z"
         id="path3246" />
    </clipPath>
    <linearGradient
       x1="0"
       y1="0"
       x2="1"
       y2="0"
       gradientUnits="userSpaceOnUse"
       gradientTransform="matrix(-2060.57,-5357.48,-5357.48,2060.57,13554.9,19894.3)"
       spreadMethod="pad"
       id="linearGradient3254">
      <stop
         style="stop-opacity:1;stop-color:#febbba"
         offset="0"
         id="stop3250" />
      <stop
         style="stop-opacity:1;stop-color:#ff928e"
         offset="1"
         id="stop3252" />
    </linearGradient>
  </defs>
  <sodipodi:namedview
     id="namedview2452"
     pagecolor="#ffffff"
     bordercolor="#000000"
     borderopacity="0.25"
     inkscape:showpageshadow="2"
     inkscape:pageopacity="0.0"
     inkscape:pagecheckerboard="0"
     inkscape:deskcolor="#d1d1d1"
     showgrid="false"
     inkscape:zoom="0.12507785"
     inkscape:cx="931.41988"
     inkscape:cy="3054.0978"
     inkscape:window-width="1920"
     inkscape:window-height="1043"
     inkscape:window-x="0"
     inkscape:window-y="0"
     inkscape:window-maximized="1"
     inkscape:current-layer="g2458">
    <inkscape:page
       x="0"
       y="0"
       id="page2456"
       width="4946.6665"
       height="4946.6665" />
  </sodipodi:namedview>
  <g
     id="g2458"
     inkscape:groupmode="layer"
     inkscape:label="Page 1"
     transform="matrix(1.3333333,0,0,-1.3333333,0,4946.6667)">
    <g
       id="g2464"
       transform="matrix(0.13123348,0,0,0.13123348,-579.38169,-583.61219)">
      <g
         id="g2466"
         clip-path="url(#clipPath2470)">
        <path
           d="m 18970.7,4550 c -1714.4,0 -3024,236.3 -3546.4,340.9 -1894.3,379.3 -5556.03,1112.5 -8203.4,4181.6 -4005.24,4643.4 -3381.57,11958.8 -274.83,16787.9 568.27,883.3 3570.03,5785.9 9671.13,6572.1 605.6,78.1 1228.2,117.5 1858.7,117.5 3214,0 6648.8,-1023.5 9254.5,-3175.7 429.7,-354.8 829,-733.4 1199.1,-1132.4 -140.6,42.5 -289.5,65.3 -443.6,65.3 -11.8,0 -23.6,-0.1 -35.4,-0.4 l -13035.3,-295.3 c -719.1,-16.3 -1299.4,-593.3 -1319.6,-1312.3 l -151.4,-5363.5 c -1345.2,2308.9 -1915.8,5892.5 -2097.9,7315.7 -11,85.6 -80.9,131.7 -151.1,131.7 -57.9,0 -116,-31.5 -141,-98.3 -1618.29,-4318.6 -2076.19,-7724.4 -1880.36,-10396 -1153.77,1801.9 -2136.5,3616.6 -2362.56,4917.1 -9.58,55.2 -53.31,80.9 -102.57,80.9 -62.72,0 -134.41,-41.6 -155.99,-116.7 -413.3,-1437.8 -1156.74,-5055.7 418.58,-8763.8 1446.71,-3405.3 4482.8,-5167 6110.8,-5899 l -20.6,-728.6 c -15.8,-561.2 434.9,-1024.2 995.7,-1024.2 1.5,0 3,0 4.5,0 l 12717,56.9 C 24408,4991.2 21312.2,4550 18970.7,4550 m 13666.6,12112.9 c -110.1,1985.3 -434.5,3667.6 -260.6,4541.9 291.7,-1510 371.4,-3051.3 260.6,-4541.9 m -2438.1,2147.6 -181.2,7998.2 c -0.7,31.2 -2.3,62.1 -4.8,92.7 1169.4,-1662.9 1930.7,-3568.5 2330.8,-5532.1 -22.7,15.3 -51.1,24.1 -80.3,24.1 -29.7,0 -60.1,-9.1 -85.9,-30 -496.5,-402.7 -1373.4,-1243.9 -1978.6,-2552.9"
           style="fill:url(#linearGradient2476);fill-opacity:1;fill-rule:nonzero;stroke:none"
           id="path2478" />
      </g>
    </g>
    <path
       d="m 3671.1655,2206.792 c 3.2022,13.6483 -15.9842,22.7166 -27.7427,13.189 -119.3307,-96.7716 -406.0758,-386.5745 -334.6191,-893.0175 89.6586,-635.40628 -63.6221,-867.25645 -254.4223,-1008.68677 0,0 262.0338,66.50912 426.8892,301.77138 404.7635,577.63729 132.9134,1344.15889 189.8949,1586.74389"
       style="fill:#91b3fa;fill-opacity:1;fill-rule:nonzero;stroke:none;stroke-width:0.131233"
       id="path2480" />
    <path
       d="m 3412.3994,621.38668 -1.5224,66.98157 c 6.9554,13.55641 13.5039,27.25719 19.6326,41.06291 14.16,33.00523 25.4855,66.83722 33.7533,101.32537 8.2283,34.48815 13.412,69.56687 16.2729,104.93428 5.7349,70.77419 3.1496,142.46709 0.9317,214.36989 -2.1128,71.916 -3.6614,144.1994 -1.7716,216.4303 0.8399,36.1023 2.4278,72.2046 4.7638,108.2545 1.0498,18.0314 2.4934,36.0366 3.9107,54.0419 1.6142,18.0052 3.3465,35.9842 5.2493,53.9632 7.7429,71.8765 18.0184,143.5038 30.9186,214.7635 13.2809,71.2074 28.7534,142.0735 47.3491,212.3227 0.4593,1.7192 2.2441,2.9003 4.2126,2.9003 0.3149,0 0.6431,-0.04 0.958,-0.1055 2.2572,-0.4462 3.7008,-2.349 3.294,-4.3044 -14.9344,-70.7349 -28.2415,-141.6796 -38.5302,-212.9525 -10.7087,-71.2204 -18.9239,-142.6771 -24.5406,-214.2518 -5.2887,-71.5879 -9.042,-143.2545 -9.2521,-214.9604 -0.5904,-71.6928 2.3886,-143.3201 5.6825,-215.2361 2.8084,-71.8897 6.1286,-144.2912 0.8662,-217.20452 -5.1838,-72.78208 -20.4988,-146.18097 -50.8924,-214.98664 -7.5984,-17.15221 -15.5905,-34.25193 -24.6719,-50.77422 -8.2546,-15.77427 -17.2703,-31.2467 -26.6141,-46.57477"
       style="fill:#c0d6fc;fill-opacity:1;fill-rule:nonzero;stroke:none;stroke-width:0.131233"
       id="path2482" />
    <path
       d="m 1345.5771,477.23983 c 0,0 77.1259,302.59811 -152.572,623.71327 -213.11005,297.9394 -748.30768,989.2249 -812.90212,1360.8256 -2.85957,16.4698 -28.8753,12.9002 -33.93172,-4.6982 C 291.93247,2268.393 194.36825,1793.6034 401.10297,1306.9766 667.6959,679.4575 1345.5771,477.23983 1345.5771,477.23983"
       style="fill:#91b3fa;fill-opacity:1;fill-rule:nonzero;stroke:none;stroke-width:0.131233"
       id="path2484" />
    <path
       d="m 1206.5615,657.18717 c -6.0892,8.7664 -12.6246,17.86089 -19.6194,27.2572 -20.8924,28.22831 -45.9842,58.96316 -73.74,92.2046 -55.6824,66.35164 -123.2939,141.73215 -194.13372,223.98933 -35.27556,41.2335 -71.41725,84.16 -107.55895,128.2676 -36.15482,44.0944 -72.0603,89.5406 -107.44479,135.4461 -17.7244,23.0052 -35.1417,45.9579 -52.40941,69.1863 -8.4685,11.7584 -16.91469,23.4776 -25.33856,35.1836 -8.06429,11.9422 -16.10234,23.8582 -24.10234,35.735 -31.36611,47.9001 -59.63248,96.7846 -83.8057,145.6822 -24.21651,48.8713 -44.88578,97.4933 -61.24666,144.7243 -16.46192,47.2046 -29.25325,92.7557 -38.56295,135.341 -9.3622,42.5722 -15.49605,82.1129 -18.89893,117.3227 -3.51313,35.21 -4.7021,66.0499 -4.67454,91.4304 0.0131,25.3806 1.45275,45.2755 2.75065,58.7927 1.31628,13.517 2.57086,20.6693 2.57086,20.6693 0.0197,0.1311 0.13912,0.2361 0.27297,0.2361 0.0144,0 0.0288,0 0.0434,-0.013 0.14961,-0.013 0.25197,-0.1575 0.2336,-0.3018 0,0 -0.92389,-7.1654 -1.61549,-20.6955 -0.69159,-13.5302 -1.10367,-33.399 -0.34383,-58.6352 0.8504,-25.2361 3.09449,-55.8398 7.79133,-90.6561 4.78871,-34.803 11.65091,-73.8581 21.832,-115.8397 10.15354,-41.9817 23.80706,-86.811 41.11807,-133.1232 17.4265,-46.273 38.10364,-94.2126 62.73485,-142.1915 24.63646,-47.9528 52.67844,-96.1942 83.97631,-143.3857 7.9803,-11.693 15.99474,-23.4383 24.03279,-35.21 8.3845,-11.5223 16.80051,-23.084 25.22963,-34.6719 17.09578,-23.0315 34.63513,-46.1678 52.20205,-69.0025 35.16403,-45.8005 71.14824,-91.0235 106.90936,-135.2361 35.77425,-44.2125 71.56162,-87.2572 106.53534,-128.6482 69.63236,-83.07079 136.12836,-159.44867 191.07586,-226.81082 27.5064,-33.66139 51.6403,-65.45922 72.0996,-94.33058 4.3439,-6.15486 8.504,-12.17847 12.4934,-18.07085 l -0.4068,-14.64566"
       style="fill:#c3d5fc;fill-opacity:1;fill-rule:nonzero;stroke:none;stroke-width:0.131233"
       id="path2486" />
    <path
       d="m 936.91616,3180.7938 c 7.25717,19.37 35.70859,16.1286 38.3333,-4.3833 25.38054,-198.3068 108.21504,-716.2197 309.18604,-1014.1723 327.2175,-485.1438 484.619,-1217.84661 181.6927,-1540.72028 0,0 -1319.8242,449.40898 -529.21204,2559.27588"
       style="fill:#bdd0fb;fill-opacity:1;fill-rule:nonzero;stroke:none;stroke-width:0.131233"
       id="path2488" />
    <path
       d="m 1223.0707,1242.1998 c -0.013,0 -0.013,0.013 -0.013,0.026 -2.3229,6.4043 -4.6457,12.8741 -6.9948,19.3832 -4.7113,13.0316 -9.4881,26.2599 -14.3306,39.6719 -19.1733,53.7008 -37.5722,110.9842 -55.2625,170.6167 -2.231,7.4409 -4.475,14.9213 -6.7323,22.4277 -2.1127,7.546 -4.2256,15.1313 -6.3516,22.7428 -4.2389,15.21 -8.517,30.5249 -12.8084,45.9449 -4.4488,15.3805 -8.2415,31.0235 -12.3228,46.6797 -4.042,15.6693 -8.0971,31.4173 -12.1654,47.231 -7.7034,31.7191 -15.3018,63.7532 -22.7952,95.9316 -3.504,16.1418 -7.021,32.3096 -10.5381,48.5039 -3.4908,16.1942 -7.0735,32.3885 -10.1968,48.6745 -6.4173,32.5328 -13.1627,64.9999 -18.9108,97.5327 -2.979,16.2467 -5.9449,32.4671 -8.9107,48.622 -2.7428,16.2074 -5.4724,32.3622 -8.202,48.4515 -10.9844,64.3568 -20.23626,127.9394 -28.88455,189.488 -8.1103,61.6403 -15.36747,121.2859 -21.24676,177.9657 -6.15484,56.6403 -10.86606,110.3017 -15.07868,159.8424 -7.95278,99.1337 -11.98163,181.9158 -14.12075,239.8816 -0.95804,28.9895 -1.56166,51.7585 -1.69293,67.3228 -0.14428,7.7165 -0.0398,13.8976 -0.0527,17.9395 0.13127,4.0159 0.21003,6.0894 0.21003,6.0894 0.0398,1.2204 1.03669,2.1652 2.24403,2.1652 0.0258,0 0.0527,0 0.0786,0 1.23359,-0.04 2.19163,-1.0629 2.16538,-2.2834 v -0.2493 c 0,0 -0.0398,-2.0735 -0.10545,-6.0762 0.0915,-3.9632 0.0785,-9.6981 0.35432,-17.4933 0.36744,-15.4988 1.33861,-38.2415 2.75598,-67.1653 1.57478,-28.9108 3.56951,-64.0289 6.56166,-104.265 2.769,-40.2493 6.8241,-85.5905 11.10235,-135.0524 4.65871,-49.4225 9.8425,-102.9526 16.49605,-159.4487 6.31226,-56.5354 14.27817,-115.9973 22.66402,-177.467 8.832,-61.4173 18.2545,-124.8424 29.3963,-189.0156 2.7691,-16.0499 5.5381,-32.1654 8.3202,-48.3201 3.0053,-16.1155 6.0237,-32.2835 9.042,-48.4777 5.8267,-32.4409 12.664,-64.8162 19.1601,-97.2572 6.4567,-32.4409 14.0551,-64.6456 20.8398,-96.8764 7.3622,-32.113 14.8294,-64.0814 22.4016,-95.748 4.0026,-15.7743 7.9921,-31.483 11.9554,-47.126 4.0288,-15.6168 7.7559,-31.2467 12.1259,-46.5879 4.2389,-15.3805 8.4514,-30.6692 12.6246,-45.8529 2.0866,-7.5853 4.1733,-15.1444 6.2467,-22.6772 2.2179,-7.4934 4.4357,-14.9606 6.6405,-22.3884 4.4356,-14.8557 8.832,-29.58 13.1889,-44.1732 2.1917,-7.2835 4.3832,-14.5406 6.5486,-21.7585 2.3359,-7.1653 4.6457,-14.3044 6.9553,-21.3911 4.5801,-14.1994 9.1077,-28.2545 13.5827,-42.1259 2.2573,-6.9292 4.3833,-13.8583 6.6929,-20.6692 2.3753,-6.798 4.7375,-13.5564 7.0735,-20.2625 3.7665,-10.7743 7.4804,-21.4173 11.1549,-31.9554 l -0.8662,-30.971"
       style="fill:#d9e4fd;fill-opacity:1;fill-rule:nonzero;stroke:none;stroke-width:0.131233"
       id="path2490" />
    <g
       id="g2492"
       transform="matrix(0.13123348,0,0,0.13123348,-579.38169,-583.61219)">
      <g
         id="g2494"
         clip-path="url(#clipPath2498)">
        <path
           d="m 14557.2,6754.5 c -560.8,0 -1011.5,463 -995.7,1024.2 l 20.6,728.6 26.8,947.6 3.1,111.6 21.1,746.8 101.6,3599.4 6.6,236 202.9,7187 151.4,5363.5 c 20.2,719 600.5,1296 1319.6,1312.3 l 13035.3,295.3 c 11.8,0.3 23.6,0.4 35.4,0.4 154.1,0 303,-22.8 443.6,-65.3 589.1,-178.2 1031,-702.2 1083.7,-1340.5 2.5,-30.6 4.1,-61.5 4.8,-92.7 l 181.2,-7998.2 206.6,-9118 11.6,-510.4 14.4,-634.3 17.2,-759.4 c 11.9,-528.8 -412.2,-964.6 -941.1,-967 l -2229.2,-10 -12717,-56.9 c -1.5,0 -3,0 -4.5,0 m 883.1,20597.9 c -221.2,0 -405,-175.1 -411.8,-398.9 L 14449.7,7947.7 c -8,-260.6 195.8,-478.7 456.4,-488.2 1302.6,-47.5 5087.9,-173.7 8546.3,-173.7 2200.6,0 4268.5,51.1 5481.4,206 189.9,24.2 330.7,187.7 327.5,379.1 l -334.5,19941.5 c -4.1,246.7 -206.1,438.2 -444.3,438.2 -23.3,0 -46.9,-1.8 -70.7,-5.6 -1541.8,-244.8 -6351.6,-945.1 -10911.8,-945.1 -688.8,0 -1371.7,16 -2036.9,51.9 -7.6,0.4 -15.2,0.6 -22.8,0.6"
           style="fill:url(#linearGradient2504);fill-opacity:1;fill-rule:nonzero;stroke:none"
           id="path2506" />
      </g>
    </g>
    <g
       id="g2508"
       transform="matrix(0.13123348,0,0,0.13123348,-579.38169,-583.61219)">
      <g
         id="g2510"
         clip-path="url(#clipPath2514)">
        <path
           d="m 23452.4,7285.8 c -3458.4,0 -7243.7,126.2 -8546.3,173.7 -260.6,9.5 -464.4,227.6 -456.4,488.2 l 578.8,19005.8 c 6.8,223.8 190.6,398.9 411.8,398.9 7.6,0 15.2,-0.2 22.8,-0.6 665.2,-35.9 1348.1,-51.9 2036.9,-51.9 4560.2,0 9370,700.3 10911.8,945.1 23.8,3.8 47.4,5.6 70.7,5.6 238.2,0 440.2,-191.5 444.3,-438.2 l 334.5,-19941.5 c 3.2,-191.4 -137.6,-354.9 -327.5,-379.1 -1212.9,-154.9 -3280.8,-206 -5481.4,-206 m -7703.1,19603.5 c -212.9,0 -389.8,-168.6 -396.4,-383.9 l -557,-18290.2 c -7.6,-250.7 188.5,-460.6 439.2,-469.7 1253.6,-45.8 4896.4,-167.2 8224.6,-167.2 2117.7,0 4107.7,49.1 5275,198.2 182.7,23.3 318.2,180.6 315.1,364.8 l -321.9,19190.6 c -4,237.5 -198.4,421.7 -427.6,421.7 -22.4,0 -45.1,-1.7 -68,-5.4 -1483.7,-235.5 -6112.5,-909.4 -10500.9,-909.4 -662.8,0 -1320,15.3 -1960.3,49.9 -7.3,0.4 -14.6,0.6 -21.8,0.6"
           style="fill:url(#linearGradient2520);fill-opacity:1;fill-rule:nonzero;stroke:none"
           id="path2522" />
      </g>
    </g>
    <path
       d="m 3125.6411,3057.8805 c -224.1205,-35.5775 -995.0516,-147.3752 -1635.3266,-112.7952 -29.1994,1.5748 -53.9895,-21.0761 -54.8819,-50.3018 L 1362.3357,494.49703 c -0.9975,-32.90022 24.7375,-60.44613 57.6377,-61.64035 269.186,-9.82939 1377.6496,-46.23356 1771.5994,4.06823 23.9763,3.05775 41.7585,23.70076 41.3516,47.87398 l -42.244,2518.44911 c -0.5643,34.2126 -31.2466,59.9999 -65.0393,54.6325"
       style="fill:#91b3fa;fill-opacity:1;fill-rule:nonzero;stroke:none;stroke-width:0.131233"
       id="path2524" />
    <path
       d="m 2465.2612,2252.3956 c -29.0683,0 -56.4042,0.3151 -80.9843,1.0368 -18.9763,0.5643 -34.3044,15.5512 -35.3674,34.4882 -5.3806,96.3253 -18.7139,376.7057 0.5906,494.4877 3.1233,19.0289 19.0813,33.2808 38.3333,34.3831 l 562.1779,32.4279 c 0.6955,0.04 1.3649,0.053 2.0473,0.053 19.3569,0 35.1706,-15.9579 34.6981,-35.5773 l -12.231,-514.514 c -0.4068,-17.1129 -13.9107,-31.0236 -30.9973,-31.8897 -81.181,-4.1339 -309.0023,-14.8951 -478.2672,-14.8951"
       style="fill:#e7eefe;fill-opacity:1;fill-rule:nonzero;stroke:none;stroke-width:0.131233"
       id="path2526" />
    <g
       id="g2528"
       transform="matrix(0.13123348,0,0,0.13123348,-579.38169,-583.61219)">
      <g
         id="g2530"
         clip-path="url(#clipPath2534)">
        <path
           d="m 23896.9,24412.3 c 10.5,-465 396,-833.4 861,-822.8 464.9,10.5 833.4,396 822.8,861 -10.5,464.9 -396,833.4 -861,822.8 -465,-10.5 -833.4,-396 -822.8,-861"
           style="fill:url(#linearGradient2540);fill-opacity:1;fill-rule:nonzero;stroke:none"
           id="path2542" />
      </g>
    </g>
    <g
       id="g2544"
       transform="matrix(0.13123348,0,0,0.13123348,-579.38169,-583.61219)">
      <g
         id="g2546"
         clip-path="url(#clipPath2550)">
        <path
           d="m 26073.6,21988.5 -2682.3,-60.8 c -164.4,-3.7 -267.1,175.6 -181.6,316.2 219.7,361.7 684.5,896.2 1510.6,891.3 796.2,-4.8 1278.5,-467.2 1523.3,-801.1 103.9,-141.7 5.7,-341.6 -170,-345.6"
           style="fill:url(#linearGradient2556);fill-opacity:1;fill-rule:nonzero;stroke:none"
           id="path2558" />
      </g>
    </g>
    <path
       d="m 1577.7029,2737.0146 c -9.7112,0 -17.5459,7.4935 -17.4804,16.8504 0.066,9.4882 8.2153,17.5853 18.1234,17.979 l 620.7607,25.1443 c 0.2624,0 0.5117,0.013 0.7611,0.013 9.4357,0 14.6456,-7.244 11.6536,-16.4304 l -4.0159,-12.2834 c -3.0839,-9.4226 -13.7138,-17.3229 -23.6351,-17.5459 l -605.7343,-13.7271 c -0.1444,0 -0.2887,0 -0.4331,0"
       style="fill:#d3e1fd;fill-opacity:1;fill-rule:nonzero;stroke:none;stroke-width:0.131233"
       id="path2560" />
    <path
       d="m 1579.8814,2641.2011 c -9.7245,0 -17.546,7.4934 -17.4935,16.8504 0.066,9.4882 8.2284,17.5721 18.1365,17.9789 l 620.7474,25.1312 c 0.2626,0.013 0.5119,0.026 0.7744,0.026 9.4225,0 14.6456,-7.2441 11.6403,-16.4304 l -4.0157,-12.2835 c -3.084,-9.4226 -13.7139,-17.3228 -23.6221,-17.546 l -605.7474,-13.7269 c -0.1444,0 -0.2887,0 -0.4199,0"
       style="fill:#d3e1fd;fill-opacity:1;fill-rule:nonzero;stroke:none;stroke-width:0.131233"
       id="path2562" />
    <path
       d="m 1582.0729,2543.9834 c -9.7112,0 -17.5327,7.5064 -17.4802,16.8503 0.066,9.4882 8.2283,17.5853 18.1365,17.9921 l 620.7474,25.1312 c 0.2624,0.013 0.5118,0.013 0.7611,0.013 9.4357,0 14.6589,-7.2441 11.6536,-16.4173 l -4.0157,-12.2965 c -3.0841,-9.4227 -13.714,-17.3228 -23.6221,-17.546 l -605.7475,-13.7139 c -0.1443,-0.013 -0.2887,-0.013 -0.4331,-0.013"
       style="fill:#d3e1fd;fill-opacity:1;fill-rule:nonzero;stroke:none;stroke-width:0.131233"
       id="path2564" />
    <path
       d="m 1593.0835,2258.6292 c -21.0236,0 -38.399,16.6142 -39.3701,37.7821 -3.2809,72.1653 8.2414,140.6036 16.8241,180.0655 4.4095,20.3281 22.3228,34.8163 43.1103,34.9999 17.5065,0.1444 40.118,0.2888 64.1337,0.2888 43.2677,0 91.1023,-0.4593 121.7585,-2.1128 17.664,-0.945 31.0892,-16.2468 29.8424,-33.8977 l -12.0604,-170.656 c -1.5747,-22.2047 -19.6718,-39.6456 -41.9159,-40.3937 l -180.9841,-6.0498 c -0.4461,-0.013 -0.8923,-0.026 -1.3385,-0.026"
       style="fill:#d3e1fd;fill-opacity:1;fill-rule:nonzero;stroke:none;stroke-width:0.131233"
       id="path2566" />
    <path
       d="m 1911.7971,2425.5582 c -9.7113,0 -17.6509,7.4935 -17.7297,16.8373 -0.078,9.4882 7.9528,17.7296 17.8478,18.3071 l 288.4905,16.9554 c 0.3675,0.013 0.7218,0.026 1.0762,0.026 9.3175,0 15.6692,-7.3491 14.2387,-16.7979 l -1.6141,-10.7217 c -1.4829,-9.8032 -10.8006,-18.0052 -20.7217,-18.2414 l -281.1547,-6.3649 c -0.1444,0 -0.2886,0 -0.433,0"
       style="fill:#d3e1fd;fill-opacity:1;fill-rule:nonzero;stroke:none;stroke-width:0.131233"
       id="path2568" />
    <path
       d="m 2195.2614,2319.3904 c -0.079,0 -0.1707,0 -0.2625,0 l -281.2071,3.9107 c -9.9081,0.1444 -17.7953,8.0053 -17.5327,17.4935 0.2755,9.4881 8.5957,17.4277 18.517,17.6377 l 288.9105,6.391 c 0.1443,0 0.2756,0 0.4068,0 9.6981,0 16.0892,-7.7033 14.2782,-17.3097 l -2.0079,-10.6561 c -1.811,-9.6587 -11.273,-17.4671 -21.1023,-17.4671"
       style="fill:#d3e1fd;fill-opacity:1;fill-rule:nonzero;stroke:none;stroke-width:0.131233"
       id="path2570" />
    <path
       d="m 1532.7685,2073.8263 c -9.7112,0 -17.244,7.5066 -16.8372,16.8635 0.4068,9.5013 8.8451,17.5196 18.7663,17.8215 l 1449.172,44.265 c 0.2362,0.013 0.4593,0.013 0.6824,0.013 9.37,0 12.2834,-6.1023 6.4304,-13.8188 l -13.9239,-18.3203 c -5.9973,-7.8871 -19.0157,-14.5275 -28.9239,-14.7506 l -1414.933,-32.0603 c -0.1444,0 -0.2887,-0.013 -0.4331,-0.013"
       style="fill:#d3e1fd;fill-opacity:1;fill-rule:nonzero;stroke:none;stroke-width:0.131233"
       id="path2572" />
    <path
       d="m 1534.947,1978.0127 c -9.7113,0 -17.2571,7.5066 -16.8503,16.8635 0.4068,9.5013 8.8582,17.5197 18.7663,17.8215 l 1449.1719,44.2651 c 0.2363,0 0.4593,0.013 0.6956,0.013 9.37,0 12.2834,-6.1024 6.4173,-13.8189 l -13.9108,-18.3202 c -6.0104,-7.8871 -19.0288,-14.5407 -28.937,-14.7637 l -1414.933,-32.0473 c -0.1444,-0.013 -0.2757,-0.013 -0.42,-0.013"
       style="fill:#d3e1fd;fill-opacity:1;fill-rule:nonzero;stroke:none;stroke-width:0.131233"
       id="path2574" />
    <path
       d="m 2843.3973,1713.7348 c -15.3544,0 -28.0577,12.139 -28.7532,27.5852 -2.4017,52.7165 6.0104,102.7034 12.2834,131.5222 3.2152,14.8294 16.2991,25.4199 31.4828,25.5512 12.7822,0.1054 29.2914,0.2099 46.8242,0.2099 31.6141,0 66.5485,-0.328 88.9369,-1.5354 12.9002,-0.6956 22.7034,-11.8766 21.7848,-24.7637 l -8.7927,-124.6325 c -1.1548,-16.2204 -14.3701,-28.9501 -30.6167,-29.5013 l -132.1785,-4.4094 c -0.328,-0.013 -0.6429,-0.026 -0.971,-0.026"
       style="fill:#adc6fb;fill-opacity:1;fill-rule:nonzero;stroke:none;stroke-width:0.131233"
       id="path2576" />
    <path
       d="m 2419.5394,1772.8029 c -9.7244,0 -17.7034,7.8477 -17.7953,17.6247 l -0.1054,9.4619 c -0.091,9.9213 7.9134,18.5565 17.8084,19.1863 l 333.4117,21.5092 c 0.3938,0.026 0.7875,0.04 1.1681,0.04 9.2781,0 15.761,-7.3096 14.5537,-16.7586 l -3.2283,-25.3936 c -1.2468,-9.8425 -10.3806,-18.0708 -20.2888,-18.2939 l -325.1177,-7.3754 c -0.1312,0 -0.2756,0 -0.4068,0"
       style="fill:#d3e1fd;fill-opacity:1;fill-rule:nonzero;stroke:none;stroke-width:0.131233"
       id="path2578" />
    <path
       d="m 2123.188,1697.4224 c -15.3544,0 -28.0578,12.126 -28.7533,27.5852 -2.4015,52.7035 6.0105,102.6903 12.2703,131.5091 3.2284,14.8425 16.3123,25.42 31.496,25.5643 12.7821,0.1055 29.2782,0.21 46.8111,0.21 31.6141,0 66.5484,-0.3281 88.95,-1.5486 12.9003,-0.6824 22.7034,-11.8635 21.7847,-24.7505 l -8.8058,-124.6325 c -1.1417,-16.2205 -14.3569,-28.9633 -30.6167,-29.5013 l -132.1652,-4.4226 c -0.3281,-0.013 -0.6562,-0.013 -0.9711,-0.013"
       style="fill:#adc6fb;fill-opacity:1;fill-rule:nonzero;stroke:none;stroke-width:0.131233"
       id="path2580" />
    <path
       d="m 1699.3301,1756.4906 c -9.7376,0 -17.7034,7.8346 -17.8084,17.6246 l -0.091,9.462 c -0.1054,9.9081 7.9134,18.5433 17.8084,19.1864 l 333.4118,21.5091 c 0.3937,0.026 0.7874,0.04 1.168,0.04 9.2782,0 15.748,-7.3228 14.5538,-16.7585 l -3.2284,-25.4068 c -1.2467,-9.8294 -10.3805,-18.0708 -20.3017,-18.294 l -325.1048,-7.3622 c -0.1443,0 -0.2756,0 -0.4068,0"
       style="fill:#d3e1fd;fill-opacity:1;fill-rule:nonzero;stroke:none;stroke-width:0.131233"
       id="path2582" />
    <path
       d="m 1624.737,1435.3754 c -9.7114,0 -17.2703,7.4934 -16.8766,16.8636 0.3937,9.4881 8.8188,17.5065 18.7269,17.8214 l 1407.5972,43.307 c 0.2231,0.013 0.4592,0.013 0.6824,0.013 9.37,0 12.3753,-6.168 6.6273,-13.9633 l -13.294,-17.992 c -5.8793,-7.9791 -18.8188,-14.6851 -28.727,-14.9082 l -1374.3163,-31.1418 c -0.1312,0 -0.2756,0 -0.4199,0"
       style="fill:#d3e1fd;fill-opacity:1;fill-rule:nonzero;stroke:none;stroke-width:0.131233"
       id="path2584" />
    <path
       d="m 1626.9024,1339.5487 c -9.7114,0 -17.2704,7.5066 -16.8767,16.8635 0.3937,9.5013 8.832,17.5197 18.7401,17.8215 l 1407.584,43.3202 c 0.2363,0 0.4593,0.013 0.6825,0.013 9.3832,0 12.3884,-6.1811 6.6273,-13.9632 l -13.2809,-17.9922 c -5.8924,-7.9789 -18.8188,-14.6981 -28.7401,-14.9211 l -1374.3032,-31.1287 c -0.1444,-0.013 -0.2888,-0.013 -0.433,-0.013"
       style="fill:#d3e1fd;fill-opacity:1;fill-rule:nonzero;stroke:none;stroke-width:0.131233"
       id="path2586" />
    <path
       d="m 1629.107,1242.3441 c -9.7112,0 -17.2703,7.5066 -16.8766,16.8635 0.3937,9.5013 8.8189,17.5197 18.7402,17.8215 l 1407.584,43.3071 c 0.2361,0.013 0.4593,0.013 0.6823,0.013 9.3833,0 12.3754,-6.168 6.6273,-13.9632 l -13.2808,-17.9922 c -5.8923,-7.9789 -18.832,-14.685 -28.7401,-14.9081 L 1629.5401,1242.344 c -0.1443,0 -0.2887,0 -0.4331,0"
       style="fill:#d3e1fd;fill-opacity:1;fill-rule:nonzero;stroke:none;stroke-width:0.131233"
       id="path2588" />
    <g
       id="g2590"
       transform="matrix(0.13123348,0,0,0.13123348,-579.38169,-583.61219)">
      <g
         id="g2592"
         clip-path="url(#clipPath2596)">
        <path
           d="m 21364.1,29998.3 c -4.6,203.7 156.7,372.5 360.4,377.1 203.7,4.7 372.5,-156.7 377.1,-360.4 4.7,-203.7 -156.7,-372.5 -360.4,-377.1 -203.7,-4.6 -372.5,156.7 -377.1,360.4 z m -282.6,-1137.5 1476.1,164.7 93.5,1359.5 c 18.8,273.5 -157.3,523.5 -422,595.1 -290.1,78.5 -699.7,75.7 -1163.1,-262.5 -908.9,-663.3 15.5,-1856.8 15.5,-1856.8"
           style="fill:url(#linearGradient2602);fill-opacity:1;fill-rule:nonzero;stroke:none"
           id="path2604" />
      </g>
    </g>
    <path
       d="m 2363.2402,3355.6492 c -2.5852,0.1838 -4.5276,2.4147 -4.3569,5 l 1.496,21.5617 c 2.0473,29.7507 -17.2441,56.9685 -45.8791,64.7112 -21.8111,5.9055 -44.1733,6.3123 -66.4567,1.2205 -2.546,-0.5643 -5.0394,1.0104 -5.6169,3.517 -0.5773,2.5328 0.9975,5.0394 3.5171,5.6169 23.7926,5.4461 47.6903,5.013 71.0105,-1.2993 32.9265,-8.9239 55.1181,-40.21 52.7689,-74.4094 l -1.4829,-21.5616 c -0.1705,-2.4409 -2.1785,-4.3176 -4.5669,-4.3701 -0.1443,0 -0.2887,0 -0.4331,0.013 z m -3.8319,-55.6824 c -2.5854,0.1838 -4.5276,2.4148 -4.3571,5 l 1.9554,28.4121 c 0.1838,2.5853 2.3623,4.5407 5,4.357 2.5853,-0.1838 4.5276,-2.4147 4.357,-5 l -1.9554,-28.4121 c -0.1706,-2.4409 -2.1784,-4.3045 -4.567,-4.357 -0.1443,-0.013 -0.2887,-0.013 -0.4329,0"
       style="fill:#91b3fa;fill-opacity:1;fill-rule:nonzero;stroke:none;stroke-width:0.131233"
       id="path2606" />
    <g
       id="g2608"
       transform="matrix(0.13123348,0,0,0.13123348,-579.38169,-583.61219)">
      <g
         id="g2610"
         clip-path="url(#clipPath2614)">
        <path
           d="m 24596,28194.5 -15.4,682.1 c -5.4,235.5 -204.8,419.6 -439.9,406.2 l -4699,-267.6 c -208.5,-11.9 -373.8,-180.5 -381.6,-389.2 l -24.4,-656.3 5560.3,224.8"
           style="fill:url(#linearGradient2620);fill-opacity:1;fill-rule:nonzero;stroke:none"
           id="path2622" />
      </g>
    </g>
    <path
       d="m 2415.8255,3221.6074 26.5354,0.6036 c 2.5853,0.066 4.6325,2.2048 4.58,4.7901 -0.066,2.5984 -2.2047,4.6456 -4.79,4.58 l -26.5354,-0.6037 c -2.5985,-0.053 -4.6457,-2.2047 -4.5801,-4.7899 0.053,-2.5854 2.2048,-4.6326 4.7901,-4.5801"
       style="fill:#91b3fa;fill-opacity:1;fill-rule:nonzero;stroke:none;stroke-width:0.131233"
       id="path2624" />
    <path
       d="m 2614.3949,3143.7991 c 2.5852,0.066 4.6456,2.2046 4.5799,4.79 l -0.8136,36.2204 c -0.643,27.979 -23.9238,50.223 -51.8897,49.58 l -97.5852,-2.2047 c -2.5852,-0.066 -4.6325,-2.2048 -4.5669,-4.79 0.053,-2.5853 2.2047,-4.6326 4.79,-4.5801 l 97.5721,2.2178 c 22.8084,0.5119 41.7847,-17.6246 42.3097,-40.4329 l 0.8136,-36.2206 c 0.066,-2.5852 2.2048,-4.6324 4.7901,-4.5799"
       style="fill:#91b3fa;fill-opacity:1;fill-rule:nonzero;stroke:none;stroke-width:0.131233"
       id="path2626" />
    <g
       id="g2628"
       transform="matrix(0.13123348,0,0,0.13123348,-579.38169,-583.61219)">
      <g
         id="g2630"
         clip-path="url(#clipPath2634)">
        <path
           d="m 26063.8,28477.6 -8223.3,-186.1 c -295.7,-6.7 -543.7,-225.2 -587.5,-517.7 l -6.1,-40.4 c -48,-320.4 204.3,-606.7 528.2,-599.4 l 8436.7,191.2 c 193.8,4.4 344.6,169.9 330.9,363.3 l -26.7,377.2 c -16.7,235.9 -215.7,417.2 -452.2,411.9"
           style="fill:url(#linearGradient2640);fill-opacity:1;fill-rule:nonzero;stroke:none"
           id="path2642" />
      </g>
    </g>
    <g
       id="g2644"
       transform="matrix(0.13123348,0,0,0.13123348,-579.38169,-583.61219)">
      <g
         id="g2646"
         clip-path="url(#clipPath2650)">
        <path
           d="m 19472.1,12019 -1095.9,2661.4 c -21.2,51.5 -71.3,85.1 -127,85.1 h -674 c -100.1,0 -166.5,-103.6 -124.8,-194.6 L 18721,11798.6 c 27,-58.9 91.5,-90.9 154.7,-76.9 l 499.2,110.9 c 83.2,18.5 129.7,107.6 97.2,186.4"
           style="fill:url(#linearGradient2656);fill-opacity:1;fill-rule:nonzero;stroke:none"
           id="path2658" />
      </g>
    </g>
    <g
       id="g2660"
       transform="matrix(0.13123348,0,0,0.13123348,-579.38169,-583.61219)">
      <g
         id="g2662"
         clip-path="url(#clipPath2666)">
        <path
           d="m 21158.6,5392.7 h -322.7 v 3490 h 322.7 v -3490"
           style="fill:url(#linearGradient2672);fill-opacity:1;fill-rule:nonzero;stroke:none"
           id="path2674" />
      </g>
    </g>
    <g
       id="g2676"
       transform="matrix(0.13123348,0,0,0.13123348,-579.38169,-583.61219)">
      <g
         id="g2678"
         clip-path="url(#clipPath2682)">
        <path
           d="m 22410.5,5325.4 h -2826.6 v 176.3 c 0,18.7 15.2,33.8 33.8,33.8 h 2759.1 c 18.6,0 33.7,-15.1 33.7,-33.8 v -176.3"
           style="fill:url(#linearGradient2688);fill-opacity:1;fill-rule:nonzero;stroke:none"
           id="path2690" />
      </g>
    </g>
    <g
       id="g2692"
       transform="matrix(0.13123348,0,0,0.13123348,-579.38169,-583.61219)">
      <g
         id="g2694"
         clip-path="url(#clipPath2698)">
        <path
           d="m 22830,9003.9 c 0,-190.9 -156.1,-347.1 -347,-347.1 h -2859.8 c -190.9,0 -347,156.2 -347,347.1 v 313.8 c 0,190.9 156.1,347 347,347 H 22483 c 190.9,0 347,-156.1 347,-347 v -313.8"
           style="fill:url(#linearGradient2704);fill-opacity:1;fill-rule:nonzero;stroke:none"
           id="path2706" />
      </g>
    </g>
    <g
       id="g2708"
       transform="matrix(0.13123348,0,0,0.13123348,-579.38169,-583.61219)">
      <g
         id="g2710"
         clip-path="url(#clipPath2714)">
        <path
           d="m 18614.7,11209.8 c 0,0 -479.5,-74.3 -1018.7,-434.8 -84.8,-56.7 -131.4,-155.6 -118.6,-256.8 64.6,-511.4 330,-2166.7 1205.4,-3783.3 46.1,-85.3 59.4,-184.5 39,-279.3 l -152.1,-707.7 -282,-264.5 h 726.4 l 483.7,1308.9 -206.8,65.4 c -160.4,50.7 -270.4,198.2 -273.3,366.4 l -24.3,1404.1 c 20.7,625.5 -383.5,1057.1 -383.5,1057.1 l 1160.1,56.4 -1155.3,1468.1"
           style="fill:url(#linearGradient2720);fill-opacity:1;fill-rule:nonzero;stroke:none"
           id="path2722" />
      </g>
    </g>
    <g
       id="g2724"
       transform="matrix(0.13123348,0,0,0.13123348,-579.38169,-583.61219)">
      <g
         id="g2726"
         clip-path="url(#clipPath2730)">
        <path
           d="m 18004.1,5355.8 c -66.2,-86.6 712,-200.9 1105.2,-11.5 0,0 545,948.2 545,1436.4 0,0 -43.3,99.6 -363.3,77 0,0 -183,-1122.7 -376.2,-1248.5 -193.3,-125.8 -540.6,-12.7 -540.6,-12.7 0,0 -272.5,-113 -370.1,-240.7"
           style="fill:url(#linearGradient2736);fill-opacity:1;fill-rule:nonzero;stroke:none"
           id="path2738" />
      </g>
    </g>
    <g
       id="g2740"
       transform="matrix(0.13123348,0,0,0.13123348,-579.38169,-583.61219)">
      <g
         id="g2742"
         clip-path="url(#clipPath2746)">
        <path
           d="m 19623.2,9664.7 c -6.2,10.7 -1249,149.5 -1249,149.5 0,0 40.6,-377.9 -86.5,-898.1 C 18160.6,8395.9 16335.8,6142 16335.8,6142 l 191.3,-606.5 c -591.6,-206.1 -1173.5,-239 -1746.1,-105.1 l 1185.8,711.6 c 0,0 1109.7,3781.9 1789.5,4456.5 l 1245.8,431.1 621.1,-1364.9"
           style="fill:url(#linearGradient2752);fill-opacity:1;fill-rule:nonzero;stroke:none"
           id="path2754" />
      </g>
    </g>
    <g
       id="g2756"
       transform="matrix(0.13123348,0,0,0.13123348,-579.38169,-583.61219)">
      <g
         id="g2758"
         clip-path="url(#clipPath2762)">
        <path
           d="m 22410.5,11865.3 c 0,0 716.1,-1065.1 774.9,-1551 58.7,-485.8 -196.2,-683.2 -947.5,-715.8 -751.4,-32.5 -2757.2,-32 -2757.2,-32 l -1711.9,1463.1 c 0,0 1247.6,445.1 1571.9,571 324.4,125.9 3069.8,264.7 3069.8,264.7"
           style="fill:url(#linearGradient2768);fill-opacity:1;fill-rule:nonzero;stroke:none"
           id="path2770" />
      </g>
    </g>
    <g
       id="g2772"
       transform="matrix(0.13123348,0,0,0.13123348,-579.38169,-583.61219)">
      <g
         id="g2774"
         clip-path="url(#clipPath2778)">
        <path
           d="m 16454.8,5739.7 c 0,0 206,-199.5 66.9,-421.5 0,0 -1631.9,-289.2 -2074.9,-158 0,0 92,210 590.9,449 l -36.8,-28.3 c -46.6,-35.7 -19.3,-110.2 39.3,-106.9 328.8,18.8 1009.1,79 1414.6,265.7"
           style="fill:url(#linearGradient2784);fill-opacity:1;fill-rule:nonzero;stroke:none"
           id="path2786" />
      </g>
    </g>
    <g
       id="g2788"
       transform="matrix(0.13123348,0,0,0.13123348,-579.38169,-583.61219)">
      <g
         id="g2790"
         clip-path="url(#clipPath2794)">
        <path
           d="m 20474,12006.2 c 0,0 -833.9,794.1 -1244.4,1320 -221.8,284.3 -291.5,658.5 -188.9,1004.2 187.4,631.4 520.4,1285.3 550.8,1387.1 46.6,156 981.5,149.5 981.5,149.5 0,0 1839.9,-1194.1 2562.8,-3216.8 l -811.8,-252.8 c 0,0 -480.4,806 -955.1,1318.4 0,0 821.3,-1085 850.3,-1529.2 L 20474,12006.2"
           style="fill:url(#linearGradient2800);fill-opacity:1;fill-rule:nonzero;stroke:none"
           id="path2802" />
      </g>
    </g>
    <g
       id="g2804"
       transform="matrix(0.13123348,0,0,0.13123348,-579.38169,-583.61219)">
      <g
         id="g2806"
         clip-path="url(#clipPath2810)">
        <path
           d="m 19478.4,16589.3 c 9.8,-32.4 253.8,-841.4 272.9,-858.2 19.1,-16.8 535.2,-44.6 778.1,121.5 l -412.1,862.7 -638.9,-126"
           style="fill:url(#linearGradient2816);fill-opacity:1;fill-rule:nonzero;stroke:none"
           id="path2818" />
      </g>
    </g>
    <g
       id="g2820"
       transform="matrix(0.13123348,0,0,0.13123348,-579.38169,-583.61219)">
      <g
         id="g2822"
         clip-path="url(#clipPath2826)">
        <path
           d="m 19176.9,17776.2 c 0,0 -289.4,-316.3 -295.4,-947 -6,-630.7 286.1,-786.5 530.2,-714.3 244,72.1 584,234.3 792.4,735.5 208.4,501.3 -643.1,1319.5 -1027.2,925.8"
           style="fill:url(#linearGradient2832);fill-opacity:1;fill-rule:nonzero;stroke:none"
           id="path2834" />
      </g>
    </g>
    <g
       id="g2836"
       transform="matrix(0.13123348,0,0,0.13123348,-579.38169,-583.61219)">
      <g
         id="g2838"
         clip-path="url(#clipPath2842)">
        <path
           d="m 19833.6,17015.6 c 0,0 -77.5,883.1 -754.4,583.3 l -107.5,-183.3 c 0,0 -439.9,307.5 -126.9,694.2 313,386.8 999.6,485.5 1422.5,18.7 422.9,-466.7 483.8,-865.5 316.8,-1258.3 -167,-392.8 -421.1,-150.9 -421.1,-150.9 0,0 44.1,315.9 -79.5,417.4 -123.6,101.5 -197.8,-123.5 -197.8,-123.5 l -52.1,2.4"
           style="fill:url(#linearGradient2848);fill-opacity:1;fill-rule:nonzero;stroke:none"
           id="path2850" />
      </g>
    </g>
    <g
       id="g2852"
       transform="matrix(0.13123348,0,0,0.13123348,-579.38169,-583.61219)">
      <g
         id="g2854"
         clip-path="url(#clipPath2858)">
        <path
           d="m 19947.8,16965.7 c 0,0 -42.4,453.7 211.7,381.9 254,-71.8 17.2,-429.2 -81.9,-555.2 l -129.8,173.3"
           style="fill:url(#linearGradient2864);fill-opacity:1;fill-rule:nonzero;stroke:none"
           id="path2866" />
      </g>
    </g>
    <g
       id="g2868"
       transform="matrix(0.13123348,0,0,0.13123348,-579.38169,-583.61219)">
      <g
         id="g2870"
         clip-path="url(#clipPath2874)">
        <path
           d="m 18775.2,11947.3 612.6,590.5 847.6,-358 c 0,0 843.6,-130.7 1326.5,0 482.8,130.7 482.8,130.7 482.8,130.7 l 1091.1,339.7 171.4,-484.3 c 43.5,-123 -0.2,-259.5 -106.6,-335.1 -94.3,-67 -205,-140.8 -275.5,-171.6 -143.7,-62.9 -3542.2,43.5 -3542.2,43.5 l -607.7,244.6"
           style="fill:url(#linearGradient2880);fill-opacity:1;fill-rule:nonzero;stroke:none"
           id="path2882" />
      </g>
    </g>
    <g
       id="g2884"
       transform="matrix(0.13123348,0,0,0.13123348,-579.38169,-583.61219)">
      <g
         id="g2886"
         clip-path="url(#clipPath2890)">
        <path
           d="m 20253.8,18018.8 c -127.1,48.7 -139.3,223.7 -25.9,298.9 366.2,242.5 996.3,455.7 1636.4,-272.7 721,-820.4 1124.4,-1210.9 1352.8,-1207.2 149.9,2.5 237.5,-167.1 138.7,-280 -72.9,-83.5 -197.9,-158.5 -405.3,-203.5 -1600.1,-347.3 -1951.4,1379 -2696.7,1664.5"
           style="fill:url(#linearGradient2896);fill-opacity:1;fill-rule:nonzero;stroke:none"
           id="path2898" />
      </g>
    </g>
    <g
       id="g2900"
       transform="matrix(0.13123348,0,0,0.13123348,-579.38169,-583.61219)">
      <g
         id="g2902"
         clip-path="url(#clipPath2906)">
        <path
           d="m 9204.49,5135.8 c -17.16,0 -34.59,3.3 -51.36,10.2 -66.03,27 -96.53,99.9 -68.13,162.8 l 2729.5,6041.9 c 28.4,62.8 104.9,91.8 171,64.8 66.1,-27 96.6,-99.9 68.2,-162.8 L 9324.11,5210.8 c -21.18,-46.9 -69.18,-75 -119.62,-75"
           style="fill:url(#linearGradient2912);fill-opacity:1;fill-rule:nonzero;stroke:none"
           id="path2914" />
      </g>
    </g>
    <g
       id="g2916"
       transform="matrix(0.13123348,0,0,0.13123348,-579.38169,-583.61219)">
      <g
         id="g2918"
         clip-path="url(#clipPath2922)">
        <path
           d="m 12279.4,5135.8 c -50.4,0 -98.4,28.1 -119.6,75 l -2729.52,6041.9 c -28.4,62.9 2.1,135.8 68.12,162.8 65.98,27.1 142.56,-1.9 170.99,-64.8 L 12398.9,5308.8 c 28.4,-62.9 -2.1,-135.8 -68.1,-162.8 -16.7,-6.9 -34.2,-10.2 -51.4,-10.2"
           style="fill:url(#linearGradient2928);fill-opacity:1;fill-rule:nonzero;stroke:none"
           id="path2930" />
      </g>
    </g>
    <g
       id="g2932"
       transform="matrix(0.13123348,0,0,0.13123348,-579.38169,-583.61219)">
      <g
         id="g2934"
         clip-path="url(#clipPath2938)">
        <path
           d="m 20433.9,5135.8 c -17.1,0 -34.6,3.3 -51.3,10.2 -66.1,27 -96.6,99.9 -68.2,162.8 l 2729.6,6041.9 c 28.4,62.8 104.9,91.8 171,64.8 66,-27 96.5,-99.9 68.1,-162.8 L 20553.6,5210.8 c -21.2,-46.9 -69.2,-75 -119.7,-75"
           style="fill:url(#linearGradient2944);fill-opacity:1;fill-rule:nonzero;stroke:none"
           id="path2946" />
      </g>
    </g>
    <g
       id="g2948"
       transform="matrix(0.13123348,0,0,0.13123348,-579.38169,-583.61219)">
      <g
         id="g2950"
         clip-path="url(#clipPath2954)">
        <path
           d="m 23508.9,5135.8 c -50.5,0 -98.5,28.1 -119.7,75 l -2729.5,6041.9 c -28.4,62.9 2.1,135.8 68.1,162.8 66,27.1 142.6,-1.9 171,-64.8 l 2729.5,-6041.9 c 28.5,-62.9 -2,-135.8 -68.1,-162.8 -16.7,-6.9 -34.2,-10.2 -51.3,-10.2"
           style="fill:url(#linearGradient2960);fill-opacity:1;fill-rule:nonzero;stroke:none"
           id="path2962" />
      </g>
    </g>
    <g
       id="g2964"
       transform="matrix(0.13123348,0,0,0.13123348,-579.38169,-583.61219)">
      <g
         id="g2966"
         clip-path="url(#clipPath2970)">
        <path
           d="m 24382.4,11539.1 c 8.8,40.3 -3.2,81.9 -33,113.6 -29.8,31.7 -74.1,50 -120.9,50 H 8384.79 c -61.51,0 -118.77,-27.5 -151.91,-73 -33.14,-45.5 -37.58,-102.6 -11.79,-151.6 l 171.69,-326.1 c 39.32,-74.6 124.51,-122.4 218.25,-122.4 H 24119.8 c 87.2,0 162.2,54.2 178.7,129.3 l 83.9,380.2"
           style="fill:url(#linearGradient2976);fill-opacity:1;fill-rule:nonzero;stroke:none"
           id="path2978" />
      </g>
    </g>
    <path
       d="M 260.97843,654.14256 C 248.41676,635.5599 198.49292,214.70727 190.67927,59.274353 c -0.53018,-10.511802 7.87795,-19.278198 18.40288,-19.278198 9.0761,0 16.7992,6.614168 18.19946,15.590537 l 91.31487,585.170048 -57.61805,13.38582"
       style="fill:#91b3fa;fill-opacity:1;fill-rule:nonzero;stroke:none;stroke-width:0.131233"
       id="path2980" />
    <path
       d="m 662.37045,654.14256 c 12.56166,-18.58266 62.4855,-439.43529 70.29914,-594.868207 0.53283,-10.511802 -7.87925,-19.278198 -18.40418,-19.278198 -9.07611,0 -16.7992,6.614168 -18.19814,15.590537 l -91.31489,585.170048 57.61807,13.38582"
       style="fill:#91b3fa;fill-opacity:1;fill-rule:nonzero;stroke:none;stroke-width:0.131233"
       id="path2982" />
    <path
       d="m 185.4575,686.9903 -0.0433,-4.59318 c -0.30051,-33.01833 28.14302,-60.0918 63.75717,-60.69547 l 422.07834,-7.1916 c 35.10102,-0.59056 64.36741,24.77688 66.06033,57.28341 l 0.2231,4.19948 c 1.77165,33.8976 -27.00918,62.45396 -63.61675,63.11013 l -422.25553,7.57217 c -36.14039,0.64305 -65.89757,-26.18103 -66.20335,-59.68494"
       style="fill:#91b3fa;fill-opacity:1;fill-rule:nonzero;stroke:none;stroke-width:0.131233"
       id="path2984" />
    <g
       id="g2986"
       transform="matrix(0.13123348,0,0,0.13123348,-579.38169,-583.61219)">
      <g
         id="g2988"
         clip-path="url(#clipPath2992)">
        <path
           d="m 11275.1,5413.7 c -510.8,0 -736.8,43.8 -837.9,83.8 19.7,-83.9 94.4,-150.1 188.8,-150.1 h 1807.1 c 60.9,0 99.3,58.2 84.7,111 -206,-16.6 -643.5,-44.7 -1242.7,-44.7"
           style="fill:url(#linearGradient2998);fill-opacity:1;fill-rule:nonzero;stroke:none"
           id="path3000" />
      </g>
    </g>
    <g
       id="g3002"
       transform="matrix(0.13123348,0,0,0.13123348,-579.38169,-583.61219)">
      <g
         id="g3004"
         clip-path="url(#clipPath3008)">
        <path
           d="m 12517.8,5458.4 c -2.9,10.6 -7.2,21.1 -14.8,30.7 -137.6,175.8 -414.1,451.8 -790.3,446.5 -551,-7.8 -743.2,-67.6 -1171.4,-3.4 l -101,-334.8 c -10.3,-34.2 -10.5,-68.2 -3.1,-99.9 101.1,-40 327.1,-83.8 837.9,-83.8 599.2,0 1036.7,28.1 1242.7,44.7"
           style="fill:url(#linearGradient3014);fill-opacity:1;fill-rule:nonzero;stroke:none"
           id="path3016" />
      </g>
    </g>
    <g
       id="g3018"
       transform="matrix(0.13123348,0,0,0.13123348,-579.38169,-583.61219)">
      <g
         id="g3020"
         clip-path="url(#clipPath3024)">
        <path
           d="m 10665.3,6293.1 -124,-421.8 c 0,0 274.7,-125 516.4,-24.6 l 47.4,365.3 -439.8,81.1"
           style="fill:url(#linearGradient3030);fill-opacity:1;fill-rule:nonzero;stroke:none"
           id="path3032" />
      </g>
    </g>
    <g
       id="g3034"
       transform="matrix(0.13123348,0,0,0.13123348,-579.38169,-583.61219)">
      <g
         id="g3036"
         clip-path="url(#clipPath3040)">
        <path
           d="m 14410.8,5679.3 c -398.2,-320 -601.7,-427.5 -705.4,-459.8 67.6,-52.8 167.1,-57.4 240.7,1.8 l 1408.7,1131.8 c 47.5,38.2 41.1,107.4 -3.1,139.2 -150.3,-141.9 -473.8,-437.7 -940.9,-813"
           style="fill:url(#linearGradient3046);fill-opacity:1;fill-rule:nonzero;stroke:none"
           id="path3048" />
      </g>
    </g>
    <g
       id="g3050"
       transform="matrix(0.13123348,0,0,0.13123348,-579.38169,-583.61219)">
      <g
         id="g3052"
         clip-path="url(#clipPath3056)">
        <path
           d="m 15351.7,6492.3 c -8.9,6.4 -18.8,11.9 -30.7,14.6 -216.9,50.2 -604.5,91.1 -894.4,-148.6 -424.8,-351.2 -537.3,-517.9 -911.1,-736.3 l 130,-323.1 c 13.3,-32.9 34.4,-59.5 59.9,-79.4 103.7,32.3 307.2,139.8 705.4,459.8 467.1,375.3 790.6,671.1 940.9,813"
           style="fill:url(#linearGradient3062);fill-opacity:1;fill-rule:nonzero;stroke:none"
           id="path3064" />
      </g>
    </g>
    <g
       id="g3066"
       transform="matrix(0.13123348,0,0,0.13123348,-579.38169,-583.61219)">
      <g
         id="g3068"
         clip-path="url(#clipPath3072)">
        <path
           d="m 8012.67,11098.1 c 0,0 3058.23,-249.8 3685.63,-545.1 627.4,-295.3 -512,-4434.7 -512,-4434.7 0,0 -170.8,-82.2 -550.8,36 0,0 389.7,3054.6 99.7,3717 l -3311.3,541.6 588.77,685.2"
           style="fill:url(#linearGradient3078);fill-opacity:1;fill-rule:nonzero;stroke:none"
           id="path3080" />
      </g>
    </g>
    <g
       id="g3082"
       transform="matrix(0.13123348,0,0,0.13123348,-579.38169,-583.61219)">
      <g
         id="g3084"
         clip-path="url(#clipPath3088)">
        <path
           d="m 13211.6,6203.4 c 28.4,-25.9 303.9,-581.4 303.9,-581.4 0,0 306.7,66.3 369.2,260.4 l -275.9,501.4 -397.2,-180.4"
           style="fill:url(#linearGradient3094);fill-opacity:1;fill-rule:nonzero;stroke:none"
           id="path3096" />
      </g>
    </g>
    <g
       id="g3098"
       transform="matrix(0.13123348,0,0,0.13123348,-579.38169,-583.61219)">
      <g
         id="g3100"
         clip-path="url(#clipPath3104)">
        <path
           d="m 6170.7,11123.6 c 0,0 -99.66,-239.8 -95.59,-558.5 5.62,-440.7 359.94,-798.3 800.14,-820.3 l 3615.35,-164.9 c 76.4,-3.5 141,-56.3 160.1,-130.3 84.9,-328.6 500.2,-1337.7 2530.1,-3351.4 54,-53.6 138.2,-62.7 202.5,-22 l 288.9,182.5 c 30.4,19.2 40.1,58.9 21.9,89.9 l -2105,3594.7 c -110.6,182.4 -288.3,314.2 -495,367.1 l -3081.43,787.7 -1841.97,25.5"
           style="fill:url(#linearGradient3110);fill-opacity:1;fill-rule:nonzero;stroke:none"
           id="path3112" />
      </g>
    </g>
    <g
       id="g3114"
       transform="matrix(0.13123348,0,0,0.13123348,-579.38169,-583.61219)">
      <g
         id="g3116"
         clip-path="url(#clipPath3120)">
        <path
           d="m 6160.94,11134.2 c 0,0 -35.84,1791.9 322.38,3478.3 132.28,622.7 476.55,1180.3 976.61,1574.3 l 167.3,131.8 837.88,-340.4 430.59,-744 c 237.04,-474.1 178.83,-1503.7 0,-2002.6 -299.02,-834.3 -538.15,-1698.9 -640.07,-2123.6 0,0 -1387.73,-183.3 -2094.69,26.2"
           style="fill:url(#linearGradient3126);fill-opacity:1;fill-rule:nonzero;stroke:none"
           id="path3128" />
      </g>
    </g>
    <g
       id="g3130"
       transform="matrix(0.13123348,0,0,0.13123348,-579.38169,-583.61219)">
      <g
         id="g3132"
         clip-path="url(#clipPath3136)">
        <path
           d="m 8203.27,17654 -654.59,-1518.7 c 0,0 209.46,-471.3 942.61,-288 l 261.84,1047.3 -549.86,759.4"
           style="fill:url(#linearGradient3142);fill-opacity:1;fill-rule:nonzero;stroke:none"
           id="path3144" />
      </g>
    </g>
    <g
       id="g3146"
       transform="matrix(0.13123348,0,0,0.13123348,-579.38169,-583.61219)">
      <g
         id="g3148"
         clip-path="url(#clipPath3152)">
        <path
           d="m 9500.51,18346.6 c 7.89,-21.2 25.23,-1517.4 25.23,-1517.4 l -854.51,8.2 -227.12,1415.7 c 0,0 924.28,448.6 1056.4,93.5"
           style="fill:url(#linearGradient3158);fill-opacity:1;fill-rule:nonzero;stroke:none"
           id="path3160" />
      </g>
    </g>
    <g
       id="g3162"
       transform="matrix(0.13123348,0,0,0.13123348,-579.38169,-583.61219)">
      <g
         id="g3164"
         clip-path="url(#clipPath3168)">
        <path
           d="m 8694.75,17980.8 61.2,-754.5 c 0.78,-9.7 2.8,-19 6.18,-28.1 20.64,-55.7 105.73,-242.2 291.23,-143.5 168.32,89.5 323.28,168.7 444.34,158.5 54.35,-4.5 96.28,-49.5 96.9,-104.1 1.54,-135.9 -0.65,-442.3 -43.17,-708.2 -8.63,-54 -57.48,-91.9 -112,-88 -164.23,11.6 -509.95,45.9 -781.61,138.6 -36.82,12.5 -63.87,43.8 -70.49,82.1 -32.21,186.9 -132.24,754.5 -184.58,908.3 -49.12,144.4 -250.06,193.9 -335.92,208.6 -28.15,4.8 -52.86,20.9 -68.8,44.5 -56.38,83.8 -152.64,285 95.82,429.6 52,30.3 68.44,97 36.6,148 -63.4,101.7 -116.45,266.2 70.27,403.6 189.78,139.6 370.94,61.5 475.35,-11.2 42.23,-29.4 98.42,-23.2 135.13,12.9 20.89,20.5 50.99,32.3 93.74,16.9 57.59,-20.6 120.15,15.5 134.73,74.9 28,114.2 106.64,247 319.98,256.2 378.57,16.4 507.37,-379.2 462.31,-637 -45.06,-257.9 -456.52,-252.4 -678.96,-175.4 -169.14,58.6 -342.47,-78.6 -415.84,-147.7 -23.24,-21.9 -35,-53.1 -32.41,-85"
           style="fill:url(#linearGradient3174);fill-opacity:1;fill-rule:nonzero;stroke:none"
           id="path3176" />
      </g>
    </g>
    <g
       id="g3178"
       transform="matrix(0.13123348,0,0,0.13123348,-579.38169,-583.61219)">
      <g
         id="g3180"
         clip-path="url(#clipPath3184)">
        <path
           d="m 8427.78,17167.4 c 0,0 59.23,452.7 -117.21,522.3 -176.44,69.6 -393.25,-33.2 -277.16,-326.8 144.4,-365.2 394.37,-195.5 394.37,-195.5"
           style="fill:url(#linearGradient3190);fill-opacity:1;fill-rule:nonzero;stroke:none"
           id="path3192" />
      </g>
    </g>
    <g
       id="g3194"
       transform="matrix(0.13123348,0,0,0.13123348,-579.38169,-583.61219)">
      <g
         id="g3196"
         clip-path="url(#clipPath3200)">
        <path
           d="m 10220.1,12573.4 c -2157.95,-677.4 -2043.15,2359.9 -2057.13,2381.2 -855.46,1307.3 -1335.82,-434.8 -1252.92,-680.4 758.76,-2747 2671.53,-2611 3416.85,-2071.4 -92.8,144.4 -114,271.5 -106.8,370.6"
           style="fill:url(#linearGradient3206);fill-opacity:1;fill-rule:nonzero;stroke:none"
           id="path3208" />
      </g>
    </g>
    <g
       id="g3210"
       transform="matrix(0.13123348,0,0,0.13123348,-579.38169,-583.61219)">
      <g
         id="g3212"
         clip-path="url(#clipPath3216)">
        <path
           d="m 8565.86,13042 c -11.9,3.7 -22.63,11.4 -29.9,22.7 -326.96,509.5 -419.22,1217.5 -439.06,1721.8 -1.19,30.3 22.41,55.8 52.7,57 30.31,1.2 55.82,-22.4 57.01,-52.7 15.8,-401.7 91.58,-1152.3 421.77,-1666.8 16.37,-25.5 8.95,-59.4 -16.56,-75.8 -14.2,-9.1 -31,-10.9 -45.96,-6.2"
           style="fill:url(#linearGradient3222);fill-opacity:1;fill-rule:nonzero;stroke:none"
           id="path3224" />
      </g>
    </g>
    <g
       id="g3226"
       transform="matrix(0.13123348,0,0,0.13123348,-579.38169,-583.61219)">
      <g
         id="g3228"
         clip-path="url(#clipPath3232)">
        <path
           d="m 7963.26,12351.8 c -6.76,2.1 -13.22,5.5 -18.97,10.3 -493.18,413.3 -864.77,1062.7 -1104.4,1930.3 -8.07,29.2 9.08,59.5 38.3,67.5 29.23,8.1 59.46,-9.1 67.53,-38.3 233.6,-845.7 593.29,-1476.6 1069.09,-1875.3 23.24,-19.5 26.29,-54.1 6.82,-77.4 -14.65,-17.4 -37.88,-23.5 -58.37,-17.1"
           style="fill:url(#linearGradient3238);fill-opacity:1;fill-rule:nonzero;stroke:none"
           id="path3240" />
      </g>
    </g>
    <g
       id="g3242"
       transform="matrix(0.13123348,0,0,0.13123348,-579.38169,-583.61219)">
      <g
         id="g3244"
         clip-path="url(#clipPath3248)">
        <path
           d="m 11490.4,13207.6 c 0,0 -35.1,-55.9 -287.7,-251.7 -252.7,-195.8 -507,-308.7 -313.9,-39.7 193.2,269.1 99.2,407.9 -121.3,118.1 -220.4,-289.8 -378,-401.8 -378,-401.8 -58,-22.2 -114.4,-41.8 -169.4,-59.1 -7.2,-99.1 14,-226.2 106.8,-370.6 87.4,29 136.8,50.3 136.8,50.3 0,0 668.3,121.6 811.4,406.2 143.2,284.5 215.3,548.3 215.3,548.3"
           style="fill:url(#linearGradient3254);fill-opacity:1;fill-rule:nonzero;stroke:none"
           id="path3256" />
      </g>
    </g>
    <path
       d="m 1569.2776,1335.9923 c 0,0 -726.23277,358.8317 -488.7265,623.0309 237.5063,264.1992 680.2881,158.5956 702.729,-119.475 22.4279,-278.0706 -516.5087,-212.8344 -214.0025,-503.5559"
       style="fill:#ffffff;fill-opacity:1;fill-rule:nonzero;stroke:none;stroke-width:0.131233"
       id="path3258" />
    <path
       d="m 1141.9815,1883.459 h 320.5116 c 4.0419,0 7.3228,3.2808 7.3228,7.3228 0,4.0551 -3.2809,7.3228 -7.3228,7.3228 h -320.5116 c -4.0419,0 -7.3228,-3.2677 -7.3228,-7.3228 0,-4.042 3.2809,-7.3228 7.3228,-7.3228"
       style="fill:#91b3fa;fill-opacity:1;fill-rule:nonzero;stroke:none;stroke-width:0.131233"
       id="path3260" />
    <path
       d="m 1557.6636,1883.459 h 95.1049 c 4.0419,0 7.3228,3.2808 7.3228,7.3228 0,4.0551 -3.2809,7.3228 -7.3228,7.3228 h -95.1049 c -4.0421,0 -7.3229,-3.2677 -7.3229,-7.3228 0,-4.042 3.2808,-7.3228 7.3229,-7.3228"
       style="fill:#91b3fa;fill-opacity:1;fill-rule:nonzero;stroke:none;stroke-width:0.131233"
       id="path3262" />
    <path
       d="m 1131.181,1818.5771 h 120.3542 c 4.042,0 7.3228,3.2809 7.3228,7.3229 0,4.042 -3.2808,7.3228 -7.3228,7.3228 H 1131.181 c -4.042,0 -7.3228,-3.2808 -7.3228,-7.3228 0,-4.042 3.2808,-7.3229 7.3228,-7.3229"
       style="fill:#91b3fa;fill-opacity:1;fill-rule:nonzero;stroke:none;stroke-width:0.131233"
       id="path3264" />
    <path
       d="m 1428.123,1818.5771 h 213.8449 c 4.042,0 7.3228,3.2809 7.3228,7.3229 0,4.042 -3.2808,7.3228 -7.3228,7.3228 H 1428.123 c -4.042,0 -7.3228,-3.2808 -7.3228,-7.3228 0,-4.042 3.2808,-7.3229 7.3228,-7.3229"
       style="fill:#91b3fa;fill-opacity:1;fill-rule:nonzero;stroke:none;stroke-width:0.131233"
       id="path3266" />
    <path
       d="m 1120.3805,1753.6822 h 319.921 c 4.0551,0 7.3228,3.2809 7.3228,7.3228 0,4.0551 -3.2677,7.3228 -7.3228,7.3228 h -319.921 c -4.042,0 -7.3228,-3.2677 -7.3228,-7.3228 0,-4.0419 3.2808,-7.3228 7.3228,-7.3228"
       style="fill:#91b3fa;fill-opacity:1;fill-rule:nonzero;stroke:none;stroke-width:0.131233"
       id="path3268" />
    <path
       d="m 1520.4195,1753.6822 h 110.7479 c 4.042,0 7.3228,3.2809 7.3228,7.3228 0,4.0551 -3.2808,7.3228 -7.3228,7.3228 h -110.7479 c -4.042,0 -7.3228,-3.2677 -7.3228,-7.3228 0,-4.0419 3.2808,-7.3228 7.3228,-7.3228"
       style="fill:#91b3fa;fill-opacity:1;fill-rule:nonzero;stroke:none;stroke-width:0.131233"
       id="path3270" />
  </g>
</svg>
