<?xml version="1.0" encoding="UTF-8" standalone="no"?>
<!-- Created with Inkscape (http://www.inkscape.org/) -->

<svg
   version="1.1"
   id="svg2"
   width="4946.6665"
   height="4946.6665"
   viewBox="0 0 4946.6665 4946.6665"
   sodipodi:docname="IMAGEN 2.svg"
   inkscape:version="1.2.2 (732a01da63, 2022-12-09)"
   xmlns:inkscape="http://www.inkscape.org/namespaces/inkscape"
   xmlns:sodipodi="http://sodipodi.sourceforge.net/DTD/sodipodi-0.dtd"
   xmlns="http://www.w3.org/2000/svg"
   xmlns:svg="http://www.w3.org/2000/svg">
  <defs
     id="defs6">
    <clipPath
       clipPathUnits="userSpaceOnUse"
       id="clipPath22">
      <path
         d="m 15637.7,7106.4 c -398.5,0 -791,16 -1176.3,47.9 -1450.8,120.1 -4369.9,361.7 -6649.17,2517.1 -4377.15,4139.3 -3703.03,12791.7 487.15,17885.7 536.02,651.6 4225.32,4992.9 9979.42,4992.9 38.5,0 77,-0.2 115.7,-0.6 4261.4,-43.1 7252.5,-2450.3 7616.2,-2750.2 416.7,-343.6 1289.3,-1116.3 2129.5,-2322.9 -1630.4,-2678.4 -2836.6,-6557 -1376.2,-11523.8 46.2,-157 188.2,-249.2 335.1,-249.2 75.8,0 152.7,24.5 218.6,77.2 354.9,284.5 901.2,772 1473.7,1469.5 -48.4,-454.3 -72.9,-932.9 -68.9,-1436.8 4,-491 -2,-956.5 -17.2,-1397.4 -2613.4,-4964.2 -8247,-7309.4 -13067.6,-7309.4"
         id="path20" />
    </clipPath>
    <linearGradient
       x1="0"
       y1="0"
       x2="1"
       y2="0"
       gradientUnits="userSpaceOnUse"
       gradientTransform="matrix(-18697.3,20181.2,20181.2,18697.3,31731.4,3798.4)"
       spreadMethod="pad"
       id="linearGradient28">
      <stop
         style="stop-opacity:1;stop-color:#dae3fe"
         offset="0"
         id="stop24" />
      <stop
         style="stop-opacity:1;stop-color:#e9effd"
         offset="1"
         id="stop26" />
    </linearGradient>
    <clipPath
       clipPathUnits="userSpaceOnUse"
       id="clipPath46">
      <path
         d="m 26119,14375.3 c 228.3,-366 467.3,-888.3 409.2,-1410.7 -106.1,-954.8 -1570.4,-1379.1 -2853.9,-848.7 -914.9,378.1 -525.4,1618.8 -226.3,2300.1 94.8,215.9 -62,458.1 -297.7,458.1 h -3305.5 v 3723.3 c 0,325.1 344.1,534.2 632.3,383.7 345.3,-180.3 799.4,-371.6 1277.3,-447 1007.8,-159.1 2015.6,954.8 1909.5,2015.6 -106.1,1060.8 -1113.9,1856.5 -2174.8,1803.5 -365.1,-18.3 -669.2,-170.3 -911.1,-361.9 -281.1,-222.6 -695.8,-15.3 -695.8,343.3 v 3254.2 h 9200.7 c 259.1,0 469.3,-209.7 469.9,-468.8 l 25.2,-10245.9 h -3184.7 c -256.1,0 -409.8,-281.5 -274.3,-498.8 z"
         id="path44" />
    </clipPath>
    <linearGradient
       x1="0"
       y1="0"
       x2="1"
       y2="0"
       gradientUnits="userSpaceOnUse"
       gradientTransform="matrix(21491.8,-40131.7,40131.7,21491.8,21548.5,25938.1)"
       spreadMethod="pad"
       id="linearGradient52">
      <stop
         style="stop-opacity:1;stop-color:#ff928e"
         offset="0"
         id="stop48" />
      <stop
         style="stop-opacity:1;stop-color:#fe7062"
         offset="1"
         id="stop50" />
    </linearGradient>
    <clipPath
       clipPathUnits="userSpaceOnUse"
       id="clipPath64">
      <path
         d="m 19844.8,4689.9 v 3118 c 0,310.3 -316.2,523 -601.9,402 -314.8,-133.2 -743.4,-260.6 -1262.9,-284.4 -1158.6,-53 -2040.6,901.7 -1864.9,2227.8 175.8,1326.1 1303.8,1644.4 1853.7,1485.2 287.1,-83.1 785.8,-401.6 1196.8,-687.2 286.9,-199.3 679.2,6.3 679.2,355.8 v 3567 h 3305.5 c 235.7,0 392.5,-242.2 297.7,-458.1 -299.1,-681.3 -688.6,-1922 226.3,-2300.1 1283.5,-530.4 2747.8,-106.1 2853.9,848.7 58.1,522.4 -180.9,1044.7 -409.2,1410.7 -135.5,217.3 18.2,498.8 274.3,498.8 H 29578 l 51.9,-9842.1 c 1,-188.7 -151.7,-342.1 -340.3,-342.1 z"
         id="path62" />
    </clipPath>
    <linearGradient
       x1="0"
       y1="0"
       x2="1"
       y2="0"
       gradientUnits="userSpaceOnUse"
       gradientTransform="matrix(-18488.5,62478.1,-62478.1,-18488.5,34555.7,-27421.2)"
       spreadMethod="pad"
       id="linearGradient70">
      <stop
         style="stop-opacity:1;stop-color:#ff928e"
         offset="0"
         id="stop66" />
      <stop
         style="stop-opacity:1;stop-color:#fe7062"
         offset="1"
         id="stop68" />
    </linearGradient>
    <clipPath
       clipPathUnits="userSpaceOnUse"
       id="clipPath82">
      <path
         d="m 10757.3,4674.1 c -200.8,-0.4 -363.8,162.3 -363.8,363.1 v 2624 c 0,338.4 6.7,3480.7 6.7,3824.9 v 3467.6 h 3201.5 c 263.9,0 418.7,300 262.7,512.8 -749.4,1022 -95.5,2476.6 463.9,2722.8 663.1,291.8 2015.7,371.3 2413.5,-1113.9 207.2,-773.7 17,-1338.6 -212.7,-1702.4 -136.9,-216.6 16.2,-498.9 272.5,-498.9 h 3043.2 v -3567 c 0,-349.5 -392.3,-555.1 -679.2,-355.8 -411,285.6 -909.7,604.1 -1196.8,687.2 -549.9,159.2 -1677.9,-159.1 -1853.7,-1485.2 -175.7,-1326.1 706.3,-2280.8 1864.9,-2227.8 519.5,23.8 948.1,151.2 1262.9,284.4 285.7,121 601.9,-91.7 601.9,-402 v -3118 z"
         id="path80" />
    </clipPath>
    <linearGradient
       x1="0"
       y1="0"
       x2="1"
       y2="0"
       gradientUnits="userSpaceOnUse"
       gradientTransform="matrix(22570.3,-42145.5,42145.5,22570.3,9544.53,20319.6)"
       spreadMethod="pad"
       id="linearGradient88">
      <stop
         style="stop-opacity:1;stop-color:#ff928e"
         offset="0"
         id="stop84" />
      <stop
         style="stop-opacity:1;stop-color:#fe7062"
         offset="1"
         id="stop86" />
    </linearGradient>
    <clipPath
       clipPathUnits="userSpaceOnUse"
       id="clipPath100">
      <path
         d="m 4814.29,5804 c 0,0 -157.37,-248 -196.96,-942.6 -3.69,-64.7 47.57,-119.8 112.39,-119.8 h 1230.84 c 49.52,0 84.86,48.5 69.01,95.5 -72.12,213.4 -290.2,733.9 -776.8,1031.3 z"
         id="path98" />
    </clipPath>
    <linearGradient
       x1="0"
       y1="0"
       x2="1"
       y2="0"
       gradientUnits="userSpaceOnUse"
       gradientTransform="matrix(1416.26,0,0,-1416.26,4617.14,5305)"
       spreadMethod="pad"
       id="linearGradient106">
      <stop
         style="stop-opacity:1;stop-color:#09005d"
         offset="0"
         id="stop102" />
      <stop
         style="stop-opacity:1;stop-color:#1a0f91"
         offset="1"
         id="stop104" />
    </linearGradient>
    <clipPath
       clipPathUnits="userSpaceOnUse"
       id="clipPath116">
      <path
         d="m 4760.81,6274.6 69.61,-583.7 c 6.01,-50.3 45.48,-90.7 95.87,-96.5 67.31,-7.7 165.17,-13.2 260.26,2.5 86.43,14.3 148.65,91.2 148.65,178.9 v 563.6 z"
         id="path114" />
    </clipPath>
    <linearGradient
       x1="0"
       y1="0"
       x2="1"
       y2="0"
       gradientUnits="userSpaceOnUse"
       gradientTransform="matrix(574.388,0,0,-574.388,4760.81,5963.1)"
       spreadMethod="pad"
       id="linearGradient122">
      <stop
         style="stop-opacity:1;stop-color:#febbba"
         offset="0"
         id="stop118" />
      <stop
         style="stop-opacity:1;stop-color:#ff928e"
         offset="1"
         id="stop120" />
    </linearGradient>
    <clipPath
       clipPathUnits="userSpaceOnUse"
       id="clipPath132">
      <path
         d="m 7859.62,5868.4 c 0,0 -235.59,-366.2 -230.54,-868.8 1.18,-118.4 100.3,-212.7 218.7,-212.7 H 9759.4 c 89.52,0 125.86,115 52.61,166.4 -361.74,254 -1072.72,728.6 -1586.96,915.1 z"
         id="path130" />
    </clipPath>
    <linearGradient
       x1="0"
       y1="0"
       x2="1"
       y2="0"
       gradientUnits="userSpaceOnUse"
       gradientTransform="matrix(2222.17,0,0,-2222.17,7629,5327.6)"
       spreadMethod="pad"
       id="linearGradient138">
      <stop
         style="stop-opacity:1;stop-color:#09005d"
         offset="0"
         id="stop134" />
      <stop
         style="stop-opacity:1;stop-color:#1a0f91"
         offset="1"
         id="stop136" />
    </linearGradient>
    <clipPath
       clipPathUnits="userSpaceOnUse"
       id="clipPath148">
      <path
         d="m 7662.75,6498.8 148.49,-720.9 c 16.6,-80.7 95.49,-134.9 175.84,-117 48.85,10.9 106.47,31.8 168.06,70.3 58.52,36.6 88.17,106.2 76.22,174.2 l -153.6,873.4 z"
         id="path146" />
    </clipPath>
    <linearGradient
       x1="0"
       y1="0"
       x2="1"
       y2="0"
       gradientUnits="userSpaceOnUse"
       gradientTransform="matrix(571.227,0,0,-571.227,7662.75,6218.1)"
       spreadMethod="pad"
       id="linearGradient154">
      <stop
         style="stop-opacity:1;stop-color:#febbba"
         offset="0"
         id="stop150" />
      <stop
         style="stop-opacity:1;stop-color:#ff928e"
         offset="1"
         id="stop152" />
    </linearGradient>
    <clipPath
       clipPathUnits="userSpaceOnUse"
       id="clipPath164">
      <path
         d="m 5033.56,16522.2 c 0,0 -516.3,-455.1 -613.48,-1002.8 -97.16,-547.6 275.31,-9448.7 275.31,-9448.7 0,0 516.28,-85.9 782.42,75.4 0,0 315.66,5776.7 555.6,7111.6 0,0 1258.3,-5984 1606.94,-7065.2 0,0 497.39,-60.5 657.79,34.2 0,0 -329.6,7756.8 -743.77,9135.8 z"
         id="path162" />
    </clipPath>
    <linearGradient
       x1="0"
       y1="0"
       x2="1"
       y2="0"
       gradientUnits="userSpaceOnUse"
       gradientTransform="matrix(3894.23,0,0,-3894.23,4403.91,11285)"
       spreadMethod="pad"
       id="linearGradient170">
      <stop
         style="stop-opacity:1;stop-color:#09005d"
         offset="0"
         id="stop166" />
      <stop
         style="stop-opacity:1;stop-color:#1a0f91"
         offset="1"
         id="stop168" />
    </linearGradient>
    <clipPath
       clipPathUnits="userSpaceOnUse"
       id="clipPath180">
      <path
         d="m 6018.37,13476 c -11.33,0 -21.66,7.6 -24.65,19 l -216.79,831.7 -465.45,298.5 c -11.86,7.6 -15.28,23.4 -7.67,35.3 7.57,11.9 23.32,15.3 35.25,7.7 l 473.82,-304 c 5.38,-3.4 9.27,-8.8 10.89,-15 l 219.32,-841.3 c 3.56,-13.6 -4.62,-27.5 -18.24,-31.1 -2.16,-0.6 -4.32,-0.8 -6.48,-0.8 z"
         id="path178" />
    </clipPath>
    <linearGradient
       x1="0"
       y1="0"
       x2="1"
       y2="0"
       gradientUnits="userSpaceOnUse"
       gradientTransform="matrix(744.164,0,0,-744.164,5299.76,14074.1)"
       spreadMethod="pad"
       id="linearGradient186">
      <stop
         style="stop-opacity:1;stop-color:#4f52ff"
         offset="0"
         id="stop182" />
      <stop
         style="stop-opacity:1;stop-color:#4042e2"
         offset="1"
         id="stop184" />
    </linearGradient>
    <clipPath
       clipPathUnits="userSpaceOnUse"
       id="clipPath196">
      <path
         d="m 9884.87,21404 c -2173.46,180.5 -2741.52,-269.3 -2741.52,-269.3 l 1044.49,-1648.9 c 0,0 2135.66,42.1 3665.86,1221.6 -286.3,308.4 -485.2,649.3 -612.8,914.7 -394.6,-164 -849,-260.1 -1356.03,-218.1 z"
         id="path194" />
    </clipPath>
    <linearGradient
       x1="0"
       y1="0"
       x2="1"
       y2="0"
       gradientUnits="userSpaceOnUse"
       gradientTransform="matrix(3929.96,16633.9,16633.9,-3929.96,6607.57,8684.8)"
       spreadMethod="pad"
       id="linearGradient202">
      <stop
         style="stop-opacity:1;stop-color:#4f52ff"
         offset="0"
         id="stop198" />
      <stop
         style="stop-opacity:1;stop-color:#4042e2"
         offset="1"
         id="stop200" />
    </linearGradient>
    <clipPath
       clipPathUnits="userSpaceOnUse"
       id="clipPath212">
      <path
         d="m 13288.5,24594.4 c -2.9,69.6 -97.3,88.6 -126.9,25.5 l -277.4,-591.8 c -53.5,-114.4 -70.7,-242.4 -49.2,-366.9 l 97.3,-344.4 c 29.1,-168 -14.8,-340.1 -121.2,-473.2 -254.9,-318.6 -797.6,-900.5 -1570.2,-1221.5 127.6,-265.4 326.5,-606.3 612.8,-914.7 561.5,432.8 1041.6,1018.4 1304.7,1811.6 126,38.7 210.2,157.4 205.2,289.1 z"
         id="path210" />
    </clipPath>
    <linearGradient
       x1="0"
       y1="0"
       x2="1"
       y2="0"
       gradientUnits="userSpaceOnUse"
       gradientTransform="matrix(2122.95,0,0,-2122.95,11240.9,22682.9)"
       spreadMethod="pad"
       id="linearGradient218">
      <stop
         style="stop-opacity:1;stop-color:#febbba"
         offset="0"
         id="stop214" />
      <stop
         style="stop-opacity:1;stop-color:#ff928e"
         offset="1"
         id="stop216" />
    </linearGradient>
    <clipPath
       clipPathUnits="userSpaceOnUse"
       id="clipPath228">
      <path
         d="m 10844,20709.4 c -765.1,824.5 -2222.54,1197 -3066.34,1350 -369.68,67.1 -734.07,-138.6 -865.06,-490.8 -379.73,-1020.7 -1412.48,-3676.4 -1612.65,-4132.8 -164.23,-374.5 -335.71,-740.2 -444.66,-968.8 -65.1,-136.6 -8.22,-300.1 128.09,-365.8 709.93,-342.2 1987.36,-729.3 2505.25,-880.4 113.92,-33.2 227.35,52.3 227.35,171 0,100.6 27.35,199.4 79.14,285.7 l 1961.37,3268.4 C 10979,17590.4 12049.6,17466.5 12872,17763.2 c -138.3,427.4 -228.8,855.5 -272.2,1284.5 -1215,208.2 -1755.8,1661.7 -1755.8,1661.7 z"
         id="path226" />
    </clipPath>
    <linearGradient
       x1="0"
       y1="0"
       x2="1"
       y2="0"
       gradientUnits="userSpaceOnUse"
       gradientTransform="matrix(-6941.21,-11330.5,-11330.5,6941.21,11800.2,22794.1)"
       spreadMethod="pad"
       id="linearGradient234">
      <stop
         style="stop-opacity:1;stop-color:#4f52ff"
         offset="0"
         id="stop230" />
      <stop
         style="stop-opacity:1;stop-color:#4042e2"
         offset="1"
         id="stop232" />
    </linearGradient>
    <clipPath
       clipPathUnits="userSpaceOnUse"
       id="clipPath244">
      <path
         d="m 14608.1,19275.2 -219.3,292.4 c -709.9,-487.5 -1303.2,-603.1 -1789,-519.9 43.4,-429 133.9,-857.1 272.2,-1284.5 1083.5,390.9 1736.1,1512 1736.1,1512 z"
         id="path242" />
    </clipPath>
    <linearGradient
       x1="0"
       y1="0"
       x2="1"
       y2="0"
       gradientUnits="userSpaceOnUse"
       gradientTransform="matrix(-4587.09,-5706.78,-5706.78,4587.09,16291.7,22481.4)"
       spreadMethod="pad"
       id="linearGradient250">
      <stop
         style="stop-opacity:1;stop-color:#febbba"
         offset="0"
         id="stop246" />
      <stop
         style="stop-opacity:1;stop-color:#ff928e"
         offset="1"
         id="stop248" />
    </linearGradient>
    <clipPath
       clipPathUnits="userSpaceOnUse"
       id="clipPath260">
      <path
         d="m 8938.29,23573.6 -651.77,-1590.4 c 0,0 748.89,-518.4 1351.39,-469.1 l 325.28,1430.2 z"
         id="path258" />
    </clipPath>
    <linearGradient
       x1="0"
       y1="0"
       x2="1"
       y2="0"
       gradientUnits="userSpaceOnUse"
       gradientTransform="matrix(-4442.63,-8162.9,-8162.9,4442.63,11131.2,25930.3)"
       spreadMethod="pad"
       id="linearGradient266">
      <stop
         style="stop-opacity:1;stop-color:#febbba"
         offset="0"
         id="stop262" />
      <stop
         style="stop-opacity:1;stop-color:#ff928e"
         offset="1"
         id="stop264" />
    </linearGradient>
    <clipPath
       clipPathUnits="userSpaceOnUse"
       id="clipPath276">
      <path
         d="m 10039.3,24657.9 c 14.9,-21.2 471.5,-1670.6 471.5,-1670.6 l -947.38,-240.7 -665.03,1499 c 0,0 890.97,766.3 1140.91,412.3 z"
         id="path274" />
    </clipPath>
    <linearGradient
       x1="0"
       y1="0"
       x2="1"
       y2="0"
       gradientUnits="userSpaceOnUse"
       gradientTransform="matrix(-106.166,-3254.36,-3254.36,106.166,9731.01,24426.4)"
       spreadMethod="pad"
       id="linearGradient282">
      <stop
         style="stop-opacity:1;stop-color:#febbba"
         offset="0"
         id="stop278" />
      <stop
         style="stop-opacity:1;stop-color:#ff928e"
         offset="1"
         id="stop280" />
    </linearGradient>
    <clipPath
       clipPathUnits="userSpaceOnUse"
       id="clipPath292">
      <path
         d="m 9255.14,24017.9 288.29,-816.6 c 3.69,-10.5 8.64,-20.1 15.03,-29.2 39.12,-55.6 187.74,-237 364.03,-73.6 159.91,148.2 308.11,281.2 445.01,305.3 61.4,10.8 121,-26.7 137.6,-86.8 41.4,-149.9 128.6,-489.4 159.3,-795.8 6.2,-62.2 -36.7,-118.4 -98.1,-130.1 -185,-35.1 -577.37,-98.3 -904.89,-75.2 -44.38,3.1 -83.44,29.7 -101.95,70.2 -90.25,197.2 -366.8,795.6 -469.66,950.4 -96.54,145.4 -333.2,141.3 -432.46,132.5 -32.54,-2.9 -64.53,7.6 -89.1,29.1 -86.83,76.2 -252.09,270.5 -19.62,503.1 48.65,48.7 47.34,127.2 -2.8,174.4 -99.83,93.8 -206.6,260.3 -40.27,466.8 169.05,209.8 392.21,176.4 528.95,126.6 55.28,-20.2 115.59,3.1 145.64,53.7 17.12,28.8 46.95,50.6 98.71,46.2 69.72,-6 128.36,52.2 127.11,122.2 -2.42,134.4 45.71,304.3 278.94,376.9 413.8,128.8 671.9,-271 697.5,-569.4 25.5,-298.3 -431.09,-412.5 -699.59,-392.3 -204.16,15.3 -355.73,-187.1 -416.66,-285 -19.3,-31 -23.16,-69 -11.01,-103.4 z"
         id="path290" />
    </clipPath>
    <linearGradient
       x1="0"
       y1="0"
       x2="1"
       y2="0"
       gradientUnits="userSpaceOnUse"
       gradientTransform="matrix(-2894.18,-5148.58,-5148.58,2894.18,11811.6,27527.7)"
       spreadMethod="pad"
       id="linearGradient298">
      <stop
         style="stop-opacity:1;stop-color:#09005d"
         offset="0"
         id="stop294" />
      <stop
         style="stop-opacity:1;stop-color:#1a0f91"
         offset="1"
         id="stop296" />
    </linearGradient>
    <clipPath
       clipPathUnits="userSpaceOnUse"
       id="clipPath308">
      <path
         d="m 9197.72,23040.3 c 0,0 -66.85,517.9 -282.3,543.3 -215.45,25.4 -425.16,-151.7 -210.95,-442.4 266.44,-361.6 493.25,-100.9 493.25,-100.9 z"
         id="path306" />
    </clipPath>
    <linearGradient
       x1="0"
       y1="0"
       x2="1"
       y2="0"
       gradientUnits="userSpaceOnUse"
       gradientTransform="matrix(354.836,2228.22,2228.22,-354.836,8567.89,21087.5)"
       spreadMethod="pad"
       id="linearGradient314">
      <stop
         style="stop-opacity:1;stop-color:#febbba"
         offset="0"
         id="stop310" />
      <stop
         style="stop-opacity:1;stop-color:#ff928e"
         offset="1"
         id="stop312" />
    </linearGradient>
    <clipPath
       clipPathUnits="userSpaceOnUse"
       id="clipPath324">
      <path
         d="m 18027.9,20004.6 c 233.8,370.1 427.3,944.8 216.5,1732 -404.7,1511.1 -1780.9,1430.1 -2455.5,1133.3 -569.2,-250.5 -1234.4,-1730.4 -472,-2770.2 158.7,-216.5 1.2,-521.8 -267.2,-521.8 h -3257.3 l -100.6,10457.2 c -2.3,248.2 199.4,450.1 447.7,447.9 l 9300,-84.8 v -3310.9 c 0,-364.8 421.8,-575.7 707.9,-349.2 246.1,194.9 555.5,349.6 927,368.2 1079.3,53.9 2104.7,-755.6 2212.6,-1834.9 107.9,-1079.3 -917.4,-2212.6 -1942.8,-2050.7 -486.2,76.7 -948.1,271.4 -1299.5,454.8 -293.2,153 -643.3,-59.7 -643.3,-390.4 V 19497 h -3096.2 c -260.7,0 -416.5,287.1 -277.3,507.6 z"
         id="path322" />
    </clipPath>
    <linearGradient
       x1="0"
       y1="0"
       x2="1"
       y2="0"
       gradientUnits="userSpaceOnUse"
       gradientTransform="matrix(13603,0,0,-13603,11691.8,24990)"
       spreadMethod="pad"
       id="linearGradient330">
      <stop
         style="stop-opacity:1;stop-color:#4f52ff"
         offset="0"
         id="stop326" />
      <stop
         style="stop-opacity:1;stop-color:#4042e2"
         offset="1"
         id="stop328" />
    </linearGradient>
    <clipPath
       clipPathUnits="userSpaceOnUse"
       id="clipPath340">
      <path
         d="m 14453.4,19269.9 1235.3,-48.1 692.1,1211.6 c 33.3,58.2 -16.3,131.3 -82.1,118.1 -301.3,-60.3 -536.4,-442.4 -644.2,-651 -42.1,-81.6 -130.1,-128.7 -221.5,-120.1 -213.1,20.3 -587.8,53.4 -768.8,53.6 -216.9,0.3 -336.9,-249.2 -320.1,-354.9 3.4,-21.6 6.2,-34.6 6.2,-34.6 z"
         id="path338" />
    </clipPath>
    <linearGradient
       x1="0"
       y1="0"
       x2="1"
       y2="0"
       gradientUnits="userSpaceOnUse"
       gradientTransform="matrix(-5149.09,-6405.96,-6405.96,5149.09,17295.1,22249.3)"
       spreadMethod="pad"
       id="linearGradient346">
      <stop
         style="stop-opacity:1;stop-color:#febbba"
         offset="0"
         id="stop342" />
      <stop
         style="stop-opacity:1;stop-color:#ff928e"
         offset="1"
         id="stop344" />
    </linearGradient>
  </defs>
  <sodipodi:namedview
     id="namedview4"
     pagecolor="#ffffff"
     bordercolor="#000000"
     borderopacity="0.25"
     inkscape:showpageshadow="2"
     inkscape:pageopacity="0.0"
     inkscape:pagecheckerboard="0"
     inkscape:deskcolor="#d1d1d1"
     showgrid="false"
     inkscape:zoom="0.12507785"
     inkscape:cx="1595.0066"
     inkscape:cy="2254.5958"
     inkscape:window-width="1920"
     inkscape:window-height="974"
     inkscape:window-x="-11"
     inkscape:window-y="-11"
     inkscape:window-maximized="1"
     inkscape:current-layer="g10">
    <inkscape:page
       x="0"
       y="0"
       id="page8"
       width="4946.6665"
       height="4946.6665" />
  </sodipodi:namedview>
  <g
     id="g10"
     inkscape:groupmode="layer"
     inkscape:label="Page 1"
     transform="matrix(1.3333333,0,0,-1.3333333,0,4946.6667)">
    <g
       id="g16"
       transform="matrix(0.12975312,0,0,0.12975312,-553.42127,-570.51268)">
      <g
         id="g18"
         clip-path="url(#clipPath22)">
        <path
           d="m 15637.7,7106.4 c -398.5,0 -791,16 -1176.3,47.9 -1450.8,120.1 -4369.9,361.7 -6649.17,2517.1 -4377.15,4139.3 -3703.03,12791.7 487.15,17885.7 536.02,651.6 4225.32,4992.9 9979.42,4992.9 38.5,0 77,-0.2 115.7,-0.6 4261.4,-43.1 7252.5,-2450.3 7616.2,-2750.2 416.7,-343.6 1289.3,-1116.3 2129.5,-2322.9 -1630.4,-2678.4 -2836.6,-6557 -1376.2,-11523.8 46.2,-157 188.2,-249.2 335.1,-249.2 75.8,0 152.7,24.5 218.6,77.2 354.9,284.5 901.2,772 1473.7,1469.5 -48.4,-454.3 -72.9,-932.9 -68.9,-1436.8 4,-491 -2,-956.5 -17.2,-1397.4 -2613.4,-4964.2 -8247,-7309.4 -13067.6,-7309.4"
           style="fill:url(#linearGradient28);fill-opacity:1;fill-rule:nonzero;stroke:none"
           id="path30" />
      </g>
    </g>
    <path
       d="m 3688.0784,2533.5842 c 5.3847,16.6083 -13.9875,30.2583 -27.9877,19.8262 -142.1576,-106.0213 -491.8293,-432.1428 -486.6781,-1072.111 6.4746,-802.93832 -191.3469,-1073.17514 -416.741,-1226.10217 0,0 291.4384,50.83727 502.2094,323.9027 517.4814,670.43437 333.4915,1659.08817 429.1974,1954.48427"
       style="fill:#bdd0fb;fill-opacity:1;fill-rule:nonzero;stroke:none;stroke-width:0.129754"
       id="path32" />
    <path
       d="m 2873.8776,303.1929 c -5.9169,0 -11.6908,3.02326 -14.9606,8.45991 -4.8787,8.0966 -2.3875,18.58065 5.5145,23.65399 l 0.052,0.026 c 18.7493,12.01514 37.3299,24.21192 55.3138,37.21319 9.0956,6.34492 17.8799,13.09208 26.7939,19.67057 8.6546,6.90286 17.5816,13.46837 26.0156,20.63075 34.2159,28.09154 66.4077,58.53162 96.1859,91.21643 59.8292,64.99334 110.2513,139.26403 150.9548,217.57004 19.9172,39.40601 36.8888,80.20039 50.6687,122.16255 13.7536,41.97513 24.3027,85.06614 32.3992,128.80593 16.1933,87.50544 23.5632,177.17784 31.3614,267.07084 7.915,89.8929 16.4916,180.1751 28.7662,269.9773 6.0206,44.8945 12.8456,89.6853 20.4621,134.3464 3.685,22.3435 7.7983,44.6091 11.8724,66.8876 4.2819,22.2268 8.6934,44.4406 13.2868,66.6023 18.5158,88.6344 39.7304,176.6719 63.7087,263.9049 24.3807,87.1292 51.0708,173.5707 81.0438,258.8446 0.6877,1.9203 2.4913,3.1269 4.4117,3.1269 0.5189,0 1.038,-0.091 1.5569,-0.2725 2.3615,-0.8303 3.6332,-3.3864 2.9196,-5.761 -26.0804,-86.3377 -50.4612,-173.1425 -71.6238,-260.7259 -21.6169,-87.4406 -40.5868,-175.5041 -56.767,-264.0346 -15.8558,-88.5825 -30.0378,-177.4504 -40.4181,-266.7854 -10.7955,-89.296 -17.7372,-178.9425 -24.3936,-268.9782 -7.1493,-89.9449 -13.8446,-180.5904 -29.8432,-270.83363 -15.8817,-90.06164 -42.7667,-179.68212 -85.2219,-261.73799 -10.6138,-20.43612 -21.6298,-40.76843 -33.7487,-60.25735 -11.7557,-19.70949 -24.3806,-38.91296 -37.343,-57.86988 -26.1323,-37.81006 -54.8207,-73.94632 -86.0522,-107.78593 -62.6578,-67.53649 -135.5531,-125.48423 -213.9499,-172.62354 -2.8156,-1.69976 -5.9169,-2.50424 -8.966,-2.50424"
       style="fill:#dce6fd;fill-opacity:1;fill-rule:nonzero;stroke:none;stroke-width:0.129754"
       id="path34" />
    <path
       d="m 2919.2912,1499.374 c 9.0696,-30.8683 46.7241,-42.4293 71.8443,-22.3175 138.5373,111.0425 501.8461,460.4159 506.0111,1073.3176 3.5034,517.5723 54.6001,797.8909 86.6103,923.5439 6.76,26.5604 -24.3158,46.3347 -45.5434,28.9738 C 3304.0481,3311.4021 2590.38,2618.0016 2919.2912,1499.374"
       style="fill:#91b3fa;fill-opacity:1;fill-rule:nonzero;stroke:none;stroke-width:0.129754"
       id="path36" />
    <path
       d="m 2970.336,1493.8984 c -1.8555,0 -3.7238,0.4151 -5.5016,1.2715 -0.7524,0.3633 -1.4401,0.7915 -2.0759,1.2717 -4.6971,3.5551 -6.384,10.0429 -3.698,15.5314 3.4255,7.0196 343.4695,710.4372 380.5789,1424.6373 0.3502,6.7082 5.9037,11.9112 12.5341,11.9112 0.2205,0 0.4411,0 0.6618,-0.013 6.9417,-0.3633 12.2616,-6.28 11.8983,-13.1959 -37.3819,-719.442 -379.6446,-1427.2972 -383.0961,-1434.3688 -2.1798,-4.4504 -6.6563,-7.0455 -11.3015,-7.0455"
       style="fill:#c0d6fc;fill-opacity:1;fill-rule:nonzero;stroke:none;stroke-width:0.129754"
       id="path38" />
    <g
       id="g40"
       transform="matrix(0.12975312,0,0,0.12975312,-544.63706,-569.63029)"
       style="fill:#00cc00;fill-opacity:1">
      <g
         id="g42"
         clip-path="url(#clipPath46)"
         style="fill:#00cc00;fill-opacity:1">
        <path
           d="m 26119,14375.3 c 228.3,-366 467.3,-888.3 409.2,-1410.7 -106.1,-954.8 -1570.4,-1379.1 -2853.9,-848.7 -914.9,378.1 -525.4,1618.8 -226.3,2300.1 94.8,215.9 -62,458.1 -297.7,458.1 h -3305.5 v 3723.3 c 0,325.1 344.1,534.2 632.3,383.7 345.3,-180.3 799.4,-371.6 1277.3,-447 1007.8,-159.1 2015.6,954.8 1909.5,2015.6 -106.1,1060.8 -1113.9,1856.5 -2174.8,1803.5 -365.1,-18.3 -669.2,-170.3 -911.1,-361.9 -281.1,-222.6 -695.8,-15.3 -695.8,343.3 v 3254.2 h 9200.7 c 259.1,0 469.3,-209.7 469.9,-468.8 l 25.2,-10245.9 h -3184.7 c -256.1,0 -409.8,-281.5 -274.3,-498.8"
           style="fill:#00cc00;fill-opacity:1;fill-rule:nonzero;stroke:none"
           id="path54" />
      </g>
    </g>
    <path
       d="m 2030.3395,1368.2844 h 420.0628 c 17.2962,0 33.2687,-8.6416 42.7147,-23.1221 9.511,-14.5453 11.0031,-32.7497 3.9964,-48.6963 -24.5882,-56.0274 -61.7106,-160.297 -33.9953,-229.17 10.6786,-26.5345 30.4142,-45.9066 58.6484,-57.5714 98.4957,-40.70357 214.7025,-38.48479 289.1548,5.5534 40.7426,24.0951 64.6041,57.7661 69.0028,97.3797 7.3439,66.187 -24.1212,132.9971 -51.8105,177.3986 -10.0429,16.0892 -10.5619,35.5522 -1.4012,52.0698 9.0956,16.3749 25.7169,26.1583 44.4793,26.1583 h 404.3755 l -3.2438,1320.5883 c -0.077,28.6753 -23.4593,52.005 -52.1478,52.005 H 2035.1924 v -413.4064 c 0,-18.386 10.3282,-34.7998 26.9756,-42.8575 16.4787,-7.9668 34.7868,-6.0075 48.9948,5.242 38.1734,30.2326 79.6425,46.6593 123.2525,48.8392 69.4049,3.4774 138.174,-19.5279 193.5786,-64.7728 56.261,-45.9457 91.009,-108.8629 97.8339,-177.1648 7.3051,-73.142 -25.0165,-153.4072 -84.3784,-209.4865 -51.3304,-48.4888 -114.572,-70.9749 -173.5448,-61.6458 -52.9004,8.3431 -109.5637,28.1565 -168.4456,58.895 -14.7658,7.7073 -32.1009,7.1625 -46.3348,-1.4532 -14.2729,-8.6546 -22.7847,-23.7968 -22.7847,-40.5089 z m 638.2556,-405.69913 c -50.6426,0 -103.7506,10.22455 -153.5757,30.81637 -32.7887,13.55916 -55.7679,36.20106 -68.2891,67.30286 -28.6106,71.1177 2.8157,171.3262 34.2159,242.859 4.5932,10.471 3.6201,22.4084 -2.6081,31.9452 -6.2671,9.6017 -16.4527,15.1162 -27.9358,15.1162 h -437.7222 v 491.9331 c 0,22.9403 11.6909,43.7267 31.2835,55.6122 19.5667,11.8464 43.3765,12.599 63.6698,1.9981 57.1693,-29.8432 112.0289,-49.0597 163.022,-57.1043 53.5101,-8.4599 111.3411,12.3395 158.662,57.0524 55.4696,52.3944 85.7148,127.0672 78.9418,194.8892 -6.3579,63.592 -38.8351,122.2793 -91.437,165.2405 -51.2525,41.8584 -117.4396,64.0592 -181.5246,60.8154 -39.8601,-1.9982 -77.9428,-17.1534 -113.1837,-45.0503 -19.3331,-15.3238 -45.2579,-18.1135 -67.6402,-7.2921 -22.7847,11.0291 -36.9408,33.5412 -36.9408,58.7522 v 431.0658 h 1202.6427 c 38.3939,0 69.7034,-31.2315 69.7942,-69.6255 l 3.2958,-1338.2867 h -422.0739 c -12.2617,0 -23.109,-6.3838 -29.0388,-17.0625 -5.9945,-10.8214 -5.6573,-23.5892 0.9342,-34.1639 29.1815,-46.7631 62.2945,-117.4656 54.3925,-188.6871 -5.0474,-45.3487 -31.8673,-83.5999 -77.5664,-110.6275 -42.1568,-24.93852 -95.2258,-37.49863 -151.3181,-37.49863"
       style="fill:#fcfafa;fill-opacity:1;fill-rule:nonzero;stroke:none;stroke-width:0.129754"
       id="path56" />
    <g
       id="g58"
       transform="matrix(0.12975312,0,0,0.12975312,-544.63712,-571.4859)"
       style="fill:#00cc00;fill-opacity:1">
      <g
         id="g60"
         clip-path="url(#clipPath64)"
         style="fill:#00cc00;fill-opacity:1">
        <path
           d="m 19844.8,4689.9 v 3118 c 0,310.3 -316.2,523 -601.9,402 -314.8,-133.2 -743.4,-260.6 -1262.9,-284.4 -1158.6,-53 -2040.6,901.7 -1864.9,2227.8 175.8,1326.1 1303.8,1644.4 1853.7,1485.2 287.1,-83.1 785.8,-401.6 1196.8,-687.2 286.9,-199.3 679.2,6.3 679.2,355.8 v 3567 h 3305.5 c 235.7,0 392.5,-242.2 297.7,-458.1 -299.1,-681.3 -688.6,-1922 226.3,-2300.1 1283.5,-530.4 2747.8,-106.1 2853.9,848.7 58.1,522.4 -180.9,1044.7 -409.2,1410.7 -135.5,217.3 18.2,498.8 274.3,498.8 H 29578 l 51.9,-9842.1 c 1,-188.7 -151.7,-342.1 -340.3,-342.1 h -9444.8"
           style="fill:#00cc00;fill-opacity:1;fill-rule:nonzero;stroke:none"
           id="path72" />
      </g>
    </g>
    <path
       d="m 2030.3395,46.839676 h 1216.6561 c 9.472,0 18.3601,3.697962 25.0423,10.419175 6.6824,6.708235 10.3284,15.622274 10.2765,25.094251 l -6.6822,1268.271798 h -404.4405 c -12.2617,0 -23.109,-6.3838 -29.0388,-17.0625 -5.9945,-10.8214 -5.6573,-23.5892 0.9342,-34.1639 29.1815,-46.7631 62.2945,-117.4656 54.3795,-188.6871 -5.0344,-45.3487 -31.8543,-83.5999 -77.5534,-110.6275 -80.2263,-47.45069 -199.9106,-50.07171 -304.8938,-6.68226 -32.7887,13.55916 -55.7679,36.20106 -68.2762,67.30286 -28.6235,71.1177 2.8028,171.3131 34.203,242.859 4.5932,10.471 3.6201,22.4084 -2.6081,31.9452 -6.2671,9.6017 -16.4527,15.1162 -27.9358,15.1162 H 2030.3395 V 896.61878 c 0,-24.66606 -13.0532,-46.20509 -34.8906,-57.62335 -21.8114,-11.40529 -46.9056,-9.82231 -67.1082,4.21697 -70.6248,49.04669 -123.4213,79.44784 -152.7065,87.9337 -33.1779,9.58875 -88.4397,5.06036 -137.0972,-26.71618 -35.5523,-23.2258 -80.408,-69.61254 -92.2156,-158.67508 -10.9121,-82.27646 9.8095,-156.70284 58.3241,-209.59021 43.9993,-47.95676 105.9305,-72.6358 174.479,-69.49577 56.0274,2.56911 110.1474,14.75293 160.8291,36.2141 20.0339,8.48585 42.8444,6.34493 61.0488,-5.70914 18.3731,-12.17084 29.3371,-32.58101 29.3371,-54.58714 z m 1216.6561,-17.6594 H 2012.6801 V 442.58668 c 0,16.07642 -8.0186,30.97208 -21.435,39.86016 -13.4427,8.91404 -29.6228,10.43215 -44.4018,4.17805 -52.6277,-22.29159 -108.7719,-34.92954 -166.9013,-37.60245 -73.8426,-3.34764 -140.7173,23.32961 -188.2977,75.2049 -52.1219,56.80591 -74.4393,136.30565 -62.8265,223.83711 12.6898,95.7059 61.4121,145.89441 100.0656,171.14436 56.9876,37.22617 117.3097,38.8351 151.6554,28.89601 31.543,-9.13462 84.664,-39.54874 157.8707,-90.399 14.714,-10.22453 32.9832,-11.36636 48.8649,-3.06216 15.9078,8.31717 25.4057,24.00432 25.4057,41.97512 v 471.66562 h 437.7222 c 17.2962,0 33.2687,-8.6416 42.7147,-23.1221 9.511,-14.5453 11.0031,-32.7497 3.9964,-48.6963 -24.5882,-56.0274 -61.7106,-160.297 -33.9953,-229.17 10.6786,-26.5345 30.4142,-45.9066 58.6484,-57.5714 98.4957,-40.70357 214.7025,-38.48479 289.1548,5.5534 40.7426,24.0951 64.6041,57.7661 69.0028,97.3797 7.3439,66.187 -24.1212,132.9971 -51.8105,177.3986 -10.0429,16.0892 -10.5619,35.5522 -1.4012,52.0698 9.0956,16.3749 25.7169,26.1583 44.4793,26.1583 h 422.009 l 6.7732,-1285.84047 c 0.077,-14.194992 -5.3978,-27.572537 -15.4148,-37.641379 -10.0168,-10.068842 -23.3555,-15.622275 -37.5635,-15.622275"
       style="fill:#fcfafa;fill-opacity:1;fill-rule:nonzero;stroke:none;stroke-width:0.129754"
       id="path74" />
    <g
       id="g76"
       transform="matrix(0.12975312,0,0,0.12975312,-553.42127,-570.51268)">
      <g
         id="g78"
         clip-path="url(#clipPath82)">
        <path
           d="m 10757.3,4674.1 c -200.8,-0.4 -363.8,162.3 -363.8,363.1 v 2624 c 0,338.4 6.7,3480.7 6.7,3824.9 v 3467.6 h 3201.5 c 263.9,0 418.7,300 262.7,512.8 -749.4,1022 -95.5,2476.6 463.9,2722.8 663.1,291.8 2015.7,371.3 2413.5,-1113.9 207.2,-773.7 17,-1338.6 -212.7,-1702.4 -136.9,-216.6 16.2,-498.9 272.5,-498.9 h 3043.2 v -3567 c 0,-349.5 -392.3,-555.1 -679.2,-355.8 -411,285.6 -909.7,604.1 -1196.8,687.2 -549.9,159.2 -1677.9,-159.1 -1853.7,-1485.2 -175.7,-1326.1 706.3,-2280.8 1864.9,-2227.8 519.5,23.8 948.1,151.2 1262.9,284.4 285.7,121 601.9,-91.7 601.9,-402 v -3118 l -9087.5,-15.8"
           style="fill:url(#linearGradient88);fill-opacity:1;fill-rule:nonzero;stroke:none"
           id="path90" />
      </g>
    </g>
    <path
       d="m 842.34602,44.789575 0.0259,-8.823212 -0.0259,8.823212 1170.33408,2.037125 v 395.75998 c 0,16.07642 -8.0186,30.97208 -21.435,39.86016 -13.4427,8.91404 -29.6228,10.43215 -44.4018,4.17805 -52.6277,-22.29159 -108.7719,-34.92954 -166.9013,-37.60245 -73.8426,-3.34764 -140.7173,23.32961 -188.2977,75.2049 -52.1219,56.80591 -74.4393,136.30565 -62.8265,223.83711 12.6898,95.7059 61.4121,145.89441 100.0656,171.14436 56.9876,37.22617 117.3097,38.8351 151.6554,28.89601 31.543,-9.13462 84.664,-39.54874 157.8707,-90.399 14.714,-10.22453 32.9832,-11.36636 48.8649,-3.06216 15.9078,8.31717 25.4057,24.00432 25.4057,41.97512 v 454.00612 h -386.0415 c -18.7882,0 -35.3966,9.7964 -44.4533,26.2102 -9.1217,16.5564 -8.5118,36.0194 1.6219,52.0568 26.8589,42.5202 53.2636,114.131 26.5474,213.8981 -18.347,68.4837 -53.9772,115.8436 -105.8915,140.7433 -67.3029,32.2955 -147.2178,19.0997 -195.1746,-2.0113 -35.4874,-15.6092 -71.987,-70.3002 -88.79,-132.9839 -11.9503,-44.6221 -23.68,-130.856 32.1398,-206.9952 11.2885,-15.3887 12.9105,-35.5523 4.2558,-52.6408 -8.7322,-17.2441 -26.1581,-27.9618 -45.4524,-27.9618 H 804.87332 V 919.8446 c 0,-22.42134 -0.22063,-136.39648 -0.44126,-249.87856 -0.2205,-112.5219 -0.44112,-224.55075 -0.44112,-246.41414 V 83.079721 c 0,-10.23752 3.99636,-19.865203 11.24964,-27.092451 7.22723,-7.227249 16.82901,-11.197695 27.04054,-11.197695 z m -0.0651,-17.659399 c -14.92165,0 -28.96091,5.81294 -39.52287,16.361869 -10.58779,10.561903 -16.41369,24.627142 -16.41369,39.587676 V 423.5519 c 0,21.86339 0.20759,133.91819 0.42811,246.44009 0.22062,113.4691 0.44125,227.43127 0.44125,249.85261 v 458.7551 h 424.22768 c 12.8067,0 23.9006,6.838 29.7005,18.2823 5.7222,11.2885 4.6971,24.0691 -2.7378,34.2159 -60.1794,82.0818 -47.7361,174.3233 -34.9554,222.0076 18.0876,67.5105 58.6873,126.9634 98.7162,144.5838 51.3951,22.6159 137.2269,36.6423 209.9404,1.7647 56.7672,-27.2352 95.5632,-78.4098 115.2987,-152.0967 28.377,-105.9304 0.077,-182.3939 -28.6624,-227.8853 -6.6563,-10.5361 -7.0587,-23.2778 -1.0771,-34.1122 5.8909,-10.6916 16.7123,-17.0754 28.9739,-17.0754 h 403.7009 V 896.61878 c 0,-24.66606 -13.0532,-46.20509 -34.8906,-57.62335 -21.8114,-11.40529 -46.9057,-9.82231 -67.1083,4.21697 -70.6247,49.04669 -123.4212,79.44784 -152.7065,87.9337 -33.1778,9.58875 -88.4396,5.06036 -137.0971,-26.71618 -35.5523,-23.2258 -80.408,-69.61254 -92.2156,-158.67508 -10.9121,-82.27646 9.8094,-156.70284 58.3241,-209.59021 43.9993,-47.95676 105.9305,-72.6358 174.479,-69.49577 56.0274,2.56911 110.1474,14.75293 160.8291,36.2141 20.0339,8.48585 42.8443,6.34493 61.0488,-5.70914 18.373,-12.17084 29.3371,-32.58101 29.3371,-54.58714 V 29.206227 L 842.38487,27.130176 h -0.10329"
       style="fill:#fcfafa;fill-opacity:1;fill-rule:nonzero;stroke:none;stroke-width:0.129754"
       id="path92" />
    <g
       id="g94"
       transform="matrix(0.12975312,0,0,0.12975312,-553.42127,-570.51268)">
      <g
         id="g96"
         clip-path="url(#clipPath100)">
        <path
           d="m 4814.29,5804 c 0,0 -157.37,-248 -196.96,-942.6 -3.69,-64.7 47.57,-119.8 112.39,-119.8 h 1230.84 c 49.52,0 84.86,48.5 69.01,95.5 -72.12,213.4 -290.2,733.9 -776.8,1031.3 L 4814.29,5804"
           style="fill:url(#linearGradient106);fill-opacity:1;fill-rule:nonzero;stroke:none"
           id="path108" />
      </g>
    </g>
    <g
       id="g110"
       transform="matrix(0.12975312,0,0,0.12975312,-553.42127,-570.51268)">
      <g
         id="g112"
         clip-path="url(#clipPath116)">
        <path
           d="m 4760.81,6274.6 69.61,-583.7 c 6.01,-50.3 45.48,-90.7 95.87,-96.5 67.31,-7.7 165.17,-13.2 260.26,2.5 86.43,14.3 148.65,91.2 148.65,178.9 v 563.6 l -574.39,-64.8"
           style="fill:url(#linearGradient122);fill-opacity:1;fill-rule:nonzero;stroke:none"
           id="path124" />
      </g>
    </g>
    <g
       id="g126"
       transform="matrix(0.12975312,0,0,0.12975312,-553.42127,-570.51268)">
      <g
         id="g128"
         clip-path="url(#clipPath132)">
        <path
           d="m 7859.62,5868.4 c 0,0 -235.59,-366.2 -230.54,-868.8 1.18,-118.4 100.3,-212.7 218.7,-212.7 H 9759.4 c 89.52,0 125.86,115 52.61,166.4 -361.74,254 -1072.72,728.6 -1586.96,915.1 h -365.43"
           style="fill:url(#linearGradient138);fill-opacity:1;fill-rule:nonzero;stroke:none"
           id="path140" />
      </g>
    </g>
    <g
       id="g142"
       transform="matrix(0.12975312,0,0,0.12975312,-553.42127,-570.51268)">
      <g
         id="g144"
         clip-path="url(#clipPath148)">
        <path
           d="m 7662.75,6498.8 148.49,-720.9 c 16.6,-80.7 95.49,-134.9 175.84,-117 48.85,10.9 106.47,31.8 168.06,70.3 58.52,36.6 88.17,106.2 76.22,174.2 l -153.6,873.4 -415.01,-280"
           style="fill:url(#linearGradient154);fill-opacity:1;fill-rule:nonzero;stroke:none"
           id="path156" />
      </g>
    </g>
    <g
       id="g158"
       transform="matrix(0.12975312,0,0,0.12975312,-553.42127,-570.51268)">
      <g
         id="g160"
         clip-path="url(#clipPath164)">
        <path
           d="m 5033.56,16522.2 c 0,0 -516.3,-455.1 -613.48,-1002.8 -97.16,-547.6 275.31,-9448.7 275.31,-9448.7 0,0 516.28,-85.9 782.42,75.4 0,0 315.66,5776.7 555.6,7111.6 0,0 1258.3,-5984 1606.94,-7065.2 0,0 497.39,-60.5 657.79,34.2 0,0 -329.6,7756.8 -743.77,9135.8 l -2520.81,1159.7"
           style="fill:url(#linearGradient170);fill-opacity:1;fill-rule:nonzero;stroke:none"
           id="path172" />
      </g>
    </g>
    <g
       id="g174"
       transform="matrix(0.12975312,0,0,0.12975312,-553.42127,-570.51268)">
      <g
         id="g176"
         clip-path="url(#clipPath180)">
        <path
           d="m 6018.37,13476 c -11.33,0 -21.66,7.6 -24.65,19 l -216.79,831.7 -465.45,298.5 c -11.86,7.6 -15.28,23.4 -7.67,35.3 7.57,11.9 23.32,15.3 35.25,7.7 l 473.82,-304 c 5.38,-3.4 9.27,-8.8 10.89,-15 l 219.32,-841.3 c 3.56,-13.6 -4.62,-27.5 -18.24,-31.1 -2.16,-0.6 -4.32,-0.8 -6.48,-0.8"
           style="fill:url(#linearGradient186);fill-opacity:1;fill-rule:nonzero;stroke:none"
           id="path188" />
      </g>
    </g>
    <g
       id="g190"
       transform="matrix(0.12975312,0,0,0.12975312,-553.42127,-570.51268)">
      <g
         id="g192"
         clip-path="url(#clipPath196)">
        <path
           d="m 9884.87,21404 c -2173.46,180.5 -2741.52,-269.3 -2741.52,-269.3 l 1044.49,-1648.9 c 0,0 2135.66,42.1 3665.86,1221.6 -286.3,308.4 -485.2,649.3 -612.8,914.7 -394.6,-164 -849,-260.1 -1356.03,-218.1"
           style="fill:url(#linearGradient202);fill-opacity:1;fill-rule:nonzero;stroke:none"
           id="path204" />
      </g>
    </g>
    <g
       id="g206"
       transform="matrix(0.12975312,0,0,0.12975312,-553.42127,-570.51268)">
      <g
         id="g208"
         clip-path="url(#clipPath212)">
        <path
           d="m 13288.5,24594.4 c -2.9,69.6 -97.3,88.6 -126.9,25.5 l -277.4,-591.8 c -53.5,-114.4 -70.7,-242.4 -49.2,-366.9 l 97.3,-344.4 c 29.1,-168 -14.8,-340.1 -121.2,-473.2 -254.9,-318.6 -797.6,-900.5 -1570.2,-1221.5 127.6,-265.4 326.5,-606.3 612.8,-914.7 561.5,432.8 1041.6,1018.4 1304.7,1811.6 126,38.7 210.2,157.4 205.2,289.1 l -75.1,1786.3"
           style="fill:url(#linearGradient218);fill-opacity:1;fill-rule:nonzero;stroke:none"
           id="path220" />
      </g>
    </g>
    <g
       id="g222"
       transform="matrix(0.12975312,0,0,0.12975312,-553.42127,-570.51268)">
      <g
         id="g224"
         clip-path="url(#clipPath228)">
        <path
           d="m 10844,20709.4 c -765.1,824.5 -2222.54,1197 -3066.34,1350 -369.68,67.1 -734.07,-138.6 -865.06,-490.8 -379.73,-1020.7 -1412.48,-3676.4 -1612.65,-4132.8 -164.23,-374.5 -335.71,-740.2 -444.66,-968.8 -65.1,-136.6 -8.22,-300.1 128.09,-365.8 709.93,-342.2 1987.36,-729.3 2505.25,-880.4 113.92,-33.2 227.35,52.3 227.35,171 0,100.6 27.35,199.4 79.14,285.7 l 1961.37,3268.4 C 10979,17590.4 12049.6,17466.5 12872,17763.2 c -138.3,427.4 -228.8,855.5 -272.2,1284.5 -1215,208.2 -1755.8,1661.7 -1755.8,1661.7"
           style="fill:url(#linearGradient234);fill-opacity:1;fill-rule:nonzero;stroke:none"
           id="path236" />
      </g>
    </g>
    <g
       id="g238"
       transform="matrix(0.12975312,0,0,0.12975312,-553.42127,-570.51268)">
      <g
         id="g240"
         clip-path="url(#clipPath244)">
        <path
           d="m 14608.1,19275.2 -219.3,292.4 c -709.9,-487.5 -1303.2,-603.1 -1789,-519.9 43.4,-429 133.9,-857.1 272.2,-1284.5 1083.5,390.9 1736.1,1512 1736.1,1512"
           style="fill:url(#linearGradient250);fill-opacity:1;fill-rule:nonzero;stroke:none"
           id="path252" />
      </g>
    </g>
    <g
       id="g254"
       transform="matrix(0.12975312,0,0,0.12975312,-553.42127,-570.51268)">
      <g
         id="g256"
         clip-path="url(#clipPath260)">
        <path
           d="m 8938.29,23573.6 -651.77,-1590.4 c 0,0 748.89,-518.4 1351.39,-469.1 l 325.28,1430.2 -1024.9,629.3"
           style="fill:url(#linearGradient266);fill-opacity:1;fill-rule:nonzero;stroke:none"
           id="path268" />
      </g>
    </g>
    <g
       id="g270"
       transform="matrix(0.12975312,0,0,0.12975312,-553.42127,-570.51268)">
      <g
         id="g272"
         clip-path="url(#clipPath276)">
        <path
           d="m 10039.3,24657.9 c 14.9,-21.2 471.5,-1670.6 471.5,-1670.6 l -947.38,-240.7 -665.03,1499 c 0,0 890.97,766.3 1140.91,412.3"
           style="fill:url(#linearGradient282);fill-opacity:1;fill-rule:nonzero;stroke:none"
           id="path284" />
      </g>
    </g>
    <g
       id="g286"
       transform="matrix(0.12975312,0,0,0.12975312,-553.42127,-570.51268)"
       style="fill:#2b0000">
      <g
         id="g288"
         clip-path="url(#clipPath292)"
         style="fill:#2b0000">
        <path
           d="m 9255.14,24017.9 288.29,-816.6 c 3.69,-10.5 8.64,-20.1 15.03,-29.2 39.12,-55.6 187.74,-237 364.03,-73.6 159.91,148.2 308.11,281.2 445.01,305.3 61.4,10.8 121,-26.7 137.6,-86.8 41.4,-149.9 128.6,-489.4 159.3,-795.8 6.2,-62.2 -36.7,-118.4 -98.1,-130.1 -185,-35.1 -577.37,-98.3 -904.89,-75.2 -44.38,3.1 -83.44,29.7 -101.95,70.2 -90.25,197.2 -366.8,795.6 -469.66,950.4 -96.54,145.4 -333.2,141.3 -432.46,132.5 -32.54,-2.9 -64.53,7.6 -89.1,29.1 -86.83,76.2 -252.09,270.5 -19.62,503.1 48.65,48.7 47.34,127.2 -2.8,174.4 -99.83,93.8 -206.6,260.3 -40.27,466.8 169.05,209.8 392.21,176.4 528.95,126.6 55.28,-20.2 115.59,3.1 145.64,53.7 17.12,28.8 46.95,50.6 98.71,46.2 69.72,-6 128.36,52.2 127.11,122.2 -2.42,134.4 45.71,304.3 278.94,376.9 413.8,128.8 671.9,-271 697.5,-569.4 25.5,-298.3 -431.09,-412.5 -699.59,-392.3 -204.16,15.3 -355.73,-187.1 -416.66,-285 -19.3,-31 -23.16,-69 -11.01,-103.4"
           style="fill:#2b0000;fill-opacity:1;fill-rule:nonzero;stroke:none"
           id="path300" />
      </g>
    </g>
    <g
       id="g302"
       transform="matrix(0.12975312,0,0,0.12975312,-553.42127,-570.51268)">
      <g
         id="g304"
         clip-path="url(#clipPath308)">
        <path
           d="m 9197.72,23040.3 c 0,0 -66.85,517.9 -282.3,543.3 -215.45,25.4 -425.16,-151.7 -210.95,-442.4 266.44,-361.6 493.25,-100.9 493.25,-100.9"
           style="fill:url(#linearGradient314);fill-opacity:1;fill-rule:nonzero;stroke:none"
           id="path316" />
      </g>
    </g>
    <g
       id="g318"
       transform="matrix(0.12975312,0,0,0.12975312,-553.42127,-570.51268)"
       style="fill:#0000d4">
      <g
         id="g320"
         clip-path="url(#clipPath324)"
         style="fill:#0000d4">
        <path
           d="m 18027.9,20004.6 c 233.8,370.1 427.3,944.8 216.5,1732 -404.7,1511.1 -1780.9,1430.1 -2455.5,1133.3 -569.2,-250.5 -1234.4,-1730.4 -472,-2770.2 158.7,-216.5 1.2,-521.8 -267.2,-521.8 h -3257.3 l -100.6,10457.2 c -2.3,248.2 199.4,450.1 447.7,447.9 l 9300,-84.8 v -3310.9 c 0,-364.8 421.8,-575.7 707.9,-349.2 246.1,194.9 555.5,349.6 927,368.2 1079.3,53.9 2104.7,-755.6 2212.6,-1834.9 107.9,-1079.3 -917.4,-2212.6 -1942.8,-2050.7 -486.2,76.7 -948.1,271.4 -1299.5,454.8 -293.2,153 -643.3,-59.7 -643.3,-390.4 V 19497 h -3096.2 c -260.7,0 -416.5,287.1 -277.3,507.6"
           style="fill:#0000d4;fill-opacity:1;fill-rule:nonzero;stroke:none"
           id="path332" />
      </g>
    </g>
    <g
       id="g334"
       transform="matrix(0.12975312,0,0,0.12975312,-553.42127,-570.51268)">
      <g
         id="g336"
         clip-path="url(#clipPath340)">
        <path
           d="m 14453.4,19269.9 1235.3,-48.1 692.1,1211.6 c 33.3,58.2 -16.3,131.3 -82.1,118.1 -301.3,-60.3 -536.4,-442.4 -644.2,-651 -42.1,-81.6 -130.1,-128.7 -221.5,-120.1 -213.1,20.3 -587.8,53.4 -768.8,53.6 -216.9,0.3 -336.9,-249.2 -320.1,-354.9 3.4,-21.6 6.2,-34.6 6.2,-34.6 l 103.1,-174.6"
           style="fill:url(#linearGradient346);fill-opacity:1;fill-rule:nonzero;stroke:none"
           id="path348" />
      </g>
    </g>
    <g
       id="g24466"
       transform="matrix(0.12975312,0,0,0.12975312,-553.42127,-570.51268)">
      <g
         id="g24464"
         clip-path="url(#clipPath82)">
        <path
           d="m 10757.3,4674.1 c -200.8,-0.4 -363.8,162.3 -363.8,363.1 v 2624 c 0,338.4 6.7,3480.7 6.7,3824.9 v 3467.6 h 3201.5 c 263.9,0 418.7,300 262.7,512.8 -749.4,1022 -95.5,2476.6 463.9,2722.8 663.1,291.8 2015.7,371.3 2413.5,-1113.9 207.2,-773.7 17,-1338.6 -212.7,-1702.4 -136.9,-216.6 16.2,-498.9 272.5,-498.9 h 3043.2 v -3567 c 0,-349.5 -392.3,-555.1 -679.2,-355.8 -411,285.6 -909.7,604.1 -1196.8,687.2 -549.9,159.2 -1677.9,-159.1 -1853.7,-1485.2 -175.7,-1326.1 706.3,-2280.8 1864.9,-2227.8 519.5,23.8 948.1,151.2 1262.9,284.4 285.7,121 601.9,-91.7 601.9,-402 v -3118 l -9087.5,-15.8"
           style="fill:url(#linearGradient88);fill-opacity:1;fill-rule:nonzero;stroke:none"
           id="path24462" />
      </g>
    </g>
    <g
       id="g24472"
       transform="matrix(0.12975312,0,0,0.12975312,-553.42127,-570.51268)"
       style="fill:#00cc00;fill-opacity:1">
      <g
         id="g24470"
         clip-path="url(#clipPath82)"
         style="fill:#00cc00;fill-opacity:1">
        <path
           d="m 10757.3,4674.1 c -200.8,-0.4 -363.8,162.3 -363.8,363.1 v 2624 c 0,338.4 6.7,3480.7 6.7,3824.9 v 3467.6 h 3201.5 c 263.9,0 418.7,300 262.7,512.8 -749.4,1022 -95.5,2476.6 463.9,2722.8 663.1,291.8 2015.7,371.3 2413.5,-1113.9 207.2,-773.7 17,-1338.6 -212.7,-1702.4 -136.9,-216.6 16.2,-498.9 272.5,-498.9 h 3043.2 v -3567 c 0,-349.5 -392.3,-555.1 -679.2,-355.8 -411,285.6 -909.7,604.1 -1196.8,687.2 -549.9,159.2 -1677.9,-159.1 -1853.7,-1485.2 -175.7,-1326.1 706.3,-2280.8 1864.9,-2227.8 519.5,23.8 948.1,151.2 1262.9,284.4 285.7,121 601.9,-91.7 601.9,-402 v -3118 l -9087.5,-15.8"
           style="fill:#00cc00;fill-opacity:1;fill-rule:nonzero;stroke:none"
           id="path24468" />
      </g>
    </g>
  </g>
</svg>
