<?xml version="1.0" encoding="UTF-8" standalone="no"?>
<!-- Generator: Adobe Illustrator 22.1.0, SVG Export Plug-In . SVG Version: 6.00 Build 0)  -->

<svg
   version="1.1"
   width="4946.6665"
   height="4946.6665"
   x="0px"
   y="0px"
   viewBox="0 0 3710 3710"
   style="enable-background:new 0 0 3710 3710;"
   xml:space="preserve"
   id="svg1392"
   sodipodi:docname="service-resolution.svg"
   inkscape:export-filename="20943572 [Converted].png"
   inkscape:export-xdpi="96"
   inkscape:export-ydpi="96"
   inkscape:version="1.2.2 (732a01da63, 2022-12-09)"
   xmlns:inkscape="http://www.inkscape.org/namespaces/inkscape"
   xmlns:sodipodi="http://sodipodi.sourceforge.net/DTD/sodipodi-0.dtd"
   xmlns="http://www.w3.org/2000/svg"
   xmlns:svg="http://www.w3.org/2000/svg"><defs
   id="defs1396">
	

		<linearGradient
   id="SVGID_1_"
   gradientUnits="userSpaceOnUse"
   x1="3397.7593"
   y1="3498.6121"
   x2="1540.7953"
   y2="1521.8446"
   gradientTransform="matrix(1.3091838,0,0,1.3091838,-542.83253,-517.07651)">
			<stop
   offset="0"
   style="stop-color:#DAE3FE"
   id="stop874" />
			<stop
   offset="1"
   style="stop-color:#E9EFFD"
   id="stop876" />
		</linearGradient>
		
		
		
	
			
				<linearGradient
   id="SVGID_17_"
   gradientUnits="userSpaceOnUse"
   x1="-2032.577"
   y1="-10440.442"
   x2="-1975.7598"
   y2="-10440.442"
   gradientTransform="matrix(-1.2847021,0.25214882,-0.25214882,-1.2847021,-3680.9425,-10702.191)">
				<stop
   offset="0"
   style="stop-color:#FEBBBA"
   id="stop1030" />
				<stop
   offset="1"
   style="stop-color:#FF928E"
   id="stop1032" />
			</linearGradient>
			
			
			
		
				
				<linearGradient
   id="SVGID_20_"
   gradientUnits="userSpaceOnUse"
   x1="2580.6934"
   y1="1277.2151"
   x2="2423.0916"
   y2="1587.9795">
					<stop
   offset="0"
   style="stop-color:#0000d4;stop-opacity:1;"
   id="stop1053" />
					<stop
   offset="1"
   style="stop-color:#1A0F91"
   id="stop1055" />
				</linearGradient>
				
				
					<linearGradient
   id="SVGID_21_"
   gradientUnits="userSpaceOnUse"
   x1="850.19629"
   y1="1759.2114"
   x2="808.7088"
   y2="1634.7488"
   gradientTransform="matrix(1.3091838,0,0,1.3091838,1146.1484,-517.07651)">
					<stop
   offset="0"
   style="stop-color:#FEBBBA"
   id="stop1060" />
					<stop
   offset="1"
   style="stop-color:#FF928E"
   id="stop1062" />
				</linearGradient>
				
				
				
				
				
					<linearGradient
   id="SVGID_31_"
   gradientUnits="userSpaceOnUse"
   x1="-229.3423"
   y1="3162.5823"
   x2="722.58368"
   y2="1846.499"
   gradientTransform="matrix(-1.3091838,0,0,1.3091838,2626.3854,-517.07651)">
					<stop
   offset="0"
   style="stop-color:#09005d;stop-opacity:1;"
   id="stop1138" />
					<stop
   offset="1"
   style="stop-color:#1A0F91"
   id="stop1140" />
				</linearGradient>
				
				
				<linearGradient
   id="SVGID_42_"
   gradientUnits="userSpaceOnUse"
   x1="2396.0161"
   y1="2120.72"
   x2="2254.75"
   y2="2392.386"
   gradientTransform="matrix(1.3091838,0,0,1.3091838,-542.83253,-517.07651)">
					<stop
   offset="0"
   style="stop-color:#FEBBBA"
   id="stop1221" />
					<stop
   offset="1"
   style="stop-color:#FF928E"
   id="stop1223" />
				</linearGradient>
				
				
			
				
				
					<linearGradient
   id="SVGID_52_"
   gradientUnits="userSpaceOnUse"
   x1="3007.7036"
   y1="-850.51898"
   x2="2272.969"
   y2="-104.6855"
   gradientTransform="matrix(0.991,-0.1339,0.1339,0.991,690.6002,157.8111)">
					<stop
   offset="0"
   style="stop-color:#FF928E"
   id="stop1297" />
					<stop
   offset="1"
   style="stop-color:#FE7062"
   id="stop1299" />
				</linearGradient>
				
				<linearGradient
   id="SVGID_53_"
   gradientUnits="userSpaceOnUse"
   x1="1175.5846"
   y1="1861.944"
   x2="1300.62"
   y2="1580.6144">
					<stop
   offset="0"
   style="stop-color:#4f52ff;stop-opacity:1;"
   id="stop1304" />
					<stop
   offset="1"
   style="stop-color:#C0423C"
   id="stop1306" />
				</linearGradient>
				
				
				
				<linearGradient
   id="SVGID_61_"
   gradientUnits="userSpaceOnUse"
   x1="1839.663"
   y1="2091.7253"
   x2="855.06158"
   y2="1913.682">
					<stop
   offset="0"
   style="stop-color:#A22B25"
   id="stop1364" />
					<stop
   offset="1"
   style="stop-color:#C0423C"
   id="stop1366" />
				</linearGradient>
				
				<linearGradient
   id="SVGID_62_"
   gradientUnits="userSpaceOnUse"
   x1="1490.1113"
   y1="1341.505"
   x2="601.14697"
   y2="3019.5527">
					<stop
   offset="0"
   style="stop-color:#4f52ff;stop-opacity:1;"
   id="stop1371" />
					<stop
   offset="1"
   style="stop-color:#E9605A"
   id="stop1373" />
				</linearGradient>
				
				<linearGradient
   id="SVGID_63_"
   gradientUnits="userSpaceOnUse"
   x1="1493.2131"
   y1="1343.1514"
   x2="604.24902"
   y2="3021.1987">
					<stop
   offset="0"
   style="stop-color:#4f52ff;stop-opacity:1;"
   id="stop1378" />
					<stop
   offset="1"
   style="stop-color:#E9605A"
   id="stop1380" />
				</linearGradient>
				
			
			<linearGradient
   id="SVGID_2_"
   gradientUnits="userSpaceOnUse"
   x1="2421.4595"
   y1="2151.8665"
   x2="3017.4019"
   y2="2151.8665">
				<stop
   offset="0"
   style="stop-color:#00cc00;stop-opacity:1;"
   id="stop881" />
				<stop
   offset="1"
   style="stop-color:#4042E2"
   id="stop883" />
			</linearGradient>
			
			
			
			
			<linearGradient
   id="SVGID_4_"
   gradientUnits="userSpaceOnUse"
   x1="2503.8081"
   y1="1242.8999"
   x2="1654.1923"
   y2="-523.15771"
   gradientTransform="matrix(1.3091838,0,0,1.3091838,-542.83253,-517.07651)">
				<stop
   offset="0"
   style="stop-color:#00cc00;stop-opacity:1;"
   id="stop907" />
				<stop
   offset="1"
   style="stop-color:#4F52FF"
   id="stop909" />
			</linearGradient>
			
			
			<defs
   id="defs921">
				<filter
   id="Adobe_OpacityMaskFilter"
   filterUnits="userSpaceOnUse"
   x="519.20001"
   y="655.59998"
   width="1768.5"
   height="2391">
					<feFlood
   result="back"
   id="feFlood916" />
					<feBlend
   in="SourceGraphic"
   in2="back"
   mode="normal"
   id="feBlend918" />
				</filter>
			</defs>
			<mask
   maskUnits="userSpaceOnUse"
   x="519.2"
   y="655.6"
   width="1768.5"
   height="2391"
   id="mask942">
				<g
   class="st8"
   id="g940">
					<defs
   id="defs928">
						<filter
   id="Adobe_OpacityMaskFilter_1_"
   filterUnits="userSpaceOnUse"
   x="519.20001"
   y="655.59998"
   width="1768.5"
   height="2391">
							<feFlood
   result="back"
   id="feFlood923" />
							<feBlend
   in="SourceGraphic"
   in2="back"
   mode="normal"
   id="feBlend925" />
						</filter>
					</defs>
					<mask
   maskUnits="userSpaceOnUse"
   x="519.2"
   y="655.6"
   width="1768.5"
   height="2391"
   id="SVGID_5_">
						<g
   class="st9"
   id="g930">
						</g>
					</mask>
					<linearGradient
   id="SVGID_6_"
   gradientUnits="userSpaceOnUse"
   x1="2068.2991"
   y1="1106.5225"
   x2="-196.05791"
   y2="4004.2043">
						<stop
   offset="0"
   style="stop-color:#FFFFFF"
   id="stop933" />
						<stop
   offset="1"
   style="stop-color:#000000"
   id="stop935" />
					</linearGradient>
					<path
   class="st10"
   d="m 748.1,712.2 1470.5,-56.6 c -60.7,449 -35.1,1363.4 -11.9,2264.5 1.4,53.4 32.7,101.5 81,124.3 v 0 c 0,0 -980.8,11.3 -1402.3,-18.6 -99.2,-7 -180.2,-82.1 -194.9,-180.5 C 632.6,2459.2 494.2,1461.8 523,933.8 529.7,812.9 627.1,716.8 748.1,712.2 Z"
   mask="url(#SVGID_5_)"
   id="path938" />
				</g>
			</mask>
			<linearGradient
   id="SVGID_7_"
   gradientUnits="userSpaceOnUse"
   x1="2068.2991"
   y1="1106.5225"
   x2="-196.05791"
   y2="4004.2043">
				<stop
   offset="0"
   style="stop-color:#FFFFFF"
   id="stop944" />
				<stop
   offset="1"
   style="stop-color:#FFFFFF"
   id="stop946" />
			</linearGradient>
			
			
			
			
			
			
			<linearGradient
   id="SVGID_16_"
   gradientUnits="userSpaceOnUse"
   x1="1837.3134"
   y1="2297.5972"
   x2="1524.3291"
   y2="3098.926">
				<stop
   offset="0"
   style="stop-color:#09005D"
   id="stop1019" />
				<stop
   offset="1"
   style="stop-color:#1A0F91"
   id="stop1021" />
			</linearGradient>
			
			
		
					<linearGradient
   id="SVGID_54_"
   gradientUnits="userSpaceOnUse"
   x1="1134.1946"
   y1="1421.4891"
   x2="1311.7745"
   y2="1692.2982">
						<stop
   offset="0"
   style="stop-color:#A22B25"
   id="stop1311" />
						<stop
   offset="1"
   style="stop-color:#C0423C"
   id="stop1313" />
					</linearGradient>
					
					<linearGradient
   id="SVGID_55_"
   gradientUnits="userSpaceOnUse"
   x1="1150.8195"
   y1="1468.8466"
   x2="1284.1656"
   y2="1625.0264">
						<stop
   offset="0"
   style="stop-color:#09005D"
   id="stop1318" />
						<stop
   offset="1"
   style="stop-color:#1A0F91"
   id="stop1320" />
					</linearGradient>
					
					<linearGradient
   id="SVGID_56_"
   gradientUnits="userSpaceOnUse"
   x1="1087.76"
   y1="1451.9381"
   x2="1265.3401"
   y2="1722.7473">
						<stop
   offset="0"
   style="stop-color:#A22B25"
   id="stop1325" />
						<stop
   offset="1"
   style="stop-color:#C0423C"
   id="stop1327" />
					</linearGradient>
					
				
					
						<linearGradient
   id="SVGID_45_"
   gradientUnits="userSpaceOnUse"
   x1="-218.7589"
   y1="3152.7793"
   x2="-97.189301"
   y2="3152.7793"
   gradientTransform="translate(1290.1023)">
						<stop
   offset="0"
   style="stop-color:#09005D"
   id="stop1246" />
						<stop
   offset="1"
   style="stop-color:#1A0F91"
   id="stop1248" />
					</linearGradient>
					
					
						<linearGradient
   id="SVGID_46_"
   gradientUnits="userSpaceOnUse"
   x1="85.584503"
   y1="3009.3616"
   x2="-356.68961"
   y2="3356.6365"
   gradientTransform="translate(1290.1023)">
						<stop
   offset="0"
   style="stop-color:#4042E2"
   id="stop1253" />
						<stop
   offset="1"
   style="stop-color:#4F52FF"
   id="stop1255" />
					</linearGradient>
					
					
						<linearGradient
   id="SVGID_47_"
   gradientUnits="userSpaceOnUse"
   x1="-184.9516"
   y1="3014.3777"
   x2="-208.1734"
   y2="3217.0422"
   gradientTransform="translate(1290.1023)">
						<stop
   offset="0"
   style="stop-color:#A22B25"
   id="stop1260" />
						<stop
   offset="1"
   style="stop-color:#C0423C"
   id="stop1262" />
					</linearGradient>
					
					
						<linearGradient
   id="SVGID_48_"
   gradientUnits="userSpaceOnUse"
   x1="164.1521"
   y1="3109.2776"
   x2="-278.1228"
   y2="3456.5532"
   gradientTransform="translate(1290.1023)">
						<stop
   offset="0"
   style="stop-color:#4042E2"
   id="stop1267" />
						<stop
   offset="1"
   style="stop-color:#4F52FF"
   id="stop1269" />
					</linearGradient>
					
					
						<linearGradient
   id="SVGID_49_"
   gradientUnits="userSpaceOnUse"
   x1="-33.640701"
   y1="3155.8691"
   x2="141.3573"
   y2="3155.8691"
   gradientTransform="translate(1290.1023)">
						<stop
   offset="0"
   style="stop-color:#09005D"
   id="stop1274" />
						<stop
   offset="1"
   style="stop-color:#1A0F91"
   id="stop1276" />
					</linearGradient>
					
					
						<linearGradient
   id="SVGID_50_"
   gradientUnits="userSpaceOnUse"
   x1="110.5274"
   y1="2982.9355"
   x2="87.305199"
   y2="3185.6033"
   gradientTransform="matrix(0.998,-0.0629,0.0629,0.998,993.2088,65.7657)">
						<stop
   offset="0"
   style="stop-color:#A22B25"
   id="stop1281" />
						<stop
   offset="1"
   style="stop-color:#C0423C"
   id="stop1283" />
					</linearGradient>
					
					<linearGradient
   id="SVGID_51_"
   gradientUnits="userSpaceOnUse"
   x1="1098.74"
   y1="3246.1304"
   x2="1270.663"
   y2="1987.9596">
						<stop
   offset="0"
   style="stop-color:#4F52FF"
   id="stop1288" />
						<stop
   offset="1"
   style="stop-color:#4042E2"
   id="stop1290" />
					</linearGradient>
					
				
					<linearGradient
   id="SVGID_22_"
   gradientUnits="userSpaceOnUse"
   x1="2043.3904"
   y1="1606.4731"
   x2="2192.5046"
   y2="1671.3057">
						<stop
   offset="0"
   style="stop-color:#FEBBBA"
   id="stop1067" />
						<stop
   offset="1"
   style="stop-color:#FF928E"
   id="stop1069" />
					</linearGradient>
					
					
						<linearGradient
   id="SVGID_23_"
   gradientUnits="userSpaceOnUse"
   x1="4959.7886"
   y1="5818.8735"
   x2="5137.915"
   y2="5818.8735"
   gradientTransform="matrix(-0.6854,-0.7281,-0.7281,0.6854,9787.373,1318.7853)">
						<stop
   offset="0"
   style="stop-color:#09005D"
   id="stop1074" />
						<stop
   offset="1"
   style="stop-color:#1A0F91"
   id="stop1076" />
					</linearGradient>
					
					<linearGradient
   id="SVGID_24_"
   gradientUnits="userSpaceOnUse"
   x1="2034.0984"
   y1="1627.8447"
   x2="2183.2126"
   y2="1692.677">
						<stop
   offset="0"
   style="stop-color:#FEBBBA"
   id="stop1081" />
						<stop
   offset="1"
   style="stop-color:#FF928E"
   id="stop1083" />
					</linearGradient>
					
				
					<linearGradient
   id="SVGID_43_"
   gradientUnits="userSpaceOnUse"
   x1="2680.4897"
   y1="1327.8269"
   x2="2522.8879"
   y2="1638.5913">
						<stop
   offset="0"
   style="stop-color:#0000d4;stop-opacity:1;"
   id="stop1228" />
						<stop
   offset="1"
   style="stop-color:#1A0F91"
   id="stop1230" />
					</linearGradient>
					
					<linearGradient
   id="SVGID_44_"
   gradientUnits="userSpaceOnUse"
   x1="2730.9832"
   y1="1486.4933"
   x2="1836.2012"
   y2="2498.4973">
						<stop
   offset="0"
   style="stop-color:#4042E2"
   id="stop1235" />
						<stop
   offset="1"
   style="stop-color:#4F52FF"
   id="stop1237" />
					</linearGradient>
					
				
				<linearGradient
   id="linearGradient9706"
   gradientUnits="userSpaceOnUse"
   x1="728.28583"
   y1="1481.8649"
   x2="963.37543"
   y2="1481.8649">
					<stop
   offset="0"
   style="stop-color:#DAE3FE"
   id="stop951-1" />
					<stop
   offset="1"
   style="stop-color:#E9EFFD"
   id="stop953-2" />
				</linearGradient>
				
				<linearGradient
   id="linearGradient9711"
   gradientUnits="userSpaceOnUse"
   x1="1032.3932"
   y1="1379.6897"
   x2="2028.5472"
   y2="1379.6897">
					<stop
   offset="0"
   style="stop-color:#DAE3FE"
   id="stop958-4" />
					<stop
   offset="1"
   style="stop-color:#E9EFFD"
   id="stop960-0" />
				</linearGradient>
				
				<linearGradient
   id="linearGradient9716"
   gradientUnits="userSpaceOnUse"
   x1="1050.655"
   y1="1539.606"
   x2="1719.2996"
   y2="1539.606">
					<stop
   offset="0"
   style="stop-color:#DAE3FE"
   id="stop965-8" />
					<stop
   offset="1"
   style="stop-color:#E9EFFD"
   id="stop967-1" />
				</linearGradient>
				
			
					
						<linearGradient
   id="SVGID_18_"
   gradientUnits="userSpaceOnUse"
   x1="271.30939"
   y1="2017.9856"
   x2="530.03058"
   y2="2017.9856"
   gradientTransform="translate(1290.1023)">
						<stop
   offset="0"
   style="stop-color:#FEBBBA"
   id="stop1037" />
						<stop
   offset="1"
   style="stop-color:#FF928E"
   id="stop1039" />
					</linearGradient>
					
					<linearGradient
   id="SVGID_19_"
   gradientUnits="userSpaceOnUse"
   x1="2329.041"
   y1="1149.5902"
   x2="2171.4387"
   y2="1460.3558">
						<stop
   offset="0"
   style="stop-color:#09005D"
   id="stop1044" />
						<stop
   offset="1"
   style="stop-color:#1A0F91"
   id="stop1046" />
					</linearGradient>
					
				
					
						<linearGradient
   id="SVGID_25_"
   gradientUnits="userSpaceOnUse"
   x1="2427.2026"
   y1="3201.5259"
   x2="2612.5193"
   y2="3201.5259"
   gradientTransform="matrix(-1,0,0,1,4753.7588,0)">
						<stop
   offset="0"
   style="stop-color:#09005d;stop-opacity:1;"
   id="stop1090" />
						<stop
   offset="1"
   style="stop-color:#4F52FF"
   id="stop1092" />
					</linearGradient>
					
					<linearGradient
   id="SVGID_26_"
   gradientUnits="userSpaceOnUse"
   x1="2773.8545"
   y1="3028.145"
   x2="2102.8403"
   y2="3219.3999"
   gradientTransform="matrix(1.3091838,0,0,1.3091838,-542.83253,-517.07651)">
						<stop
   offset="0"
   style="stop-color:#09005D"
   id="stop1097" />
						<stop
   offset="1"
   style="stop-color:#1A0F91"
   id="stop1099" />
					</linearGradient>
					
					
						<linearGradient
   id="SVGID_27_"
   gradientUnits="userSpaceOnUse"
   x1="2444.3115"
   y1="3114.4993"
   x2="2496.512"
   y2="3114.4993"
   gradientTransform="matrix(-1.3091838,0,0,1.3091838,5680.7117,-517.07651)">
						<stop
   offset="0"
   style="stop-color:#FEBBBA"
   id="stop1104" />
						<stop
   offset="1"
   style="stop-color:#FF928E"
   id="stop1106" />
					</linearGradient>
					
				
					
					
						<linearGradient
   id="SVGID_30_"
   gradientUnits="userSpaceOnUse"
   x1="2112.4563"
   y1="3070.9836"
   x2="2174.8403"
   y2="3070.9836"
   gradientTransform="matrix(-1.3091838,0,0,1.3091838,5680.7117,-517.07651)">
						<stop
   offset="0"
   style="stop-color:#FEBBBA"
   id="stop1129" />
						<stop
   offset="1"
   style="stop-color:#FF928E"
   id="stop1131" />
					</linearGradient>
					
				
						
							<linearGradient
   id="SVGID_28_"
   gradientUnits="userSpaceOnUse"
   x1="2057.7585"
   y1="3197.5293"
   x2="2128.7744"
   y2="3197.5293"
   gradientTransform="matrix(-1,0,0,1,4753.7588,0)">
							<stop
   offset="0"
   style="stop-color:#4042E2"
   id="stop1113" />
							<stop
   offset="1"
   style="stop-color:#4F52FF"
   id="stop1115" />
						</linearGradient>
						
						<linearGradient
   id="SVGID_29_"
   gradientUnits="userSpaceOnUse"
   x1="2399.7751"
   y1="2989.2722"
   x2="2817.9429"
   y2="3261.5679"
   gradientTransform="matrix(1.3091838,0,0,1.3091838,-542.83253,-517.07651)">
							<stop
   offset="0"
   style="stop-color:#09005D"
   id="stop1120" />
							<stop
   offset="1"
   style="stop-color:#1A0F91"
   id="stop1122" />
						</linearGradient>
						
					</defs><sodipodi:namedview
   id="namedview1394"
   pagecolor="#ffffff"
   bordercolor="#000000"
   borderopacity="0.25"
   inkscape:showpageshadow="2"
   inkscape:pageopacity="0.0"
   inkscape:pagecheckerboard="0"
   inkscape:deskcolor="#d1d1d1"
   showgrid="false"
   inkscape:zoom="0.11529195"
   inkscape:cx="1561.2539"
   inkscape:cy="2090.3454"
   inkscape:window-width="1920"
   inkscape:window-height="1017"
   inkscape:window-x="-8"
   inkscape:window-y="-8"
   inkscape:window-maximized="1"
   inkscape:current-layer="svg1392" />
<style
   type="text/css"
   id="style865">
	.st0{fill:#FFFFFF;}
	.st1{fill:url(#SVGID_1_);}
	.st2{fill:url(#SVGID_2_);}
	.st3{fill:#BDD0FB;}
	.st4{fill:url(#SVGID_3_);}
	.st5{fill:#91B3FA;}
	.st6{fill:#7D97F4;}
	.st7{fill:url(#SVGID_4_);}
	.st8{filter:url(#Adobe_OpacityMaskFilter);}
	.st9{filter:url(#Adobe_OpacityMaskFilter_1_);}
	.st10{mask:url(#SVGID_5_);fill:url(#SVGID_6_);}
	.st11{opacity:0.53;fill:url(#SVGID_7_);}
	.st12{fill:url(#SVGID_8_);}
	.st13{fill:url(#SVGID_9_);}
	.st14{fill:url(#SVGID_10_);}
	.st15{fill:url(#SVGID_11_);}
	.st16{fill:url(#SVGID_12_);}
	.st17{opacity:0.78;fill:#FFFFFF;}
	.st18{fill:url(#SVGID_13_);}
	.st19{fill:url(#SVGID_14_);}
	.st20{fill:url(#SVGID_15_);}
	.st21{fill:url(#SVGID_16_);}
	.st22{fill:url(#SVGID_17_);}
	.st23{fill:url(#SVGID_18_);}
	.st24{fill:url(#SVGID_19_);}
	.st25{fill:url(#SVGID_20_);}
	.st26{fill:url(#SVGID_21_);}
	.st27{fill:url(#SVGID_22_);}
	.st28{fill:url(#SVGID_23_);}
	.st29{fill:url(#SVGID_24_);}
	.st30{fill:url(#SVGID_25_);}
	.st31{fill:url(#SVGID_26_);}
	.st32{fill:url(#SVGID_27_);}
	.st33{fill:url(#SVGID_28_);}
	.st34{fill:url(#SVGID_29_);}
	.st35{fill:url(#SVGID_30_);}
	.st36{fill:url(#SVGID_31_);}
	.st37{fill:url(#SVGID_32_);}
	.st38{fill:url(#SVGID_33_);}
	.st39{fill:url(#SVGID_34_);}
	.st40{fill:url(#SVGID_35_);}
	.st41{fill:url(#SVGID_36_);}
	.st42{fill:url(#SVGID_37_);}
	.st43{fill:url(#SVGID_38_);}
	.st44{fill:url(#SVGID_39_);}
	.st45{fill:url(#SVGID_40_);}
	.st46{fill:url(#SVGID_41_);}
	.st47{fill:url(#SVGID_42_);}
	.st48{fill:url(#SVGID_43_);}
	.st49{fill:url(#SVGID_44_);}
	.st50{fill:url(#SVGID_45_);}
	.st51{fill:url(#SVGID_46_);}
	.st52{fill:url(#SVGID_47_);}
	.st53{fill:url(#SVGID_48_);}
	.st54{fill:url(#SVGID_49_);}
	.st55{fill:url(#SVGID_50_);}
	.st56{fill:url(#SVGID_51_);}
	.st57{fill:url(#SVGID_52_);}
	.st58{fill:url(#SVGID_53_);}
	.st59{fill:url(#SVGID_54_);}
	.st60{fill:url(#SVGID_55_);}
	.st61{fill:url(#SVGID_56_);}
	.st62{fill:url(#SVGID_57_);}
	.st63{fill:url(#SVGID_58_);}
	.st64{fill:url(#SVGID_59_);}
	.st65{fill:url(#SVGID_60_);}
	.st66{fill:url(#SVGID_61_);}
	.st67{fill:url(#SVGID_62_);}
	.st68{fill:url(#SVGID_63_);}
</style>

<path
   class="st1"
   d="m 3175.5115,3024.9204 c -89.8099,92.5594 -170.0629,146.8905 -231.5945,187.9989 C 2344.3107,3613.268 1658.822,3497.9286 1446.996,3458.3914 1105.0372,3394.765 816.4931,3349.86 568.53367,3125.8586 5.0609029,2616.848 32.422846,1554.8379 463.01344,896.97306 514.07161,818.94561 944.00762,181.76587 1630.9364,91.95583 c 16.7576,-2.22561 29.3258,-3.40388 40.3228,-4.58213 106.3058,-11.258992 764.8253,-70.69594 1301.7216,379.27056 76.8492,64.41187 200.5671,180.53648 315.2516,357.66901 419.3316,647.65333 420.6408,1650.88093 -112.7209,2200.60713 z"
   id="path879"
   style="fill:url(#SVGID_1_);stroke-width:1.30918" /><path
   class="st2"
   d="m 2850.3103,1328.6109 305.8254,-71.2195 c 0,0 204.4945,-18.3285 232.1183,163.3862 27.6238,181.7146 19.6377,1258.5184 10.9971,1480.6869 -2.8802,73.1834 -2.4875,140.8682 3.6658,199.7815 12.9609,122.8015 -82.8713,230.1545 -206.3275,232.2493 l -569.364,9.8187 z"
   id="path886"
   style="fill:#00cc00;fill-opacity:1;stroke-width:1.30918" /><g
   id="g897"
   transform="matrix(1.3091838,0,0,1.3091838,-542.83256,-517.07652)">
				<path
   class="st3"
   d="m 2467.6,3015.6 c 0,0 46.7,-654.4 378.6,-1053.3 4.3,-5.2 11.8,-3.9 14.1,2.5 36.2,101 239.5,750.9 -392.7,1050.8 z"
   id="path888" />
				<linearGradient
   id="SVGID_3_"
   gradientUnits="userSpaceOnUse"
   x1="2480.5415"
   y1="2567.3408"
   x2="2831.8562"
   y2="2567.3408">
					<stop
   offset="0"
   style="stop-color:#DAE3FE"
   id="stop890" />
					<stop
   offset="1"
   style="stop-color:#E9EFFD"
   id="stop892" />
				</linearGradient>
				<path
   class="st4"
   d="m 2831.8,2152.2 c -2.8,38.2 -8.3,75.9 -14.7,113.5 -6.6,37.5 -14.4,74.9 -23.6,111.9 -18.3,74.1 -41.1,147.1 -69.2,218.2 -14.2,35.5 -29.2,70.7 -46,105 -8.2,17.3 -17.3,34.1 -26,51.1 -9.3,16.7 -18.3,33.6 -28.3,49.9 -38.9,65.9 -84.4,127.9 -136.3,183.8 -1.5,1.7 -4.2,1.8 -5.8,0.2 -1.6,-1.5 -1.7,-3.9 -0.5,-5.5 v -0.1 c 46.2,-59.9 87.9,-122.9 124,-189 9.3,-16.4 17.6,-33.3 26.5,-49.9 8.2,-16.9 16.8,-33.7 24.5,-50.9 3.8,-8.6 8,-17 11.8,-25.7 l 11.4,-25.9 c 3.7,-8.6 7.2,-17.4 10.9,-26.1 3.7,-8.7 7.1,-17.4 10.5,-26.2 7,-17.5 13.5,-35.2 20.1,-52.8 6.3,-17.8 12.6,-35.5 18.4,-53.5 12.1,-35.7 22.9,-71.9 33.3,-108.2 10.2,-36.4 19.6,-72.9 28.1,-109.8 8.7,-36.8 16.3,-73.9 22.9,-111 v -0.1 c 0.4,-2.2 2.5,-3.7 4.8,-3.3 1.9,0.4 3.4,2.3 3.2,4.4 z"
   id="path895"
   style="fill:url(#SVGID_3_)" />
			</g><g
   id="g903"
   transform="matrix(1.3091838,0,0,1.3091838,-542.83256,-517.07652)">
				<path
   class="st5"
   d="m 2508.7,2944 c 0,0 342.2,-575.6 714.5,-584.6 6.6,-0.2 11.6,5.9 10.3,12.4 -15.9,75.2 -126.7,469 -724.8,572.2 z"
   id="path899" />
				<path
   class="st3"
   d="m 3144.4,2450.7 c -22.6,23.7 -45.8,46.5 -69.3,69 -11.9,11.1 -23.8,22.3 -35.8,33.3 -12.1,10.9 -24.1,21.9 -36.4,32.7 -48.9,43.1 -99.2,84.6 -150.9,124.3 -25.7,20.1 -52.2,39 -78.5,58.4 l -40.1,28 c -6.7,4.6 -13.4,9.3 -20.1,13.9 l -20.5,13.4 c -54.1,36.4 -110.6,69.1 -167.6,100.8 -2,1.1 -4.5,0.4 -5.6,-1.6 -1.1,-2 -0.4,-4.4 1.5,-5.5 l 0.1,-0.1 42,-24.6 21,-12.3 c 6.9,-4.2 13.8,-8.6 20.6,-12.9 l 41.3,-25.8 c 13.6,-8.9 27,-18 40.6,-26.9 l 20.3,-13.5 19.9,-14 39.9,-28 c 26.1,-19.4 52.5,-38.3 78,-58.4 25.8,-19.7 51.1,-40.1 76.4,-60.4 l 37.4,-31.1 37,-31.7 c 12.3,-10.6 24.4,-21.5 36.6,-32.2 12.1,-10.8 24.1,-21.8 36,-32.8 23.8,-22 47.5,-44.3 70.3,-67.3 l 0.1,-0.1 c 1.6,-1.6 4.2,-1.6 5.8,0 1.5,1.2 1.5,3.8 0,5.4 z"
   id="path901" />
			</g><path
   class="st6"
   d="m 2228.5788,1343.4048 c 0,0 556.9267,30.6348 927.6878,-86.0134 0,0 -246.3885,-16.8886 -246.3885,552.0828 0,435.0419 64.5427,1265.3263 8.2479,1422.952 -56.2949,157.6257 -266.9427,369.4518 -568.9713,187.4752 C 2047.126,3237.7938 2228.5788,1343.4048 2228.5788,1343.4048 Z"
   id="path905"
   style="fill:#00cc00;fill-opacity:1;stroke-width:1.30918" /><path
   class="st7"
   d="m 2080.5101,490.34051 c 0,0 614.3999,67.03021 693.6057,-37.18083 0,0 -62.9718,-187.47513 -249.9233,-174.90697 -186.9514,12.43725 -443.6824,212.0878 -443.6824,212.0878 z"
   id="path912"
   style="fill:url(#SVGID_4_);stroke-width:1.30918" /><path
   class="st5"
   d="M 28.061261,744.40194 C 81.606883,1346.4957 194.19669,2620.2008 243.16017,3240.6231 c 10.86624,138.3806 121.75411,247.5666 260.26577,256.4691 493.16961,31.6822 1603.22656,93.083 2029.23516,35.8716 v 0 c -97.5342,-48.0471 -159.0659,-147.8069 -158.1495,-256.6 l 22.6488,-2784.11062 c 0.7856,-98.31972 98.8435,-169.01565 190.8791,-134.58413 57.9968,21.73247 101.9855,68.07759 132.0967,138.51167 -40.192,-117.17196 -103.4254,-202.92352 -249.9232,-174.90697 0,0 -1432.771,14.27011 -2127.9476,57.47317 C 153.21926,390.39867 11.17279,555.74859 28.061261,744.40194 Z"
   id="path914"
   style="fill:#00cc00;fill-opacity:1;stroke-width:1.30918" /><path
   class="st11"
   d="M 436.56792,415.32426 2361.7229,341.22447 c -79.4675,587.8236 -45.9524,1784.94133 -15.5794,2964.64693 1.8328,69.9104 42.8104,132.8822 106.044,162.7316 v 0 c 0,0 -1284.0475,14.7936 -1835.86862,-24.3509 C 486.44782,3435.0878 380.40393,3336.7682 361.15892,3207.9444 285.35718,2702.4685 104.16612,1396.6884 141.87062,705.43943 150.64216,547.15909 278.15667,421.34652 436.56792,415.32426 Z"
   id="path949"
   style="fill:#00fc00;fill-opacity:0;stroke-width:1.30918" /><g
   id="g972"
   style="fill:#d7eef4;fill-opacity:1"
   transform="matrix(1.3091838,0,0,1.3091838,-542.83256,-517.07652)">
				<linearGradient
   id="SVGID_8_"
   gradientUnits="userSpaceOnUse"
   x1="728.28583"
   y1="1481.8649"
   x2="963.37543"
   y2="1481.8649">
					<stop
   offset="0"
   style="stop-color:#DAE3FE"
   id="stop951" />
					<stop
   offset="1"
   style="stop-color:#E9EFFD"
   id="stop953" />
				</linearGradient>
				<path
   class="st12"
   d="m 728.6,1408.6 17.2,164.7 c 3.1,30.2 28,53.5 58.3,54.6 l 95.9,3.7 c 34.6,1.3 63.4,-26.4 63.4,-61 V 1393 c 0,-35.7 -30.5,-63.7 -66,-60.8 l -113.1,9.3 c -34.1,2.8 -59.2,33.1 -55.7,67.1 z"
   id="path956"
   style="fill:#d7eef4;fill-opacity:1" />
				<linearGradient
   id="SVGID_9_"
   gradientUnits="userSpaceOnUse"
   x1="1032.3932"
   y1="1379.6897"
   x2="2028.5472"
   y2="1379.6897">
					<stop
   offset="0"
   style="stop-color:#DAE3FE"
   id="stop958" />
					<stop
   offset="1"
   style="stop-color:#E9EFFD"
   id="stop960" />
				</linearGradient>
				<path
   class="st13"
   d="m 1065.9,1357.9 c 159.6,-5 772.3,-24.9 927,-29.9 19.5,-0.6 35.6,15 35.6,34.5 v 0 c 0,18.6 -14.7,33.8 -33.3,34.5 l -926.5,34.4 c -17.8,0.7 -33.3,-12.4 -35.6,-30.1 l -0.6,-4.5 c -2.4,-20.2 12.9,-38.3 33.4,-38.9 z"
   id="path963"
   style="fill:#d7eef4;fill-opacity:1" />
				<linearGradient
   id="SVGID_10_"
   gradientUnits="userSpaceOnUse"
   x1="1050.655"
   y1="1539.606"
   x2="1719.2996"
   y2="1539.606">
					<stop
   offset="0"
   style="stop-color:#DAE3FE"
   id="stop965" />
					<stop
   offset="1"
   style="stop-color:#E9EFFD"
   id="stop967" />
				</linearGradient>
				<path
   class="st14"
   d="m 1055.8,1575 v 0 c 2.7,4.5 7.7,7.3 12.9,7.2 l 636.2,-13.8 c 8,-0.2 14.4,-6.7 14.4,-14.7 v -41.9 c 0,-8.3 -6.9,-15 -15.2,-14.7 l -618.4,23.1 c -27.6,1 -44,31.1 -29.9,54.8 z"
   id="path970"
   style="fill:#d7eef4;fill-opacity:1" />
			</g><g
   id="g990"
   transform="matrix(1.3091838,0,0,1.3091838,-542.83256,-517.07652)">
				<linearGradient
   id="SVGID_11_"
   gradientUnits="userSpaceOnUse"
   x1="728.28583"
   y1="1939.009"
   x2="963.37543"
   y2="1939.009">
					<stop
   offset="0"
   style="stop-color:#DAE3FE"
   id="stop974" />
					<stop
   offset="1"
   style="stop-color:#E9EFFD"
   id="stop976" />
				</linearGradient>
				<path
   class="st15"
   d="m 728.6,1865.8 17.2,164.7 c 3.1,30.2 28,53.5 58.3,54.6 l 95.9,3.7 c 34.6,1.3 63.4,-26.4 63.4,-61 v -177.7 c 0,-35.7 -30.5,-63.7 -66,-60.8 l -113.1,9.3 c -34.1,2.9 -59.2,33.2 -55.7,67.2 z"
   id="path979"
   style="fill:url(#SVGID_11_)" />
				<linearGradient
   id="SVGID_12_"
   gradientUnits="userSpaceOnUse"
   x1="1032.3932"
   y1="1836.8341"
   x2="2028.5472"
   y2="1836.8341">
					<stop
   offset="0"
   style="stop-color:#DAE3FE"
   id="stop981" />
					<stop
   offset="1"
   style="stop-color:#E9EFFD"
   id="stop983" />
				</linearGradient>
				<path
   class="st16"
   d="m 1065.9,1815 c 159.6,-5 772.3,-24.9 927,-29.9 19.5,-0.6 35.6,15 35.6,34.5 v 0 c 0,18.6 -14.7,33.8 -33.3,34.5 l -926.5,34.4 c -17.8,0.7 -33.3,-12.4 -35.6,-30.1 l -0.6,-4.5 c -2.4,-20.2 12.9,-38.3 33.4,-38.9 z"
   id="path986"
   style="fill:url(#SVGID_12_)" />
				<path
   class="st17"
   d="m 1055.8,2032.2 v 0 c 2.7,4.5 7.7,7.3 12.9,7.2 l 636.2,-13.8 c 8,-0.2 14.4,-6.7 14.4,-14.7 V 1969 c 0,-8.3 -6.9,-15 -15.2,-14.7 l -618.4,23.1 c -27.6,0.9 -44,31.1 -29.9,54.8 z"
   id="path988" />
			</g><g
   id="g1013"
   transform="matrix(1.3091838,0,0,1.3091838,-542.83256,-517.07652)">
				<linearGradient
   id="SVGID_13_"
   gradientUnits="userSpaceOnUse"
   x1="728.28583"
   y1="2396.1533"
   x2="963.37543"
   y2="2396.1533">
					<stop
   offset="0"
   style="stop-color:#DAE3FE"
   id="stop992" />
					<stop
   offset="1"
   style="stop-color:#E9EFFD"
   id="stop994" />
				</linearGradient>
				<path
   class="st18"
   d="m 728.6,2322.9 17.2,164.7 c 3.1,30.2 28,53.5 58.3,54.6 l 95.9,3.7 c 34.6,1.3 63.4,-26.4 63.4,-61 v -177.7 c 0,-35.7 -30.5,-63.7 -66,-60.8 l -113.1,9.3 c -34.1,2.9 -59.2,33.2 -55.7,67.2 z"
   id="path997"
   style="fill:url(#SVGID_13_)" />
				<linearGradient
   id="SVGID_14_"
   gradientUnits="userSpaceOnUse"
   x1="1032.3932"
   y1="2293.9783"
   x2="2028.5472"
   y2="2293.9783">
					<stop
   offset="0"
   style="stop-color:#DAE3FE"
   id="stop999" />
					<stop
   offset="1"
   style="stop-color:#E9EFFD"
   id="stop1001" />
				</linearGradient>
				<path
   class="st19"
   d="m 1065.9,2272.2 c 159.6,-5 772.3,-24.9 927,-29.9 19.5,-0.6 35.6,15 35.6,34.5 v 0 c 0,18.6 -14.7,33.8 -33.3,34.5 l -926.5,34.4 c -17.8,0.7 -33.3,-12.4 -35.6,-30.1 l -0.6,-4.5 c -2.4,-20.2 12.9,-38.3 33.4,-38.9 z"
   id="path1004"
   style="fill:url(#SVGID_14_)" />
				<linearGradient
   id="SVGID_15_"
   gradientUnits="userSpaceOnUse"
   x1="1050.655"
   y1="2453.8945"
   x2="1719.2996"
   y2="2453.8945">
					<stop
   offset="0"
   style="stop-color:#DAE3FE"
   id="stop1006" />
					<stop
   offset="1"
   style="stop-color:#E9EFFD"
   id="stop1008" />
				</linearGradient>
				<path
   class="st20"
   d="m 1055.8,2489.3 v 0 c 2.7,4.5 7.7,7.3 12.9,7.2 l 636.2,-13.8 c 8,-0.2 14.4,-6.7 14.4,-14.7 v -42 c 0,-8.3 -6.9,-15 -15.2,-14.7 l -618.4,23.1 c -27.6,1.1 -44,31.2 -29.9,54.9 z"
   id="path1011"
   style="fill:url(#SVGID_15_)" />
			</g><path
   class="st0"
   d="m 2837.4804,2587.1295 c -5.1058,0 -9.2953,-4.0585 -9.4262,-9.1643 0,-0.2619 -0.5236,-29.8494 -3.404,-131.0492 -0.1307,-5.2369 3.9276,-9.4264 9.1644,-9.688 5.1058,-0.2618 9.4261,3.9275 9.6879,9.1642 2.8803,101.3308 3.4039,130.9184 3.4039,131.1802 0.131,5.2368 -4.0584,9.4261 -9.1642,9.5571 -0.131,0 -0.2618,0 -0.2618,0 z"
   id="path1015"
   style="stroke-width:1.30918" /><path
   class="st0"
   d="m 2830.6726,2340.2173 c -5.1059,0 -9.1643,-4.0586 -9.4262,-9.0333 -1.9637,-65.852 -5.1057,-138.6426 -8.5097,-215.7536 -4.4512,-104.2109 -9.1642,-211.8258 -11.6517,-315.6441 -6.4151,-273.8813 38.7518,-379.0087 77.7655,-418.9389 21.2088,-21.7324 39.0138,-22.387 40.9774,-22.387 5.2368,0 9.4261,4.1894 9.4261,9.426 0,5.1059 -4.0585,9.2953 -9.1642,9.4263 -2.0947,0.1308 -109.8404,12.0444 -100.1525,422.0806 2.4874,103.5567 7.0695,211.1717 11.5208,315.2518 3.273,77.1108 6.4149,150.0324 8.5097,216.0153 0.1309,5.2367 -3.9276,9.5569 -9.0334,9.6879 -0.1309,-0.131 -0.2618,-0.131 -0.2618,-0.131 z"
   id="path1017"
   style="stroke-width:1.30918" /><path
   class="st22"
   d="m 1563.1206,2199.4802 c 0,0 -51.1889,-33.5152 -58.2587,-25.7909 -2.4874,2.7493 -8.3786,12.0444 -13.8772,22.256 -3.9276,7.2007 -2.6185,16.103 3.011,21.9942 l 13.2227,13.6156 c 12.5682,12.961 33.777,12.0446 44.9052,-2.2257 5.6295,-7.2004 10.0807,-16.8884 10.997,-29.8492 z"
   id="path1035"
   style="fill:url(#SVGID_17_);stroke-width:1.30918" /><path
   class="st23"
   d="m 1615.2262,2135.7229 c 0,0 -17.5431,-46.2142 -38.0973,-42.0248 -20.5541,4.1894 -42.9412,20.0305 -42.9412,20.0305 l -32.9914,44.5122 c 0,0 92.4284,36.3953 125.0269,15.5793 0,0 94.3923,16.3649 213.659,-3.273 -17.2813,-36.3953 -27.4929,-72.9215 -33.646,-101.3309 -60.2225,34.3007 -125.289,59.8298 -191.01,66.5067 z"
   id="path1042"
   style="fill:#febbba;fill-opacity:1;stroke-width:1.30918" /><path
   class="st24"
   d="m 2115.5962,1800.5718 c 0,0 -135.2387,170.3249 -309.0983,268.7755 6.0224,28.2783 16.3649,64.8045 33.6461,101.3308 90.2027,-14.7938 194.6757,-50.1418 283.1765,-128.6929 z"
   id="path1049"
   style="fill:#0000d4;fill-opacity:1;stroke-width:1.30918" /><path
   class="st25"
   d="m 2284.2193,2555.4473 c -26.4456,-125.5509 -52.8911,-198.3415 -141.392,-436.482 -27.8856,-74.8854 -53.1528,-150.6871 -40.9775,-229.7619 l 13.7464,-88.7625 c 0,0 172.0268,-58.2587 362.906,-2.4874 0,0 260.2657,113.1134 83.5258,671.4803 -79.7294,89.2863 -173.0741,114.6845 -277.8087,86.0135 z"
   id="path1058"
   style="fill:#0000d4;fill-opacity:1;stroke-width:1.30918" /><path
   class="st26"
   d="m 2144.922,1687.3275 44.6432,107.2219 c 2.8802,6.8079 8.9025,11.6519 16.103,12.8302 25.7908,4.4511 87.9771,11.2589 128.8236,-15.5794 4.844,-3.142 6.1532,-9.8188 2.7493,-14.6628 l -82.4786,-118.3503 z"
   id="path1065"
   style="fill:url(#SVGID_21_);stroke-width:1.30918" /><path
   class="st27"
   d="m 2191.0053,1523.2866 c -1.8328,1.7019 -79.0747,153.4363 -79.0747,153.4363 l 87.5844,42.2866 94.523,-132.8821 c 0,0 -71.6123,-92.2974 -103.0327,-62.8408 z"
   id="path1072"
   style="fill:#febbba;fill-opacity:1;stroke-width:1.30918" /><path
   class="st28"
   d="m 2254.2389,1602.0995 -43.5958,72.7906 c -0.6547,1.0473 -1.4402,2.0947 -2.3566,3.0111 -5.2366,4.844 -22.9107,18.8523 -36.6571,-0.2618 -11.6518,-16.3648 -22.6489,-31.1587 -34.4317,-37.3117 -6.9385,-3.5349 -15.3173,-0.7856 -18.8521,6.153 -7.2007,14.2701 -21.0779,43.3341 -29.8494,70.8271 -2.2257,6.9386 1.3092,14.27 8.1169,17.0193 17.6741,7.2005 52.7602,20.1614 83.7878,24.4817 5.1058,0.6545 10.2117,-1.4401 13.2228,-5.6295 13.3535,-18.3285 51.0582,-69.5177 63.8882,-82.3476 11.9135,-11.9136 34.0387,-7.4623 43.9885,-4.5823 3.7967,1.0475 7.8551,0.5238 11.128,-1.4401 10.0808,-6.0222 27.6239,-21.2087 11.521,-46.8687 -4.0586,-6.415 -1.9639,-14.7938 4.3201,-18.9831 11.2591,-7.4624 23.4344,-21.3397 11.7828,-43.8577 -11.7828,-22.7797 -32.8605,-24.8745 -47.1306,-23.0416 -6.2842,0.7854 -12.8301,-2.4874 -15.1866,-8.5098 -1.0474,-2.6183 -3.2729,-4.844 -7.2005,-5.6294 -7.4624,-1.5711 -12.4373,-8.3787 -10.9972,-15.9721 2.4875,-12.8299 0.6547,-29.5875 -20.0305,-40.9774 -37.7045,-20.8161 -70.8269,13.0919 -79.2057,41.632 -8.3786,28.5403 33.7771,48.7016 60.3535,52.1055 19.5068,2.4876 30.2422,23.8272 34.5625,34.9553 1.4399,4.1893 1.0473,8.6406 -1.1783,12.4372 z"
   id="path1079"
   style="fill:#1c1f24;stroke-width:1.30918" /><path
   class="st29"
   d="m 2238.9215,1692.695 c 0,0 18.7212,-44.2504 40.3227,-42.4176 21.4708,1.8329 38.3591,23.1726 11.7828,47.2616 -33.1225,29.9804 -52.1055,-4.844 -52.1055,-4.844 z"
   id="path1086"
   style="fill:#febbba;fill-opacity:1;stroke-width:1.30918" /><path
   class="st30"
   d="m 2267.3306,3662.624 c 41.5013,3.5348 113.6372,9.4262 170.5867,11.9137 34.1698,1.44 53.8074,-1.8329 65.1975,-6.4151 0,1.3093 0,2.4875 -0.1309,3.6658 -0.2619,6.0222 -5.1059,10.7353 -11.1281,11.128 -107.484,6.0223 -192.9737,2.0947 -223.3468,0.2619 -6.2841,-0.3929 -10.0808,-7.2006 -6.8078,-12.5682 1.571,-2.7493 3.5348,-5.4985 5.6294,-7.9861 z"
   id="path1095"
   style="fill:#000080;fill-opacity:1;stroke-width:1.30918" /><path
   class="st31"
   d="m 2437.9173,3674.5377 c -56.8184,-2.4875 -128.9546,-8.3789 -170.5867,-11.9137 40.8467,-50.1417 170.5867,-83.9186 170.5867,-83.9186 h 36.6571 c 25.1365,36.2642 28.8022,70.9578 28.5404,89.4172 -11.3901,4.5822 -31.0277,7.8551 -65.1975,6.4151 z"
   id="path1102"
   style="fill:url(#SVGID_26_);stroke-width:1.30918" /><path
   class="st32"
   d="m 2480.5968,3518.8756 -3.404,67.8157 c -0.3927,7.3314 -5.8912,13.4846 -13.2227,14.5319 -7.3313,1.0475 -17.1503,1.1783 -27.493,-2.2255 -6.4148,-2.0947 -11.1279,-7.4624 -12.3062,-14.1392 l -11.7825,-65.9829 z"
   id="path1109"
   style="fill:url(#SVGID_27_);stroke-width:1.30918" /><path
   class="st33"
   d="m 2956.4851,3674.014 c 18.0668,-2.4874 26.1836,-11.9136 29.5876,-21.8634 0,0.1309 0,0.1309 0.1309,0.2619 2.6185,10.6044 -3.5349,21.4705 -15.8411,26.7073 -14.7937,6.2839 -31.1585,7.3315 -43.7268,6.8076 -13.4846,-0.5237 -25.9218,-6.1531 -32.7296,-15.0555 l -0.1308,-0.1309 c 13.6153,6.6769 32.5985,7.4624 62.7098,3.273 z"
   id="path1118"
   style="fill:#000080;stroke-width:1.30918" /><path
   class="st34"
   d="m 2871.519,3518.3521 h 30.2422 c 45.9524,-0.9166 74.8853,96.094 84.3115,133.6676 -3.404,9.9497 -11.5208,19.3757 -29.5876,21.8633 -30.1113,4.1894 -49.0945,3.4039 -62.7098,-3.2729 -24.8746,-32.7295 -37.1808,-80.6457 -43.0722,-108.5313 -6.8078,-31.8131 20.8159,-43.7267 20.8159,-43.7267 z"
   id="path1125"
   style="fill:url(#SVGID_29_);stroke-width:1.30918" /><path
   class="st35"
   d="m 2897.8337,3455.5111 16.7576,66.7684 c 2.0946,8.1169 -1.8328,16.6267 -9.4261,20.5543 -9.4262,4.8439 -22.6489,9.8188 -34.6936,8.3787 -5.7602,-0.6547 -10.4734,-4.7132 -12.3062,-10.0807 l -24.6126,-70.1723 z"
   id="path1134"
   style="fill:url(#SVGID_30_);stroke-width:1.30918" /><path
   class="st36"
   d="m 2917.8643,3474.7562 c -20.8161,18.4594 -88.7628,20.947 -88.7628,20.947 -244.5556,-586.9071 -346.541,-748.4606 -346.541,-748.4606 35.348,221.514 7.5932,790.0925 7.5932,790.0925 -40.3228,17.805 -92.4284,0 -92.4284,0 -3.2729,-362.6439 -54.3311,-752.388 -120.1829,-1001.6565 165.2189,-3.6658 255.029,-39.7993 283.831,-62.4482 137.8571,222.0376 356.4909,1001.5258 356.4909,1001.5258 z"
   id="path1143"
   style="fill:url(#SVGID_31_);stroke-width:1.30918" /><path
   class="st47"
   d="m 2528.9057,2219.9034 c 17.0193,70.565 17.543,139.5589 14.9245,164.6953 -0.9163,9.4261 -8.6404,16.8885 -18.0666,17.543 -10.7354,0.7856 -25.5291,1.702 -38.621,2.4876 -14.401,0.7854 -30.5038,-8.248 -41.1083,-15.9721 -5.4986,-3.9277 -12.5683,2.2256 -9.4261,8.117 5.2367,10.3424 14.4009,18.4594 23.4343,25.2672 5.4986,4.1894 23.5656,11.5207 22.3871,19.6377 -0.3928,2.6185 -1.9638,4.8439 -3.6656,6.8078 -10.0808,12.0444 -25.2674,18.5904 -40.323,23.1725 -1.8328,0.5237 -3.9274,1.1783 -5.2368,2.6184 -0.3927,9.6879 29.5877,20.5543 37.3118,23.1724 11.5208,3.7968 23.8271,5.4987 36.0026,4.1895 30.1112,-3.1419 57.9968,-23.958 74.2307,-49.0943 43.334,-67.0303 65.8519,-147.9379 73.9689,-209.8622 -40.5846,-40.061 -101.4618,-29.8493 -125.8125,-22.7798 z"
   id="path1226"
   style="fill:url(#SVGID_42_);stroke-width:1.30918" /><path
   class="st48"
   d="m 2654.4563,2249.2292 c 32.206,-243.1155 -155.1383,-430.0671 -155.1383,-430.0671 l -111.4115,130.002 c 84.5734,105.5203 124.8962,202.138 143.2247,278.0706 24.3508,-7.0694 83.0024,-18.3285 123.3251,21.9945 z"
   id="path1233"
   style="fill:#0000d4;fill-opacity:1;stroke-width:1.30918" /><path
   class="st50"
   d="m 1018.893,3667.2061 c 0,-1.1781 0,-2.3563 -0.3928,-3.5346 -17.9359,-71.0887 -106.96037,-115.3392 -106.96037,-115.3392 l -35.21703,2.7492 c -20.29236,62.5791 -17.67399,101.0691 -14.40102,118.2193 0.13091,0.5237 0.26183,0.9165 0.39275,1.4402 29.06389,2.3565 89.0245,4.0585 156.57847,-3.5349 z"
   id="path1251"
   style="fill:#003380;fill-opacity:1;stroke-width:1.30918" /><path
   class="st51"
   d="m 862.31453,3670.6101 c 1.57102,5.7604 5.76041,10.2116 11.12807,11.2589 41.37021,8.6406 107.09125,1.7019 134.7149,-1.9637 6.1534,-0.7855 10.6045,-6.4151 10.6045,-12.8301 -67.42297,7.7243 -127.38358,6.0223 -156.44747,3.5349 z"
   id="path1258"
   style="fill:#003380;fill-opacity:1;stroke-width:1.30918" /><path
   class="st52"
   d="m 862.18361,3498.4524 14.9247,71.8741 c 1.04734,5.2368 5.10581,9.1644 10.08071,9.688 6.02226,0.5237 14.53194,0.9166 23.17256,-0.3927 7.72419,-1.1783 13.09185,-8.9025 11.65173,-17.4122 l -10.34255,-63.8881 h -49.48715 z"
   id="path1265"
   style="fill:#febbba;fill-opacity:1;stroke-width:1.30918" /><path
   class="st53"
   d="m 1171.5438,3669.6937 c -38.8828,-1.0474 -59.0443,-5.6296 -69.5177,-9.9498 0,3.9276 0,7.855 0.1309,11.9134 0.131,4.3204 3.4039,7.8552 7.3315,7.8552 l 213.7897,-1.4401 c 6.8078,0 10.8662,-7.986 7.855,-14.2702 -28.0164,2.3566 -99.3669,7.5932 -159.5894,5.8915 z"
   id="path1272"
   style="fill:#003380;fill-opacity:1;stroke-width:1.30918" /><path
   class="st54"
   d="m 1331.2643,3663.8022 c -0.2619,-0.5237 -0.5237,-1.0472 -0.7856,-1.5709 -18.8524,-26.4455 -67.0303,-78.9437 -161.946,-101.7236 l -45.5597,-1.4401 c 0,0 -20.2923,35.217 -20.685,100.6763 10.4734,4.3202 30.5039,8.9024 69.5176,9.9498 59.9607,1.7017 131.3112,-3.5349 159.4587,-5.8915 z"
   id="path1279"
   style="fill:#003380;fill-opacity:1;stroke-width:1.30918" /><path
   class="st55"
   d="m 1112.3686,3492.1684 c 0.6547,3.4037 10.2117,54.462 13.8774,74.3615 0.9165,4.7131 4.5821,8.117 8.9025,8.3789 7.8551,0.3927 20.4232,0.5236 31.1585,-2.4876 5.8912,-1.5709 9.8189,-7.5932 9.2953,-14.1391 l -5.1058,-80.9076 z"
   id="path1286"
   style="fill:#febbba;fill-opacity:1;stroke-width:1.30918" /><path
   class="st56"
   d="m 1077.8061,2547.723 c 0,0 62.71,430.8525 108.0077,943.6599 0.7856,9.5569 -6.8076,17.8048 -16.1028,19.8994 -13.8775,2.8803 -34.1699,6.415 -50.9274,5.8914 -9.0333,-0.2618 -16.4956,-6.9386 -17.9358,-15.7101 -15.4483,-90.4646 -125.41978,-575.6483 -154.35275,-682.3467 0,0 -33.12234,453.6322 -22.51797,688.8925 0.26185,5.8913 -4.05846,10.8662 -9.81887,11.6517 -8.77154,1.0474 -22.91071,1.8329 -40.97747,-0.1309 -6.80773,-0.7855 -12.30631,-5.8914 -13.35366,-12.699 -10.99715,-76.4564 -74.23073,-531.9214 -71.48143,-860.0028 0.13091,-18.4597 21.73245,-170.4558 21.73245,-170.4558 z"
   id="path1293"
   style="fill:#003380;fill-opacity:1;stroke-width:1.30918" /><path
   class="st57"
   d="m 800.52104,2572.5976 c -6.41499,-2.3566 -10.99713,-8.117 -11.65173,-14.9248 -8.37877,-80.9076 -48.70164,-582.5868 206.19641,-788.9143 0,0 14.66308,-38.228 134.71508,55.7713 120.1831,93.9995 55.7712,192.5809 27.1001,328.4742 -34.8243,164.4336 -95.8323,298.8867 -68.863,400.0867 1.8329,6.9386 -1.8329,14.2701 -8.6407,16.7575 -93.34476,34.4316 -186.29685,35.6099 -278.85616,2.7494 z"
   id="path1302"
   style="fill:#0000d4;fill-opacity:1;stroke-width:1.30918" /><path
   class="st58"
   d="m 1094.4329,1618.4643 c -0.1311,7.2005 -101.8545,151.7344 -101.8545,151.7344 0,0 18.3284,36.0026 105.5202,65.1973 l 75.278,-154.7454 z"
   id="path1309"
   style="fill:#febbba;fill-opacity:1;stroke-width:1.30918" /><path
   class="st59"
   d="m 1174.555,1535.5929 c 0,0 36.2643,83.1333 38.6207,126.86 2.4876,43.7266 11.7828,72.005 -38.6207,80.7767 -50.5347,8.7714 -93.0831,-16.365 -116.1248,-59.8299 0,0 -36.1334,-67.0301 -28.0164,-94.523 8.2477,-27.362 144.1412,-53.2838 144.1412,-53.2838 z"
   id="path1316"
   style="fill:#febbba;fill-opacity:1;stroke-width:1.30918" /><path
   class="st60"
   d="m 1075.7115,1652.1103 2.8802,-1.3092 c 3.6658,-1.571 5.2367,-6.0222 3.4039,-9.557 -7.0696,-13.7464 -20.947,-45.2977 -3.0112,-52.6293 23.1726,-9.426 114.6846,-28.1474 134.4533,-60.6152 18.9831,-31.1585 2.2256,-71.4812 -23.1727,-83.0022 -1.7018,-0.7855 -3.6656,-0.1309 -4.582,1.4401 l -2.0947,3.9274 c -1.4401,2.7494 -5.4985,2.3567 -6.2842,-0.6545 v 0 c -0.7855,-2.8802 -4.5821,-3.4038 -6.153,-0.9164 -6.0224,9.6879 -22.5181,25.5291 -66.2448,33.5152 -62.3171,11.5208 -103.4256,36.6571 -104.4728,79.7293 0,2.7493 -3.0111,4.1894 -5.36778,2.8801 -4.58211,-2.7492 -11.91352,-4.0583 -21.7324,4.1894 -17.15031,14.401 -10.08071,51.7128 27.36198,82.3478 1.8328,1.44 1.7019,4.1893 -0.131,5.4984 -6.80771,4.4512 -16.88843,14.9247 9.2952,28.9331 27.1002,14.5318 47.3925,13.3536 55.2475,12.0445 1.9639,-0.2618 3.1423,-2.2258 2.7494,-4.1894 l -8.3788,-37.8355 c -0.5236,-2.0947 1.1783,-4.1894 3.4039,-4.1894 h 12.83 z"
   id="path1323"
   style="fill:#00112b;fill-opacity:1;stroke-width:1.30918" /><path
   class="st61"
   d="m 1077.2825,1660.0964 c 0,0 -13.8772,-53.153 -37.7044,-38.2282 -23.8273,14.9246 12.3063,59.5678 31.5512,61.5315 z"
   id="path1330"
   style="fill:#febbba;fill-opacity:1;stroke-width:1.30918" /><g
   id="g1362"
   style="fill:#febbba;fill-opacity:1"
   transform="matrix(1.3091838,0,0,1.3091838,-542.83256,-517.07652)">
					<linearGradient
   id="SVGID_57_"
   gradientUnits="userSpaceOnUse"
   x1="2139.479"
   y1="1079.9685"
   x2="1404.7434"
   y2="1825.803">
						<stop
   offset="0"
   style="stop-color:#FF928E"
   id="stop1334" />
						<stop
   offset="1"
   style="stop-color:#FE7062"
   id="stop1336" />
					</linearGradient>
					<path
   class="st62"
   d="m 1307.1,1821.9 5.4,144 c 15.2,5.2 29.7,9.3 43.5,12.4 8.6,-27.8 27.6,-61.9 43.2,-87.3 -57.2,-20.3 -92.1,-69.1 -92.1,-69.1 z"
   id="path1339"
   style="fill:#febbba;fill-opacity:1" />
					<linearGradient
   id="SVGID_58_"
   gradientUnits="userSpaceOnUse"
   x1="1696.2726"
   y1="1807.3691"
   x2="1356.9987"
   y2="1976.1392">
						<stop
   offset="0"
   style="stop-color:#A22B25"
   id="stop1341" />
						<stop
   offset="1"
   style="stop-color:#C0423C"
   id="stop1343" />
					</linearGradient>
					<path
   class="st63"
   d="m 1592.7,1819.5 c -78.5,84.7 -142,89.7 -193.5,71.5 -15.6,25.4 -34.6,59.5 -43.2,87.3 209.5,46.2 258.9,-146.4 258.9,-146.4 z"
   id="path1346"
   style="fill:#febbba;fill-opacity:1" />
					<linearGradient
   id="SVGID_59_"
   gradientUnits="userSpaceOnUse"
   x1="1691.3059"
   y1="1765.0409"
   x2="1575.2563"
   y2="1886.2482">
						<stop
   offset="0"
   style="stop-color:#A22B25"
   id="stop1348" />
						<stop
   offset="1"
   style="stop-color:#C0423C"
   id="stop1350" />
					</linearGradient>
					<path
   class="st64"
   d="m 1608.6,1810.5 c 0,0 9,-9.7 25.8,-6.7 16.7,3 31.6,8.9 42,0 10.4,-8.9 14.1,3 14.1,3 l -31.2,23.7 z"
   id="path1353"
   style="fill:#febbba;fill-opacity:1" />
					<linearGradient
   id="SVGID_60_"
   gradientUnits="userSpaceOnUse"
   x1="1697.8853"
   y1="1805.3689"
   x2="1358.6124"
   y2="1974.1384">
						<stop
   offset="0"
   style="stop-color:#A22B25"
   id="stop1355" />
						<stop
   offset="1"
   style="stop-color:#C0423C"
   id="stop1357" />
					</linearGradient>
					<path
   class="st65"
   d="m 1589.9,1827.1 c 0,0 6.2,-25.9 24.9,-22.3 18.7,3.5 61,26.6 71.9,22.3 10.9,-4.2 24.9,-14.4 32,-10.8 l -12.6,15.7 c 0,0 32.4,-18.7 38,-7.2 l -54,30.4 c 0.1,-0.1 -78.8,-8 -100.2,-28.1 z"
   id="path1360"
   style="fill:#febbba;fill-opacity:1" />
				</g><path
   class="st66"
   d="m 1054.3718,2114.7759 c 0,0 193.1046,161.6841 401.6577,91.1192 12.9609,-4.3203 27.1002,-3.4038 39.1445,3.0111 l 59.9607,31.6823 c 25.1363,13.2228 56.2949,4.5821 70.9578,-19.8995 8.3789,-13.8775 15.4483,-29.8495 16.8884,-45.036 l -117.3028,-47.5234 8.6405,-14.401 c 0,0 -57.2113,-4.844 -72.2669,36.1334 0,0 -109.055,45.4289 -293.1262,-156.9711 0,0.131 -83.395,71.0887 -114.5537,121.885 z"
   id="path1369"
   style="fill:#febbba;fill-opacity:1;stroke-width:1.30918" />
<path
   class="st13"
   d="M 351.98097,710.65145 C 659.62636,685.91708 1840.6687,587.47366 2138.8688,562.73911 c 37.5881,-2.96819 68.6223,74.20362 68.6223,170.66826 v 0 c 0,92.01246 -28.3357,167.20534 -64.189,170.66822 L 357.37829,1074.2494 c -34.31139,3.4627 -64.18929,-61.3422 -68.62272,-148.90219 l -1.15652,-22.26112 c -4.62634,-99.9275 24.86608,-189.46624 64.38192,-192.43464 z"
   id="path963-4"
   style="fill:#d7eef4;fill-opacity:1;stroke-width:1.30917" /></svg>
